<svg width="30" height="21" viewBox="0 0 30 21" fill="none" xmlns="http://www.w3.org/2000/svg">
<path d="M8.33331 12.6667C10.5466 12.6667 12.3333 10.88 12.3333 8.66669C12.3333 6.45335 10.5466 4.66669 8.33331 4.66669C6.11998 4.66669 4.33331 6.45335 4.33331 8.66669C4.33331 10.88 6.11998 12.6667 8.33331 12.6667ZM8.33331 7.33335C9.06665 7.33335 9.66665 7.93335 9.66665 8.66669C9.66665 9.40002 9.06665 10 8.33331 10C7.59998 10 6.99998 9.40002 6.99998 8.66669C6.99998 7.93335 7.59998 7.33335 8.33331 7.33335ZM24.3333 3.33335H13.6666V14H2.99998V0.666687H0.333313V20.6667H2.99998V16.6667H27V20.6667H29.6666V8.66669C29.6666 5.72002 27.28 3.33335 24.3333 3.33335ZM27 14H16.3333V6.00002H24.3333C25.8 6.00002 27 7.20002 27 8.66669V14Z" fill="#595959"/>
</svg>
