<svg width="50" height="50" viewBox="0 0 50 50" fill="none" xmlns="http://www.w3.org/2000/svg">
<path d="M0.5 32.7772C0.5 38.1368 3.18278 42.1045 7.58093 44.7565C12.0007 47.4216 18.151 48.7506 25.0002 48.7506C31.8493 48.7506 37.9995 47.4216 42.4192 44.7565C46.8173 42.1045 49.5 38.1368 49.5 32.7772C49.5 27.3756 46.775 21.5454 42.3223 17.057C37.8747 12.5736 31.7471 9.474 25.0002 9.474C18.2532 9.474 12.1256 12.5736 7.67781 17.057C3.22508 21.5454 0.5 27.3756 0.5 32.7772Z" stroke="#0A6847"/>
<path d="M25.5575 19.7805H11.337C7.15586 19.7805 3.76634 23.17 3.76634 27.3512V27.3515C3.76634 31.5327 7.15586 34.9222 11.337 34.9222H25.5575C29.7387 34.9222 33.1282 31.5327 33.1282 27.3515V27.3512C33.1282 23.17 29.7387 19.7805 25.5575 19.7805Z" fill="#0A6847" stroke="#0A6847"/>
<path d="M19.2872 29.3707C19.283 28.8935 19.3731 28.4201 19.5525 27.9778C19.7323 27.5346 19.9981 27.1314 20.3347 26.7916C20.6712 26.4517 21.0718 26.182 21.5132 25.9978C21.9546 25.8137 22.4281 25.7189 22.9064 25.7189C23.3847 25.7189 23.8582 25.8137 24.2997 25.9978C24.7411 26.182 25.1417 26.4517 25.4782 26.7916C25.8147 27.1314 26.0806 27.5346 26.2603 27.9778C26.4397 28.4201 26.5299 28.8935 26.5256 29.3707C26.5261 29.4804 26.5699 29.5855 26.6475 29.6631C26.7255 29.7411 26.8314 29.785 26.9418 29.785C27.0521 29.785 27.158 29.7411 27.236 29.6631C27.3141 29.5851 27.3579 29.4792 27.3579 29.3688L27.3579 29.3649C27.3625 28.7774 27.2507 28.1949 27.0291 27.6508C26.8074 27.1067 26.4803 26.6118 26.0664 26.1948C25.6526 25.7777 25.1603 25.4467 24.618 25.2208C24.0756 24.995 23.4939 24.8787 22.9064 24.8787C22.3189 24.8787 21.7372 24.995 21.1949 25.2208C20.6525 25.4467 20.1602 25.7777 19.7464 26.1948C19.3326 26.6118 19.0054 27.1067 18.7838 27.6508C18.5621 28.1949 18.4503 28.7774 18.4549 29.3649L18.4549 29.369C18.4549 29.4236 18.4656 29.4777 18.4865 29.5282C18.5074 29.5787 18.5381 29.6246 18.5767 29.6632C18.6153 29.7018 18.6612 29.7325 18.7117 29.7534C18.7622 29.7743 18.8163 29.785 18.8709 29.785H18.8711C18.9815 29.785 19.0873 29.7411 19.1653 29.6631C19.2429 29.5855 19.2867 29.4804 19.2872 29.3707ZM19.2872 29.3707C19.2872 29.3717 19.2873 29.3727 19.2873 29.3737L19.7872 29.3688H19.2872C19.2872 29.3695 19.2872 29.3701 19.2872 29.3707Z" stroke="#FAFAFA"/>
<path d="M6.33247 28.9921C6.32819 28.5148 6.41835 28.0414 6.59775 27.5992C6.77753 27.1559 7.04338 26.7528 7.37991 26.4129C7.71644 26.0731 8.11699 25.8033 8.55842 25.6192C8.99984 25.4351 9.47338 25.3403 9.95166 25.3403C10.4299 25.3403 10.9035 25.4351 11.3449 25.6192C11.7863 25.8033 12.1869 26.0731 12.5234 26.4129C12.86 26.7528 13.1258 27.1559 13.3056 27.5992C13.485 28.0414 13.5751 28.5148 13.5709 28.992C13.5713 29.1017 13.6151 29.2068 13.6927 29.2844C13.7708 29.3625 13.8766 29.4063 13.987 29.4063C14.0974 29.4063 14.2032 29.3625 14.2813 29.2844C14.3593 29.2064 14.4032 29.1005 14.4032 28.9902L14.4032 28.9863C14.4078 28.3988 14.296 27.8162 14.0743 27.2721C13.8527 26.728 13.5255 26.2332 13.1117 25.8161C12.6979 25.3991 12.2056 25.0681 11.6632 24.8422C11.1209 24.6163 10.5392 24.5 9.95166 24.5C9.36415 24.5 8.78245 24.6163 8.24009 24.8422C7.69774 25.0681 7.20546 25.3991 6.79164 25.8161C6.37783 26.2332 6.05066 26.728 5.829 27.2721C5.60734 27.8162 5.49557 28.3988 5.50015 28.9863L5.50015 28.9903C5.50014 29.045 5.51088 29.0991 5.53178 29.1495C5.55268 29.2 5.58332 29.2459 5.62195 29.2845C5.66059 29.3232 5.70645 29.3538 5.75693 29.3747C5.80741 29.3956 5.86152 29.4063 5.91616 29.4063H5.91632C6.02669 29.4063 6.13254 29.3625 6.21059 29.2844C6.28818 29.2068 6.33197 29.1017 6.33247 28.9921ZM6.33247 28.9921C6.33248 28.9931 6.33249 28.9941 6.3325 28.9951L6.83245 28.9902H6.33248C6.33248 28.9908 6.33248 28.9914 6.33247 28.9921Z" stroke="#FAFAFA"/>
<path d="M35.816 2.4029L35.716 2.35342L31.1931 11.4977L31.2932 11.5472L35.816 2.4029Z" fill="#0A6847" stroke="#0A6847"/>
<path d="M13.5119 2.51115L13.4121 2.56111L17.9793 11.6834L18.0791 11.6334L13.5119 2.51115Z" fill="#0A6847" stroke="#0A6847"/>
<path d="M34.2156 2.06241C33.8781 2.83807 34.2333 3.74048 35.009 4.078C35.7846 4.41552 36.687 4.06033 37.0246 3.28466C37.3621 2.50899 37.0069 1.60658 36.2312 1.26907C35.4556 0.931552 34.5531 1.28674 34.2156 2.06241Z" fill="#0A6847" stroke="#0A6847"/>
<path d="M12.2752 3.58227C12.6904 4.31927 13.6245 4.58011 14.3615 4.16488C15.0985 3.74966 15.3593 2.8156 14.9441 2.0786C14.5289 1.34161 13.5948 1.08077 12.8578 1.49599C12.1208 1.91122 11.86 2.84528 12.2752 3.58227Z" fill="#0A6847" stroke="#0A6847"/>
</svg>
