<svg width="28" height="28" viewBox="0 0 28 28" fill="none" xmlns="http://www.w3.org/2000/svg">
<path d="M19.94 13.94C20.9565 12.9244 21.6954 11.6648 22.0858 10.2819C22.4761 8.89894 22.505 7.43895 22.1696 6.04167L25.1636 4.75767C25.2549 4.71853 25.3545 4.70267 25.4534 4.71152C25.5524 4.72037 25.6476 4.75365 25.7305 4.80837C25.8134 4.86308 25.8814 4.93753 25.9285 5.02503C25.9755 5.11252 26.0001 5.21033 26 5.30967V22.4L17.6 26L10.4 22.4L2.8364 25.6412C2.7451 25.6803 2.6455 25.6962 2.54656 25.6873C2.44761 25.6785 2.35242 25.6452 2.2695 25.5905C2.18659 25.5358 2.11857 25.4613 2.07153 25.3738C2.02449 25.2863 1.99991 25.1885 2 25.0892V8.00006L5.7548 6.39087C5.49061 7.74156 5.56269 9.13649 5.96469 10.4528C6.36668 11.769 7.08626 12.9662 8.06 13.9388L14 19.88L19.94 13.94ZM18.2432 12.2432L14 16.484L9.7568 12.242C8.91784 11.4029 8.34656 10.3338 8.11517 9.16994C7.88379 8.0061 8.0027 6.79978 8.45687 5.70352C8.91105 4.60726 9.68008 3.67029 10.6667 3.01107C11.6534 2.35185 12.8134 2 14 2C15.1866 2 16.3466 2.35185 17.3333 3.01107C18.3199 3.67029 19.089 4.60726 19.5431 5.70352C19.9973 6.79978 20.1162 8.0061 19.8848 9.16994C19.6534 10.3338 19.0822 11.4029 18.2432 12.242" fill="#0A6847"/>
</svg>
