<svg width="32" height="32" viewBox="0 0 32 32" fill="none" xmlns="http://www.w3.org/2000/svg">
<g clip-path="url(#clip0_1196_20033)">
<path d="M22.6667 5.33325L28 10.6666L22.6667 15.9999V11.9999H17.3333V9.33325H22.6667V5.33325ZM13.3333 9.33325C12.6 9.33325 12 9.93325 12 10.6666C12 11.3999 12.6 11.9999 13.3333 11.9999C14.0667 11.9999 14.6667 11.3999 14.6667 10.6666C14.6667 9.93325 14.0667 9.33325 13.3333 9.33325ZM8 9.33325C7.26667 9.33325 6.66667 9.93325 6.66667 10.6666C6.66667 11.3999 7.26667 11.9999 8 11.9999C8.73333 11.9999 9.33333 11.3999 9.33333 10.6666C9.33333 9.93325 8.73333 9.33325 8 9.33325ZM9.33333 22.6666H14.6667V19.9999H9.33333V15.9999L4 21.3333L9.33333 26.6666V22.6666ZM18.6667 22.6666C19.4 22.6666 20 22.0666 20 21.3333C20 20.5999 19.4 19.9999 18.6667 19.9999C17.9333 19.9999 17.3333 20.5999 17.3333 21.3333C17.3333 22.0666 17.9333 22.6666 18.6667 22.6666ZM24 22.6666C24.7333 22.6666 25.3333 22.0666 25.3333 21.3333C25.3333 20.5999 24.7333 19.9999 24 19.9999C23.2667 19.9999 22.6667 20.5999 22.6667 21.3333C22.6667 22.0666 23.2667 22.6666 24 22.6666Z" fill="#0A6847"/>
</g>
<defs>
<clipPath id="clip0_1196_20033">
<rect width="32" height="32" fill="white"/>
</clipPath>
</defs>
</svg>
