<svg width="24" height="25" viewBox="0 0 24 25" fill="none" xmlns="http://www.w3.org/2000/svg">
<path d="M4 7.14228V19.9663L9.065 17.7963L15.065 20.7963L20 18.6793V5.85628L21.303 5.29828C21.3791 5.26566 21.4621 5.25245 21.5445 5.25982C21.627 5.2672 21.7063 5.29493 21.7754 5.34053C21.8445 5.38612 21.9012 5.44817 21.9404 5.52108C21.9796 5.59399 22.0001 5.6755 22 5.75828V19.9993L15 22.9993L9 19.9993L2.697 22.7003C2.62091 22.7329 2.53792 22.7461 2.45547 22.7387C2.37301 22.7314 2.29368 22.7036 2.22459 22.658C2.1555 22.6124 2.09881 22.5504 2.05961 22.4775C2.02041 22.4046 1.99993 22.3231 2 22.2403V7.99928L4 7.14228ZM16.243 12.2423L12 16.4843L7.757 12.2423C6.91799 11.4031 6.34664 10.334 6.11521 9.17017C5.88379 8.00631 6.00266 6.79996 6.45682 5.70366C6.91098 4.60737 7.68001 3.67036 8.66668 3.01111C9.65336 2.35187 10.8134 2 12 2C13.1866 2 14.3466 2.35187 15.3333 3.01111C16.32 3.67036 17.089 4.60737 17.5432 5.70366C17.9973 6.79996 18.1162 8.00631 17.8848 9.17017C17.6534 10.334 17.082 11.4031 16.243 12.2423ZM12 13.6563L14.828 10.8273C15.3875 10.2679 15.7686 9.55519 15.9231 8.77923C16.0775 8.00328 15.9983 7.19895 15.6956 6.46797C15.3929 5.737 14.8802 5.11221 14.2224 4.67263C13.5646 4.23305 12.7912 3.99843 12 3.99843C11.2088 3.99843 10.4354 4.23305 9.77759 4.67263C9.11977 5.11221 8.60708 5.737 8.30437 6.46797C8.00165 7.19895 7.92251 8.00328 8.07695 8.77923C8.23139 9.55519 8.61247 10.2679 9.172 10.8273L12 13.6563Z" fill="#959595"/>
</svg>
