<svg width="11" height="13" viewBox="0 0 11 13" fill="none" xmlns="http://www.w3.org/2000/svg">
<path fill-rule="evenodd" clip-rule="evenodd" d="M5.5 1.15942C3.44801 1.15942 1.78125 2.82984 1.78125 4.89446C1.78125 5.37184 1.99976 6.04013 2.38823 6.82222C2.76885 7.58849 3.28146 8.40374 3.80184 9.15604C4.32099 9.90657 4.84115 10.5848 5.23204 11.076C5.33036 11.1995 5.42038 11.3111 5.5 11.4088C5.57962 11.3111 5.66964 11.1995 5.76796 11.076C6.15885 10.5848 6.67901 9.90657 7.19816 9.15604C7.71854 8.40374 8.23115 7.58849 8.61177 6.82222C9.00024 6.04013 9.21875 5.37184 9.21875 4.89446C9.21875 2.82984 7.55199 1.15942 5.5 1.15942ZM5.5 12.1907C5.12103 12.5168 5.12098 12.5168 5.1209 12.5167L5.12068 12.5164L5.11995 12.5156L5.11735 12.5126L5.10767 12.5012L5.07106 12.4582C5.03926 12.4206 4.99298 12.3656 4.93429 12.2951C4.81695 12.154 4.64986 11.9503 4.4496 11.6987C4.04948 11.196 3.51495 10.4991 2.97941 9.72492C2.4451 8.95247 1.90303 8.09331 1.49263 7.26707C1.09008 6.45664 0.78125 5.61429 0.78125 4.89446C0.78125 2.28119 2.89209 0.159424 5.5 0.159424C8.10791 0.159424 10.2188 2.28119 10.2188 4.89446C10.2188 5.61429 9.90992 6.45664 9.50737 7.26707C9.09697 8.09331 8.5549 8.95247 8.02059 9.72492C7.48505 10.4991 6.95053 11.196 6.5504 11.6987C6.35014 11.9503 6.18305 12.154 6.06571 12.2951C6.00702 12.3656 5.96074 12.4206 5.92894 12.4582L5.89233 12.5012L5.88265 12.5126L5.88005 12.5156L5.87932 12.5164L5.8791 12.5167C5.87902 12.5168 5.87897 12.5168 5.5 12.1907ZM5.5 12.1907L5.87897 12.5168L5.5 12.9572L5.12103 12.5168L5.5 12.1907ZM5.5 3.43983C4.7026 3.43983 4.05288 4.08927 4.05288 4.89446C4.05288 5.69965 4.7026 6.3491 5.5 6.3491C6.29741 6.3491 6.94712 5.69965 6.94712 4.89446C6.94712 4.08927 6.29741 3.43983 5.5 3.43983ZM3.05288 4.89446C3.05288 3.54062 4.14668 2.43983 5.5 2.43983C6.85332 2.43983 7.94712 3.54062 7.94712 4.89446C7.94712 6.2483 6.85332 7.3491 5.5 7.3491C4.14668 7.3491 3.05288 6.2483 3.05288 4.89446Z" fill="#042A1C"/>
</svg>
