<svg width="328" height="298" viewBox="0 0 328 298" fill="none" xmlns="http://www.w3.org/2000/svg">
<g clip-path="url(#clip0_507_17766)">
<path d="M251.084 128.985L248.875 134.636L250.441 135.248L252.651 129.597L251.084 128.985Z" fill="#0A6847"/>
<path d="M113.079 115.128L111.826 116.25L115.875 120.77L117.128 119.648L113.079 115.128Z" fill="#F3CA52"/>
<path d="M131.64 135.357L126.783 138.995L127.792 140.34L132.649 136.703L131.64 135.357Z" fill="#0A6847"/>
<path d="M187.818 93.6166L186.666 94.8411L191.086 98.9991L192.238 97.7746L187.818 93.6166Z" fill="#0A6847"/>
<path d="M155.681 94.9688L152.656 100.229L154.114 101.067L157.139 95.8068L155.681 94.9688Z" fill="#F3CA52"/>
<path d="M199.602 139.952L198.18 140.849L201.418 145.98L202.84 145.083L199.602 139.952Z" fill="#F3CA52"/>
<path d="M133.657 164.938L132.152 165.689L134.864 171.117L136.369 170.365L133.657 164.938Z" fill="#F3CA52"/>
<path d="M111.647 150.657L109.904 156.468L111.515 156.951L113.258 151.139L111.647 150.657Z" fill="#0A6847"/>
<path d="M216.921 168.767L211.881 172.146L212.817 173.542L217.858 170.163L216.921 168.767Z" fill="#0A6847"/>
<path d="M217.675 84.0007L214.65 89.2607L216.108 90.0987L219.133 84.8386L217.675 84.0007Z" fill="#F3CA52"/>
<path d="M49.5663 127.034L48 127.646L50.2092 133.297L51.7755 132.685L49.5663 127.034Z" fill="#F3CA52"/>
<path d="M212.157 120.053L211.148 121.398L216.005 125.036L217.014 123.69L212.157 120.053Z" fill="#F3CA52"/>
<path d="M75.7224 95.2621L71.3027 99.4202L72.4552 100.645L76.8748 96.4866L75.7224 95.2621Z" fill="#0A6847"/>
<path d="M124.675 90.3105L123.217 91.1484L126.241 96.4086L127.699 95.5707L124.675 90.3105Z" fill="#0A6847"/>
<path d="M65.2093 156.355L61.9707 161.486L63.3929 162.383L66.6315 157.252L65.2093 156.355Z" fill="#F3CA52"/>
<path d="M50.8644 170.411L49.9277 171.808L54.9707 175.187L55.9074 173.79L50.8644 170.411Z" fill="#0A6847"/>
<path d="M245.425 103.405L243.967 104.243L246.991 109.503L248.449 108.666L245.425 103.405Z" fill="#0A6847"/>
<path d="M182.242 117.74L178.193 122.26L179.446 123.382L183.495 118.862L182.242 117.74Z" fill="#0A6847"/>
<path d="M146.7 168.684L143.988 174.112L145.493 174.863L148.205 169.435L146.7 168.684Z" fill="#F3CA52"/>
<path d="M168.71 154.403L167.1 154.886L168.842 160.698L170.453 160.215L168.71 154.403Z" fill="#0A6847"/>
<path d="M169.252 157.72L163.521 153.364C163.395 153.268 163.25 153.2 163.096 153.163C162.942 153.126 162.783 153.122 162.627 153.15C162.471 153.178 162.323 153.239 162.192 153.327C162.061 153.416 161.95 153.531 161.866 153.665C161.718 153.917 161.67 154.215 161.729 154.501C161.789 154.787 161.953 155.041 162.189 155.213L163.418 156.147L158.205 154.983C157.627 154.844 156.829 155.042 156.716 155.7C156.655 155.95 156.682 156.213 156.79 156.447C156.899 156.68 157.083 156.87 157.314 156.985C157.311 156.99 157.309 156.996 157.307 157.001C157.307 157.006 157.307 157.01 157.307 157.014L156.417 156.799C156.252 156.759 156.08 156.757 155.914 156.792C155.748 156.827 155.592 156.899 155.457 157.002C155.323 157.105 155.212 157.236 155.135 157.387C155.058 157.538 155.015 157.705 155.01 157.874C155.007 158.141 155.097 158.401 155.263 158.61C155.429 158.82 155.662 158.965 155.923 159.023L156.301 159.115C156.304 159.127 156.308 159.139 156.315 159.149C156.044 159.147 155.782 159.241 155.575 159.414C155.367 159.587 155.228 159.829 155.182 160.095C155.141 160.388 155.211 160.686 155.379 160.929C155.548 161.172 155.801 161.343 156.09 161.408L157.032 161.635C157.016 161.641 157.002 161.651 156.991 161.664C156.98 161.676 156.973 161.691 156.969 161.707C156.965 161.727 156.967 161.747 156.974 161.766C156.733 161.83 156.519 161.972 156.367 162.17C156.214 162.368 156.131 162.611 156.129 162.86C156.133 163.123 156.225 163.376 156.391 163.58C156.557 163.783 156.787 163.925 157.043 163.981L164.984 165.899C166.095 166.167 167.26 166.098 168.331 165.699C169.402 165.301 170.33 164.592 170.996 163.663C171.569 162.862 171.808 161.869 171.661 160.895C171.514 159.921 170.993 159.042 170.209 158.446L169.252 157.72Z" fill="#E98862"/>
<g opacity="0.2">
<path d="M162.469 158.163C162.462 158.189 162.445 158.212 162.422 158.227C162.398 158.241 162.37 158.246 162.343 158.24L157.387 157.126C157.373 157.123 157.361 157.117 157.349 157.109C157.338 157.101 157.328 157.091 157.321 157.08C157.314 157.068 157.309 157.055 157.306 157.041C157.304 157.028 157.304 157.014 157.307 157C157.31 156.987 157.316 156.974 157.324 156.963C157.332 156.951 157.342 156.942 157.354 156.934C157.365 156.927 157.378 156.922 157.392 156.92C157.406 156.917 157.419 156.918 157.433 156.921L162.39 158.035C162.403 158.038 162.416 158.043 162.427 158.051C162.438 158.059 162.448 158.069 162.455 158.081C162.463 158.093 162.468 158.106 162.47 158.12C162.472 158.133 162.472 158.147 162.469 158.161L162.469 158.163Z" fill="#0C0C0C"/>
</g>
<g opacity="0.2">
<path d="M162.037 160.362C162.03 160.389 162.013 160.412 161.99 160.426C161.966 160.441 161.938 160.445 161.911 160.439L156.379 159.197C156.365 159.194 156.353 159.188 156.341 159.18C156.33 159.172 156.32 159.162 156.313 159.15C156.306 159.139 156.301 159.125 156.298 159.112C156.296 159.098 156.296 159.084 156.3 159.071C156.307 159.044 156.323 159.021 156.347 159.006C156.37 158.991 156.398 158.986 156.426 158.991L161.957 160.233C161.971 160.236 161.984 160.242 161.995 160.25C162.006 160.258 162.016 160.268 162.023 160.28C162.031 160.292 162.036 160.305 162.038 160.318C162.04 160.332 162.04 160.346 162.037 160.359V160.362Z" fill="#0C0C0C"/>
</g>
<g opacity="0.2">
<path d="M161.585 162.746C161.578 162.773 161.561 162.796 161.538 162.81C161.514 162.825 161.486 162.829 161.459 162.823L157.047 161.833C157.02 161.827 156.996 161.81 156.981 161.786C156.966 161.763 156.961 161.734 156.967 161.707C156.973 161.68 156.99 161.656 157.014 161.641C157.037 161.626 157.066 161.621 157.093 161.628L161.506 162.618C161.519 162.621 161.532 162.627 161.543 162.635C161.555 162.643 161.564 162.653 161.572 162.665C161.579 162.676 161.584 162.69 161.586 162.703C161.589 162.717 161.588 162.731 161.585 162.744L161.585 162.746Z" fill="#0C0C0C"/>
</g>
<path d="M142.04 127.758L145.24 121.31C145.31 121.168 145.409 121.043 145.531 120.941C145.652 120.84 145.793 120.765 145.945 120.721C146.097 120.678 146.257 120.666 146.414 120.687C146.57 120.709 146.721 120.762 146.856 120.845C147.1 121.005 147.276 121.25 147.35 121.533C147.424 121.816 147.39 122.116 147.255 122.375L146.569 123.758L150.722 120.401C151.178 120.019 151.981 119.843 152.375 120.382C152.54 120.579 152.633 120.827 152.64 121.084C152.646 121.341 152.565 121.593 152.41 121.799C152.414 121.802 152.419 121.806 152.423 121.81C152.425 121.814 152.427 121.818 152.429 121.822L153.131 121.233C153.261 121.124 153.414 121.046 153.578 121.004C153.743 120.961 153.914 120.956 154.081 120.989C154.247 121.021 154.404 121.09 154.541 121.191C154.677 121.292 154.789 121.422 154.869 121.571C154.99 121.81 155.026 122.082 154.97 122.344C154.914 122.605 154.77 122.839 154.562 123.007L154.263 123.257C154.266 123.269 154.267 123.281 154.266 123.294C154.507 123.172 154.784 123.139 155.047 123.202C155.31 123.265 155.541 123.42 155.701 123.638C155.868 123.882 155.937 124.18 155.895 124.473C155.852 124.766 155.7 125.031 155.47 125.217L154.727 125.839C154.744 125.837 154.761 125.84 154.776 125.846C154.792 125.853 154.806 125.862 154.817 125.875C154.829 125.891 154.836 125.91 154.838 125.93C155.083 125.881 155.337 125.913 155.562 126.023C155.786 126.132 155.969 126.312 156.081 126.536C156.194 126.772 156.224 127.04 156.166 127.296C156.107 127.552 155.964 127.781 155.76 127.946L149.498 133.19C148.622 133.924 147.547 134.379 146.41 134.498C145.273 134.617 144.127 134.393 143.118 133.857C142.249 133.394 141.594 132.61 141.292 131.672C140.991 130.734 141.068 129.716 141.506 128.834L142.04 127.758Z" fill="#E98862"/>
<g opacity="0.2">
<path d="M148.315 125.142C148.333 125.163 148.358 125.176 148.386 125.179C148.413 125.181 148.441 125.173 148.462 125.155L152.409 121.957C152.43 121.939 152.444 121.914 152.447 121.886C152.45 121.859 152.442 121.831 152.424 121.809C152.406 121.788 152.381 121.774 152.353 121.771C152.326 121.768 152.298 121.776 152.276 121.794L148.33 124.992C148.308 125.01 148.295 125.035 148.292 125.062C148.289 125.09 148.297 125.118 148.314 125.139L148.315 125.142Z" fill="#0C0C0C"/>
</g>
<g opacity="0.2">
<path d="M149.677 126.921C149.695 126.942 149.72 126.956 149.748 126.958C149.775 126.961 149.803 126.952 149.824 126.935L154.229 123.365C154.25 123.348 154.264 123.322 154.267 123.295C154.269 123.267 154.261 123.24 154.244 123.218C154.226 123.197 154.201 123.184 154.173 123.182C154.146 123.179 154.119 123.186 154.097 123.203L149.691 126.771C149.67 126.789 149.656 126.814 149.653 126.842C149.65 126.869 149.658 126.897 149.675 126.918L149.677 126.921Z" fill="#0C0C0C"/>
</g>
<g opacity="0.2">
<path d="M151.142 128.856C151.16 128.877 151.185 128.891 151.213 128.893C151.24 128.896 151.268 128.887 151.289 128.87L154.802 126.023C154.824 126.005 154.838 125.98 154.841 125.952C154.844 125.924 154.835 125.897 154.818 125.875C154.8 125.853 154.775 125.839 154.747 125.837C154.719 125.834 154.692 125.842 154.67 125.859L151.156 128.707C151.134 128.724 151.121 128.749 151.118 128.777C151.115 128.804 151.123 128.832 151.14 128.854L151.142 128.856Z" fill="#0C0C0C"/>
</g>
<path d="M70.2206 122.229C70.2206 122.229 69.7693 129 68.2459 131.455C63.8597 138.527 62.5889 146.482 66.9813 150.639C71.3736 154.795 99.3893 154.853 101.512 145.293C103.299 137.245 99.4641 136.379 98.531 129.741C98.1089 126.737 96.9475 120.438 96.9475 120.438" fill="#0A0A0A"/>
<path d="M94.2616 143.892C94.2132 143.885 93.6766 152.788 83.3319 152.012C76.1705 151.475 73.6171 143.879 73.4531 143.879C74.2252 143.714 75.5254 143.476 75.8682 143.293C76.996 142.687 78.3907 142.057 78.7548 139.867C78.965 138.606 78.6087 132.149 78.7182 130.872L89.711 133.326C89.5573 136.023 88.4823 142.274 92.2503 143.38C92.8771 143.564 93.5525 143.732 94.2616 143.892Z" fill="#E98862"/>
<path opacity="0.5" d="M89.8648 140.826C89.6926 140.271 89.5817 139.699 89.5341 139.12C89.4133 137.799 89.4374 136.469 89.606 135.153C87.3719 134.851 85.2671 133.929 83.5309 132.491C83.3268 133.245 82.2041 136.538 82.515 137.255C83.1021 138.609 85.8628 140.826 89.8648 140.826Z" fill="#0C0C0C"/>
<path d="M88.4426 138.052C84.1085 138.472 78.5009 136.738 77.3393 130.968L76.2912 125.761C75.1296 119.991 77.2193 114.703 82.6534 113.609C88.0878 112.517 93.0912 116.376 94.2528 122.147L94.7169 124.452C95.1626 126.666 96.1751 137.304 88.4426 138.052Z" fill="#E98862"/>
<path opacity="0.1" d="M85.6874 130.49C86.4006 130.405 86.9282 129.912 86.8658 129.389C86.8033 128.866 86.1746 128.511 85.4613 128.596C84.7481 128.682 84.2205 129.174 84.2829 129.698C84.3454 130.221 84.9741 130.576 85.6874 130.49Z" fill="#0C0C0C"/>
<path opacity="0.1" d="M93.2237 128.399C93.2867 128.922 93.9163 129.276 94.6296 129.192C94.7528 129.177 94.8742 129.15 94.9917 129.11C95.025 128.487 95.0269 127.888 95.0088 127.334C94.8107 127.284 94.6051 127.272 94.4025 127.298C93.6893 127.382 93.1619 127.875 93.2237 128.399Z" fill="#0C0C0C"/>
<path opacity="0.5" d="M90.0739 130.014C90.0774 130.013 90.0809 130.013 90.0844 130.012C90.3047 129.966 90.5222 129.908 90.736 129.838C91.0551 129.731 91.4718 129.556 91.4146 129.268C91.3486 128.939 89.7329 125.573 89.5496 125.19C89.5421 125.173 89.5312 125.158 89.5175 125.145C89.5039 125.132 89.4877 125.122 89.4701 125.115C89.4525 125.108 89.4337 125.105 89.4149 125.106C89.3961 125.107 89.3776 125.112 89.3607 125.12C89.3437 125.128 89.3285 125.14 89.3161 125.154C89.3037 125.168 89.2942 125.184 89.2883 125.202C89.2824 125.22 89.2802 125.239 89.2817 125.258C89.2833 125.276 89.2886 125.295 89.2974 125.311C89.9862 126.745 91.0957 129.102 91.1403 129.323C91.1054 129.426 90.5761 129.628 90.0297 129.738C90.0116 129.741 89.9943 129.747 89.9786 129.757C89.963 129.767 89.9494 129.779 89.9387 129.794C89.9279 129.809 89.9202 129.826 89.916 129.844C89.9118 129.862 89.9111 129.88 89.914 129.898C89.9169 129.916 89.9234 129.934 89.9331 129.949C89.9427 129.965 89.9553 129.979 89.9702 129.989C89.9851 130 90.0019 130.008 90.0198 130.012C90.0377 130.016 90.0562 130.017 90.0743 130.014L90.0739 130.014Z" fill="#0C0C0C"/>
<path d="M71.9559 127.63L76.8277 126.679C80.5079 125.14 81.552 118.728 81.552 118.728C81.552 118.728 86.0938 123.053 96.9486 120.438C96.9486 120.438 94.5907 105.288 78.5626 109.887C73.3946 111.37 69.7338 116.637 70.2782 123.612C70.6598 128.5 71.9559 127.63 71.9559 127.63Z" fill="#0A0A0A"/>
<path d="M78.0309 132.658C76.3795 132.99 74.6852 131.493 74.3522 129.842C74.0193 128.19 75.1754 127.011 76.8268 126.678L77.9006 127.613L79.4504 132.372L78.0309 132.658Z" fill="#E98862"/>
<path d="M90.7187 122.506C91.1319 122.214 91.6151 122.036 92.1192 121.991C92.3724 121.967 92.6279 121.981 92.877 122.033C93.1281 122.085 93.3718 122.167 93.6024 122.279L93.6095 122.282C93.6351 122.294 93.6641 122.294 93.6902 122.285C93.7164 122.275 93.7377 122.255 93.7496 122.23C93.7615 122.205 93.763 122.176 93.7538 122.149C93.7447 122.123 93.7256 122.101 93.7006 122.089C93.4562 121.96 93.1966 121.862 92.9278 121.798C92.6572 121.732 92.3782 121.707 92.1002 121.725C91.5372 121.756 90.9928 121.937 90.5237 122.25C90.5062 122.262 90.4912 122.277 90.4796 122.295C90.468 122.312 90.4599 122.332 90.456 122.353C90.452 122.373 90.4522 122.395 90.4565 122.415C90.4608 122.436 90.4691 122.456 90.481 122.473C90.4929 122.491 90.5081 122.506 90.5258 122.517C90.5434 122.529 90.5632 122.537 90.584 122.541C90.6047 122.545 90.6261 122.544 90.6467 122.54C90.6674 122.536 90.687 122.527 90.7045 122.515L90.7082 122.513L90.7187 122.506Z" fill="#0C0C0C"/>
<path d="M86.2695 123.121C85.7163 123.011 85.1436 123.051 84.6114 123.238C84.3483 123.329 84.1003 123.458 83.8756 123.622C83.6519 123.784 83.4495 123.974 83.2732 124.187C83.2554 124.208 83.2465 124.235 83.2483 124.263C83.2501 124.29 83.2625 124.316 83.283 124.335C83.3034 124.353 83.3303 124.363 83.3579 124.363C83.3856 124.362 83.4118 124.35 83.4313 124.331L83.4369 124.325C83.607 124.133 83.8005 123.964 84.0129 123.821C84.2231 123.677 84.4537 123.566 84.6969 123.492C85.1797 123.34 85.6941 123.319 86.1877 123.431L86.1999 123.434C86.2414 123.444 86.2851 123.437 86.3214 123.415C86.3578 123.393 86.3839 123.357 86.3939 123.316C86.404 123.274 86.3972 123.231 86.375 123.194C86.3528 123.158 86.317 123.132 86.2756 123.122L86.2695 123.121Z" fill="#0C0C0C"/>
<path d="M76.8317 126.599C80.1066 125.38 81.1934 123.119 81.528 121.436C81.7446 120.314 81.7243 119.159 81.4685 118.045L81.3672 118.073C81.6192 119.172 81.6387 120.312 81.4244 121.42C81.0939 123.075 80.0227 125.299 76.7949 126.501L76.8317 126.599Z" fill="#0C0C0C"/>
<path d="M102.685 144.951L133.781 155.343L124.651 159.4L140.156 127.598L152.828 133.502L138.442 165.826C137.715 167.46 136.423 168.778 134.804 169.539C133.184 170.3 131.345 170.454 129.622 169.971L129.312 169.883L97.7461 161.022L102.685 144.951Z" fill="#0A6847"/>
<path d="M83.1378 149.786C75.9713 149.449 75.6697 143.367 75.6697 143.367C75.6697 143.367 72.1188 143.597 69.7584 143.916C65.8939 144.439 63.3445 145.749 61.3155 147.777C59.4282 149.664 58.2792 151.706 59.4951 164.74C60.3755 174.177 59.756 194.936 59.756 194.936H103.427C103.427 194.936 106.477 164.946 106.838 160.698C107.528 152.588 109.477 150.797 105.528 146.62C102.664 143.59 95.2696 143.367 92.2935 143.368C92.2449 143.368 92.8974 150.246 83.1378 149.786Z" fill="#0A6847"/>
<path d="M91.5261 131.151C90.118 131.867 88.5114 132.093 86.9602 131.794C86.9065 131.784 86.851 131.79 86.8003 131.81C86.7495 131.83 86.7056 131.865 86.6736 131.909C86.6416 131.953 86.6229 132.006 86.6197 132.06C86.6164 132.115 86.6287 132.169 86.6552 132.217C87.1176 133.032 88.2145 134.424 90.0963 133.856C91.3113 133.49 91.7706 132.24 91.9409 131.467C91.9525 131.413 91.9487 131.358 91.9297 131.306C91.9108 131.255 91.8776 131.21 91.8341 131.177C91.7905 131.144 91.7384 131.124 91.6839 131.119C91.6293 131.115 91.5746 131.126 91.5261 131.151Z" fill="white"/>
<path d="M91.614 124.89C91.9898 124.89 92.2945 124.585 92.2945 124.21C92.2945 123.834 91.9898 123.529 91.614 123.529C91.2382 123.529 90.9336 123.834 90.9336 124.21C90.9336 124.585 91.2382 124.89 91.614 124.89Z" fill="#0C0C0C"/>
<path d="M85.075 126.034C85.4508 126.034 85.7554 125.73 85.7554 125.354C85.7554 124.978 85.4508 124.674 85.075 124.674C84.6992 124.674 84.3945 124.978 84.3945 125.354C84.3945 125.73 84.6992 126.034 85.075 126.034Z" fill="#0C0C0C"/>
<path d="M106.742 163.653C106.738 163.653 106.733 163.653 106.729 163.653C106.701 163.649 106.676 163.635 106.659 163.613C106.642 163.591 106.634 163.563 106.638 163.536L107.314 158.055C107.315 158.041 107.319 158.028 107.326 158.016C107.333 158.004 107.342 157.993 107.353 157.985C107.364 157.976 107.376 157.97 107.39 157.966C107.403 157.963 107.417 157.962 107.431 157.964C107.445 157.966 107.458 157.97 107.47 157.977C107.482 157.984 107.492 157.993 107.501 158.004C107.509 158.015 107.516 158.027 107.519 158.04C107.523 158.054 107.524 158.068 107.522 158.081L106.846 163.562C106.843 163.587 106.83 163.61 106.811 163.627C106.792 163.644 106.767 163.653 106.742 163.653Z" fill="#0C0C0C"/>
<path d="M217.282 121.363C217.282 121.363 214.677 118.438 214.979 112.96C215.213 108.719 218.486 112.149 218.486 112.149C218.486 112.149 218.684 109.097 220.791 109.824C222.898 110.551 223.49 113.916 223.49 113.916" fill="#0C0C0C"/>
<path d="M231.922 112.404C231.922 112.404 242.444 115.699 235.653 129.49L234.689 129.364L232.732 129.109" fill="#0C0C0C"/>
<path d="M216.955 143.869C217.003 143.863 217.538 152.736 227.849 151.963C234.986 151.428 237.531 143.857 237.695 143.857C236.925 143.693 235.629 143.456 235.287 143.273C234.163 142.669 232.773 142.041 232.411 139.859C232.202 138.601 232.556 132.167 232.447 130.894L221.491 133.339C221.644 136.027 222.715 142.257 218.96 143.36C218.335 143.542 217.661 143.71 216.955 143.869Z" fill="#E98862"/>
<path opacity="0.52" d="M221.336 140.814C221.507 140.261 221.618 139.691 221.665 139.114C221.786 137.797 221.762 136.471 221.594 135.159C223.821 134.859 225.919 133.94 227.649 132.507C227.853 133.258 228.972 136.541 228.662 137.255C228.076 138.604 225.324 140.814 221.336 140.814Z" fill="#0C0C0C"/>
<path d="M222.651 137.809C226.966 138.274 232.573 136.607 233.794 130.868L234.894 125.691C236.114 119.953 234.089 114.66 228.685 113.511C223.281 112.363 218.252 116.156 217.032 121.894L216.545 124.187C216.391 124.977 216.292 125.776 216.247 126.58C216.112 128.702 215.916 131.931 216.896 134.337C217.821 136.609 219.894 137.512 222.651 137.809Z" fill="#E98862"/>
<path d="M219.223 124.589C219.599 124.589 219.904 124.285 219.904 123.909C219.904 123.533 219.599 123.229 219.223 123.229C218.848 123.229 218.543 123.533 218.543 123.909C218.543 124.285 218.848 124.589 219.223 124.589Z" fill="#0C0C0C"/>
<path d="M225.686 125.269C226.062 125.269 226.367 124.965 226.367 124.589C226.367 124.213 226.062 123.909 225.686 123.909C225.311 123.909 225.006 124.213 225.006 124.589C225.006 124.965 225.311 125.269 225.686 125.269Z" fill="#0C0C0C"/>
<path d="M233.086 132.545C234.728 132.894 236.433 131.421 236.782 129.779C237.131 128.137 235.992 126.948 234.35 126.599L233.27 127.52L231.674 132.245L233.086 132.545Z" fill="#E98862"/>
<path d="M231.974 129.574C231.974 129.574 233.041 121.323 230.672 120.328C229.096 119.665 224.643 121.203 221.089 119.762C219.535 119.132 217.921 119.226 217.613 119.958C217.491 120.248 217.35 115.706 220.538 112.915C223.075 110.692 229.816 111.265 232.644 112.724C240.474 116.761 234.617 127.026 234.617 127.026L233.687 129.758L231.974 129.574Z" fill="#0C0C0C"/>
<g opacity="0.52">
<path d="M220.993 130.164L220.982 130.163C220.453 130.051 219.577 129.805 219.66 129.41C219.729 129.082 221.371 125.728 221.558 125.347C221.574 125.314 221.602 125.289 221.637 125.277C221.672 125.265 221.709 125.268 221.742 125.284C221.775 125.3 221.8 125.328 221.812 125.363C221.824 125.398 221.821 125.435 221.805 125.468C221.077 126.953 219.977 129.244 219.929 129.467C219.962 129.572 220.491 129.778 221.039 129.893C221.073 129.9 221.103 129.921 221.123 129.95C221.143 129.98 221.15 130.015 221.145 130.05C221.139 130.085 221.12 130.116 221.092 130.137C221.063 130.159 221.028 130.168 220.993 130.164Z" fill="#0C0C0C"/>
</g>
<path d="M220.87 121.781C220.35 121.518 219.768 121.401 219.187 121.441C218.901 121.459 218.62 121.519 218.352 121.621C218.087 121.72 217.836 121.852 217.604 122.014C217.566 122.039 217.538 122.078 217.528 122.123C217.518 122.167 217.525 122.214 217.549 122.253C217.573 122.293 217.612 122.321 217.657 122.332C217.701 122.343 217.748 122.336 217.788 122.312L217.8 122.305C218.012 122.173 218.241 122.069 218.479 121.994C218.714 121.919 218.959 121.88 219.206 121.878C219.694 121.871 220.175 121.993 220.601 122.232L220.617 122.241C220.647 122.259 220.68 122.271 220.714 122.275C220.748 122.28 220.783 122.278 220.817 122.27C220.85 122.261 220.882 122.246 220.91 122.225C220.937 122.204 220.961 122.178 220.978 122.148C220.996 122.118 221.007 122.085 221.012 122.051C221.017 122.017 221.014 121.982 221.006 121.948C220.997 121.915 220.981 121.883 220.96 121.856C220.939 121.828 220.913 121.805 220.883 121.788L220.87 121.781Z" fill="#0C0C0C"/>
<path d="M224.762 122.832C225.234 122.711 225.731 122.717 226.2 122.849C226.438 122.914 226.665 123.015 226.873 123.147C227.084 123.281 227.278 123.441 227.449 123.623L227.459 123.632C227.491 123.663 227.534 123.681 227.58 123.681C227.625 123.682 227.668 123.664 227.701 123.633C227.734 123.602 227.753 123.56 227.756 123.515C227.758 123.47 227.743 123.426 227.713 123.392C227.531 123.175 227.322 122.983 227.092 122.819C226.859 122.653 226.602 122.522 226.331 122.431C225.78 122.243 225.188 122.206 224.617 122.326C224.583 122.333 224.551 122.347 224.523 122.367C224.495 122.387 224.471 122.412 224.452 122.441C224.414 122.499 224.401 122.571 224.416 122.639C224.431 122.707 224.472 122.766 224.531 122.804C224.59 122.842 224.661 122.855 224.729 122.84L224.743 122.836L224.762 122.832Z" fill="#0C0C0C"/>
<path d="M220.159 131.437C221.691 131.82 223.308 131.681 224.753 131.043C224.803 131.021 224.858 131.014 224.912 131.022C224.966 131.031 225.017 131.054 225.058 131.09C225.099 131.126 225.129 131.173 225.144 131.226C225.16 131.278 225.16 131.334 225.145 131.386C224.876 132.284 224.119 133.887 222.158 133.755C220.892 133.669 220.164 132.554 219.825 131.838C219.801 131.789 219.792 131.734 219.799 131.679C219.806 131.625 219.828 131.573 219.864 131.531C219.899 131.489 219.945 131.458 219.997 131.441C220.05 131.424 220.106 131.423 220.159 131.437Z" fill="white"/>
<path d="M226.243 114.09C226.975 112.372 226.622 110.575 225.454 110.078C224.286 109.58 222.746 110.57 222.013 112.289C221.281 114.008 221.634 115.804 222.802 116.302C223.97 116.799 225.511 115.809 226.243 114.09Z" fill="#0C0C0C"/>
<path d="M228.01 149.786C235.176 149.449 235.478 143.367 235.478 143.367C235.478 143.367 239.029 143.597 241.389 143.916C245.254 144.439 247.803 145.749 249.832 147.777C251.719 149.664 252.868 151.706 251.652 164.74C250.772 174.177 251.392 194.936 251.392 194.936H207.721C207.721 194.936 204.671 164.946 204.31 160.698C203.619 152.588 201.67 150.797 205.62 146.62C208.484 143.59 215.878 143.367 218.854 143.368C218.902 143.368 218.251 150.246 228.01 149.786Z" fill="#0A6847"/>
<path d="M204.206 148.498L192.915 172.43L170.649 155.689L161.805 167.447L191.289 189.614C191.553 189.81 191.828 189.99 192.114 190.152C192.957 190.624 193.884 190.926 194.843 191.039C195.802 191.153 196.774 191.077 197.703 190.815C198.633 190.553 199.501 190.111 200.26 189.513C201.018 188.915 201.652 188.174 202.124 187.332L202.251 187.104L219.477 156.364L204.206 148.498Z" fill="#0A6847"/>
<path d="M253.066 195.146H54.1907C54.1349 195.146 54.0815 195.124 54.042 195.085C54.0026 195.045 53.9805 194.992 53.9805 194.936C53.9805 194.881 54.0026 194.827 54.042 194.788C54.0815 194.748 54.1349 194.726 54.1907 194.726H253.066C253.122 194.726 253.176 194.748 253.215 194.788C253.255 194.827 253.277 194.881 253.277 194.936C253.277 194.992 253.255 195.045 253.215 195.085C253.176 195.124 253.122 195.146 253.066 195.146Z" fill="#292A2E"/>
<path d="M209.811 163.676H103.314V200.07H209.811V163.676Z" fill="#FAFAFA"/>
<path d="M209.915 200.176H103.209V163.571H209.915V200.176ZM103.419 199.966H209.705V163.781H103.419V199.966Z" fill="#0C0C0C"/>
<path d="M98.0542 174.799L104.628 171.863C104.773 171.799 104.929 171.765 105.087 171.764C105.245 171.764 105.402 171.796 105.547 171.859C105.692 171.922 105.822 172.015 105.93 172.131C106.037 172.247 106.119 172.384 106.17 172.534C106.257 172.813 106.236 173.114 106.113 173.379C105.99 173.644 105.773 173.854 105.503 173.967L104.094 174.598L109.435 174.653C110.029 174.648 110.761 175.023 110.722 175.69C110.724 175.947 110.638 176.198 110.479 176.4C110.32 176.603 110.097 176.745 109.847 176.805C109.848 176.811 109.849 176.816 109.849 176.822C109.848 176.826 109.848 176.831 109.846 176.835L110.762 176.828C110.932 176.827 111.1 176.864 111.253 176.936C111.407 177.008 111.542 177.113 111.65 177.244C111.758 177.375 111.835 177.528 111.876 177.692C111.917 177.857 111.921 178.028 111.887 178.194C111.829 178.455 111.683 178.688 111.473 178.854C111.264 179.02 111.004 179.108 110.736 179.105L110.347 179.108C110.341 179.12 110.334 179.13 110.326 179.139C110.589 179.198 110.823 179.349 110.986 179.565C111.149 179.781 111.229 180.047 111.213 180.317C111.187 180.612 111.051 180.886 110.831 181.085C110.612 181.283 110.326 181.392 110.03 181.389L109.061 181.396C109.075 181.406 109.086 181.418 109.094 181.433C109.102 181.447 109.106 181.464 109.107 181.48C109.106 181.5 109.099 181.519 109.088 181.535C109.308 181.653 109.484 181.84 109.587 182.068C109.691 182.295 109.717 182.55 109.661 182.794C109.598 183.048 109.45 183.274 109.242 183.434C109.034 183.594 108.778 183.68 108.516 183.677L100.347 183.735C99.2045 183.743 98.0854 183.41 97.1333 182.778C96.1813 182.146 95.4396 181.244 95.0034 180.188C94.6273 179.278 94.6211 178.257 94.9862 177.342C95.3512 176.427 96.0587 175.69 96.9584 175.288L98.0542 174.799Z" fill="#E98862"/>
<g opacity="0.2">
<path d="M104.559 176.776C104.559 176.803 104.57 176.83 104.59 176.849C104.61 176.868 104.636 176.879 104.664 176.879L109.744 176.925C109.771 176.925 109.798 176.914 109.818 176.895C109.838 176.875 109.849 176.849 109.85 176.821C109.85 176.793 109.839 176.766 109.82 176.746C109.8 176.726 109.773 176.715 109.746 176.715L104.666 176.669C104.638 176.669 104.611 176.68 104.591 176.7C104.572 176.719 104.56 176.746 104.56 176.774L104.559 176.776Z" fill="#0C0C0C"/>
</g>
<g opacity="0.2">
<path d="M104.478 179.016C104.478 179.044 104.489 179.07 104.509 179.089C104.529 179.109 104.555 179.12 104.583 179.12L110.252 179.171C110.28 179.171 110.306 179.16 110.326 179.14C110.346 179.12 110.357 179.093 110.357 179.066C110.356 179.038 110.345 179.012 110.325 178.992C110.306 178.973 110.279 178.961 110.252 178.961L104.583 178.909C104.569 178.909 104.555 178.912 104.542 178.917C104.529 178.922 104.518 178.93 104.508 178.94C104.498 178.95 104.49 178.961 104.485 178.974C104.479 178.987 104.477 179.001 104.477 179.015L104.478 179.016Z" fill="#0C0C0C"/>
</g>
<g opacity="0.2">
<path d="M104.375 181.44C104.375 181.468 104.387 181.494 104.406 181.513C104.426 181.533 104.452 181.544 104.48 181.544L109.002 181.584C109.03 181.585 109.057 181.574 109.077 181.554C109.097 181.535 109.108 181.508 109.108 181.48C109.109 181.452 109.098 181.426 109.078 181.406C109.059 181.386 109.032 181.375 109.004 181.374L104.482 181.333C104.454 181.333 104.427 181.345 104.408 181.364C104.388 181.384 104.377 181.411 104.377 181.439L104.375 181.44Z" fill="#0C0C0C"/>
</g>
<path d="M99.9354 186.501L63.4877 194.785C62.2769 194.917 61.0521 194.766 59.9092 194.345C58.7664 193.924 57.7367 193.244 56.9009 192.358C56.0651 191.473 55.446 190.405 55.0921 189.24C54.7382 188.075 54.6591 186.844 54.8612 185.643L59.0321 152.101C59.379 150.039 60.5307 148.2 62.2338 146.988C63.937 145.776 66.052 145.289 68.1137 145.636C70.1754 145.983 72.0149 147.134 73.2274 148.837C74.44 150.54 74.9263 152.655 74.5794 154.716L72.5709 178.724L97.8936 172.995L99.9354 186.501Z" fill="#0A6847"/>
<path d="M67.448 179.668C67.4216 179.667 67.3963 179.657 67.377 179.639C67.3577 179.621 67.346 179.596 67.344 179.57C67.3421 179.544 67.3501 179.518 67.3666 179.497C67.383 179.476 67.4066 179.463 67.4326 179.459L72.5115 178.374C72.5252 178.372 72.5391 178.373 72.5526 178.376C72.5661 178.379 72.5787 178.385 72.5898 178.393C72.601 178.402 72.6103 178.412 72.6174 178.424C72.6245 178.436 72.6291 178.449 72.6309 178.463C72.635 178.49 72.628 178.518 72.6115 178.541C72.5949 178.563 72.5702 178.578 72.5426 178.582L67.4638 179.666C67.4585 179.667 67.4533 179.668 67.448 179.668Z" fill="#0C0C0C"/>
<path d="M64.5829 194.936C64.555 194.938 64.5275 194.929 64.5065 194.91C64.4855 194.892 64.4727 194.866 64.4709 194.838C64.4691 194.81 64.4784 194.783 64.4969 194.762C64.5153 194.741 64.5413 194.728 64.5692 194.726L99.7083 186.452L97.7172 173.148L72.5456 178.581C72.5293 178.583 72.5128 178.581 72.4973 178.576C72.4818 178.57 72.4678 178.561 72.4563 178.55C72.4448 178.538 72.4363 178.524 72.4314 178.508C72.4265 178.492 72.4254 178.475 72.4281 178.459L73.8401 164.742C73.8422 164.728 73.847 164.715 73.8543 164.703C73.8616 164.691 73.8711 164.681 73.8824 164.673C73.8937 164.665 73.9065 164.659 73.92 164.656C73.9335 164.653 73.9475 164.653 73.9612 164.655C73.9886 164.66 74.0132 164.675 74.0293 164.698C74.0455 164.721 74.052 164.749 74.0473 164.777L72.66 178.353L97.7661 172.916C97.7796 172.913 97.7938 172.912 97.8077 172.913C97.8216 172.915 97.835 172.92 97.8471 172.927C97.8591 172.934 97.8697 172.943 97.8781 172.955C97.8865 172.966 97.8926 172.979 97.896 172.992L99.9378 186.5C99.9443 186.527 99.9401 186.555 99.9263 186.578C99.9124 186.602 99.8899 186.619 99.8636 186.626L64.5965 194.935C64.592 194.936 64.5874 194.936 64.5829 194.936Z" fill="#0C0C0C"/>
<path d="M213.092 181.104L206.518 178.168C206.374 178.104 206.218 178.07 206.059 178.069C205.901 178.069 205.745 178.101 205.6 178.164C205.454 178.227 205.324 178.319 205.217 178.436C205.11 178.552 205.028 178.689 204.976 178.839C204.89 179.118 204.91 179.419 205.034 179.684C205.157 179.949 205.374 180.158 205.643 180.272L207.053 180.903L201.711 180.958C201.117 180.953 200.385 181.328 200.425 181.995C200.423 182.252 200.509 182.502 200.668 182.705C200.827 182.908 201.05 183.05 201.3 183.11C201.299 183.115 201.298 183.121 201.297 183.127C201.298 183.131 201.299 183.136 201.3 183.14L200.384 183.133C200.215 183.132 200.047 183.169 199.893 183.241C199.74 183.313 199.604 183.418 199.496 183.549C199.389 183.679 199.311 183.833 199.27 183.997C199.229 184.162 199.225 184.333 199.259 184.499C199.317 184.76 199.464 184.993 199.673 185.159C199.883 185.324 200.143 185.413 200.41 185.41L200.8 185.413C200.805 185.424 200.812 185.435 200.821 185.444C200.557 185.503 200.323 185.654 200.161 185.87C199.998 186.086 199.918 186.352 199.934 186.622C199.96 186.917 200.096 187.191 200.316 187.39C200.535 187.588 200.821 187.697 201.117 187.694L202.085 187.701C202.072 187.71 202.061 187.723 202.053 187.738C202.045 187.752 202.04 187.768 202.04 187.785C202.041 187.805 202.047 187.824 202.059 187.84C201.838 187.958 201.663 188.145 201.56 188.373C201.456 188.6 201.43 188.855 201.485 189.099C201.549 189.353 201.697 189.579 201.905 189.739C202.113 189.899 202.368 189.985 202.631 189.981L210.8 190.04C211.942 190.048 213.062 189.715 214.014 189.083C214.966 188.451 215.707 187.549 216.143 186.493C216.52 185.582 216.526 184.561 216.161 183.646C215.796 182.731 215.088 181.994 214.188 181.592L213.092 181.104Z" fill="#E98862"/>
<g opacity="0.2">
<path d="M206.588 183.081C206.588 183.108 206.576 183.135 206.557 183.154C206.537 183.173 206.51 183.184 206.483 183.184L201.403 183.23C201.389 183.23 201.375 183.227 201.363 183.222C201.35 183.217 201.338 183.209 201.328 183.2C201.318 183.19 201.311 183.179 201.305 183.166C201.3 183.153 201.297 183.14 201.297 183.126C201.297 183.112 201.299 183.098 201.305 183.085C201.31 183.073 201.317 183.061 201.327 183.051C201.337 183.041 201.348 183.033 201.361 183.028C201.374 183.023 201.387 183.02 201.401 183.02L206.481 182.974C206.509 182.974 206.536 182.985 206.555 183.005C206.575 183.024 206.586 183.051 206.586 183.079L206.588 183.081Z" fill="#0C0C0C"/>
</g>
<g opacity="0.2">
<path d="M206.67 185.321C206.669 185.348 206.658 185.375 206.639 185.394C206.619 185.413 206.593 185.424 206.565 185.425L200.896 185.476C200.868 185.476 200.842 185.465 200.822 185.445C200.802 185.425 200.791 185.398 200.791 185.371C200.792 185.343 200.803 185.317 200.823 185.297C200.842 185.278 200.869 185.266 200.896 185.265L206.565 185.214C206.593 185.214 206.62 185.225 206.64 185.245C206.659 185.265 206.67 185.292 206.67 185.319L206.67 185.321Z" fill="#0C0C0C"/>
</g>
<g opacity="0.2">
<path d="M206.772 187.745C206.772 187.772 206.761 187.799 206.741 187.818C206.722 187.837 206.695 187.848 206.667 187.848L202.145 187.889C202.131 187.889 202.118 187.887 202.105 187.881C202.092 187.876 202.08 187.869 202.071 187.859C202.061 187.849 202.053 187.838 202.047 187.825C202.042 187.812 202.039 187.799 202.039 187.785C202.039 187.771 202.042 187.757 202.047 187.745C202.052 187.732 202.06 187.72 202.069 187.71C202.079 187.701 202.09 187.693 202.103 187.687C202.116 187.682 202.129 187.679 202.143 187.679L206.665 187.638C206.693 187.638 206.72 187.649 206.74 187.669C206.759 187.689 206.771 187.715 206.771 187.743L206.772 187.745Z" fill="#0C0C0C"/>
</g>
<path d="M213.312 192.806L247.658 194.785C248.869 194.917 250.094 194.766 251.237 194.345C252.379 193.924 253.409 193.244 254.245 192.358C255.081 191.473 255.7 190.405 256.054 189.24C256.408 188.075 256.487 186.844 256.285 185.643L252.114 152.099C251.943 151.079 251.572 150.102 251.022 149.225C250.473 148.348 249.756 147.587 248.913 146.987C248.069 146.387 247.116 145.958 246.107 145.726C245.098 145.494 244.054 145.463 243.033 145.635C242.012 145.807 241.035 146.178 240.158 146.727C239.28 147.276 238.52 147.993 237.919 148.836C237.319 149.679 236.89 150.632 236.658 151.641C236.426 152.65 236.395 153.694 236.567 154.715L238.576 180.194L213.463 179.298L213.312 192.806Z" fill="#0A6847"/>
<path d="M243.7 180.088C243.726 180.088 243.751 180.077 243.771 180.059C243.79 180.041 243.802 180.017 243.804 179.99C243.806 179.964 243.798 179.938 243.781 179.917C243.765 179.897 243.741 179.883 243.715 179.879L238.636 179.845C238.623 179.843 238.609 179.844 238.595 179.847C238.582 179.85 238.569 179.856 238.558 179.864C238.547 179.873 238.537 179.883 238.53 179.895C238.523 179.907 238.519 179.92 238.517 179.934C238.513 179.961 238.52 179.989 238.536 180.012C238.553 180.034 238.578 180.049 238.605 180.053L243.684 180.086C243.689 180.087 243.694 180.088 243.7 180.088Z" fill="#0C0C0C"/>
<path d="M246.564 194.936C246.592 194.938 246.62 194.929 246.641 194.91C246.662 194.892 246.674 194.866 246.676 194.838C246.678 194.81 246.669 194.783 246.65 194.762C246.632 194.741 246.606 194.728 246.578 194.726L213.54 192.757L213.639 179.454L238.601 180.053C238.617 180.055 238.634 180.053 238.649 180.048C238.665 180.042 238.679 180.034 238.69 180.022C238.702 180.01 238.71 179.996 238.715 179.98C238.72 179.964 238.721 179.948 238.718 179.931L237.307 164.743C237.304 164.729 237.3 164.716 237.292 164.704C237.285 164.692 237.275 164.682 237.264 164.674C237.253 164.666 237.24 164.66 237.227 164.657C237.213 164.654 237.199 164.654 237.185 164.656C237.172 164.659 237.159 164.664 237.147 164.671C237.135 164.678 237.125 164.688 237.117 164.699C237.109 164.71 237.103 164.723 237.1 164.736C237.097 164.75 237.097 164.764 237.099 164.777L238.488 179.825L213.592 179.222C213.578 179.218 213.564 179.217 213.55 179.219C213.536 179.221 213.523 179.226 213.511 179.233C213.499 179.24 213.488 179.249 213.48 179.26C213.471 179.272 213.465 179.284 213.462 179.298L213.312 192.806C213.305 192.833 213.309 192.861 213.323 192.884C213.337 192.908 213.359 192.925 213.386 192.932L246.55 194.934C246.555 194.935 246.56 194.936 246.564 194.936Z" fill="#0C0C0C"/>
<path d="M128.56 187.489H125.769L124.203 181.417C124.145 181.2 124.046 180.754 123.907 180.076C123.767 179.399 123.687 178.945 123.665 178.713C123.634 178.997 123.555 179.454 123.428 180.084C123.301 180.714 123.204 181.164 123.135 181.432L121.577 187.489H118.794L115.844 175.93H118.256L119.735 182.24C119.993 183.405 120.18 184.414 120.296 185.268C120.328 184.967 120.4 184.502 120.514 183.872C120.627 183.243 120.734 182.754 120.834 182.406L122.519 175.93H124.836L126.52 182.406C126.594 182.696 126.686 183.138 126.797 183.734C126.908 184.329 126.992 184.841 127.049 185.268C127.102 184.857 127.186 184.344 127.301 183.73C127.417 183.116 127.522 182.619 127.617 182.24L129.088 175.93H131.5L128.56 187.489Z" fill="#1E1E1E"/>
<path d="M139.616 187.489H132.957V175.93H139.616V177.938H135.409V180.476H139.324V182.484H135.409V185.465H139.616V187.489Z" fill="#1E1E1E"/>
<path d="M142.027 187.489V175.93H144.479V185.466H149.169V187.49L142.027 187.489Z" fill="#1E1E1E"/>
<path d="M156.09 177.803C155.674 177.784 155.26 177.869 154.886 178.051C154.512 178.232 154.188 178.505 153.946 178.843C153.44 179.536 153.187 180.502 153.187 181.741C153.187 184.319 154.154 185.608 156.089 185.608C157.099 185.569 158.096 185.363 159.039 184.998V187.054C158.029 187.461 156.948 187.663 155.86 187.647C154.178 187.647 152.892 187.137 152 186.117C151.109 185.097 150.664 183.633 150.664 181.725C150.64 180.636 150.864 179.555 151.32 178.566C151.725 177.698 152.382 176.973 153.207 176.486C154.084 175.989 155.08 175.739 156.089 175.763C157.264 175.776 158.421 176.054 159.473 176.577L158.682 178.57C158.257 178.367 157.822 178.188 157.378 178.032C156.964 177.884 156.529 177.806 156.09 177.803Z" fill="#1E1E1E"/>
<path d="M171.993 181.693C171.993 183.607 171.518 185.077 170.569 186.105C169.62 187.133 168.26 187.647 166.488 187.647C164.717 187.647 163.357 187.133 162.408 186.105C161.459 185.077 160.984 183.602 160.984 181.678C160.984 179.753 161.46 178.284 162.412 177.27C163.364 176.255 164.728 175.748 166.504 175.747C168.281 175.747 169.64 176.259 170.581 177.282C171.523 178.304 171.993 179.775 171.993 181.693ZM163.555 181.693C163.555 182.985 163.8 183.957 164.29 184.611C164.781 185.264 165.514 185.591 166.489 185.591C168.445 185.591 169.423 184.292 169.423 181.693C169.423 179.089 168.45 177.787 166.504 177.787C165.529 177.787 164.794 178.116 164.297 178.772C163.801 179.428 163.553 180.402 163.555 181.693Z" fill="#1E1E1E"/>
<path d="M179.284 187.489L176.5 178.42H176.429C176.529 180.265 176.579 181.496 176.579 182.112V187.489H174.389V175.93H177.726L180.462 184.77H180.51L183.412 175.93H186.75V187.489H184.464V182.017C184.464 181.759 184.468 181.461 184.476 181.124C184.483 180.786 184.519 179.89 184.583 178.436H184.512L181.53 187.489H179.284Z" fill="#1E1E1E"/>
<path d="M196.319 187.489H189.66V175.93H196.319V177.938H192.112V180.476H196.027V182.484H192.112V185.465H196.319V187.489Z" fill="#1E1E1E"/>
</g>
<defs>
<clipPath id="clip0_507_17766">
<rect width="232" height="129.336" fill="white" transform="translate(48 84)"/>
</clipPath>
</defs>
</svg>
