<svg width="28" height="28" viewBox="0 0 28 28" fill="none" xmlns="http://www.w3.org/2000/svg">
<path fill-rule="evenodd" clip-rule="evenodd" d="M14 0.666687C21.364 0.666687 27.3333 6.63602 27.3333 14C27.3333 21.364 21.364 27.3334 14 27.3334C6.63599 27.3334 0.666656 21.364 0.666656 14C0.666656 6.63602 6.63599 0.666687 14 0.666687ZM14 3.33335C11.171 3.33335 8.45791 4.45716 6.45752 6.45755C4.45713 8.45794 3.33332 11.171 3.33332 14C3.33332 16.829 4.45713 19.5421 6.45752 21.5425C8.45791 23.5429 11.171 24.6667 14 24.6667C16.829 24.6667 19.5421 23.5429 21.5425 21.5425C23.5429 19.5421 24.6667 16.829 24.6667 14C24.6667 11.171 23.5429 8.45794 21.5425 6.45755C19.5421 4.45716 16.829 3.33335 14 3.33335ZM16 7.33335C17.2167 7.3316 18.3859 7.80507 19.2586 8.65287C20.1312 9.50067 20.6383 10.6558 20.6716 11.872C20.705 13.0882 20.2621 14.2693 19.4373 15.1637C18.6124 16.0581 17.4709 16.595 16.256 16.66L16 16.6667H12.6667V19.3334C12.6663 19.6732 12.5362 20.0001 12.3029 20.2472C12.0696 20.4943 11.7507 20.643 11.4115 20.6629C11.0722 20.6828 10.7382 20.5725 10.4775 20.3543C10.2169 20.1362 10.0495 19.8268 10.0093 19.4894L9.99999 19.3334V10C9.99978 9.32725 10.2539 8.67927 10.7113 8.18596C11.1688 7.69265 11.7958 7.39048 12.4667 7.34002L12.6667 7.33335H16ZM16 10H12.6667V14H16C16.5136 13.9998 17.0075 13.8019 17.3792 13.4475C17.7509 13.093 17.972 12.6092 17.9967 12.0961C18.0214 11.5831 17.8477 11.0802 17.5118 10.6918C17.1758 10.3033 16.7032 10.0589 16.192 10.0094L16 10Z" fill="#595959"/>
</svg>
