<?xml version="1.0" encoding="UTF-8"?>
<!DOCTYPE svg PUBLIC "-//W3C//DTD SVG 1.1//EN" "http://www.w3.org/Graphics/SVG/1.1/DTD/svg11.dtd">
<svg xmlns="http://www.w3.org/2000/svg" version="1.1" width="328px" height="217px" style="shape-rendering:geometricPrecision; text-rendering:geometricPrecision; image-rendering:optimizeQuality; fill-rule:evenodd; clip-rule:evenodd" xmlns:xlink="http://www.w3.org/1999/xlink">
<g><path style="opacity:0.715" fill="#f3c952" d="M 145.5,42.5 C 148.114,42.2771 149.781,43.4438 150.5,46C 149.725,47.2295 148.725,47.5628 147.5,47C 146.418,45.6703 145.751,44.1703 145.5,42.5 Z"/></g>
<g><path style="opacity:0.734" fill="#f5cd4e" d="M 239.5,53.5 C 240.496,53.4142 241.329,53.7476 242,54.5C 242.465,55.9308 243.299,57.0975 244.5,58C 242.863,59.951 241.363,59.7843 240,57.5C 238.666,56.1221 238.499,54.7887 239.5,53.5 Z"/></g>
<g><path style="opacity:1" fill="#f2ca51" d="M 91.5,55.5 C 92.8333,56.1667 92.8333,56.1667 91.5,55.5 Z"/></g>
<g><path style="opacity:0.726" fill="#f3cb52" d="M 191.5,52.5 C 192.947,53.1342 193.613,54.3009 193.5,56C 193.728,60.6708 191.728,63.8375 187.5,65.5C 187.167,65.1667 186.833,64.8333 186.5,64.5C 187.605,63.1076 188.939,61.941 190.5,61C 187.553,60.8882 186.22,59.3882 186.5,56.5C 188.288,56.7852 189.955,56.4519 191.5,55.5C 190.209,54.4728 190.209,53.4728 191.5,52.5 Z"/></g>
<g><path style="opacity:0.704" fill="#e78763" d="M 236.5,59.5 C 234.901,59.7678 233.568,59.4345 232.5,58.5C 232.834,55.7252 234.167,55.0585 236.5,56.5C 235.209,57.5272 235.209,58.5272 236.5,59.5 Z"/></g>
<g><path style="opacity:0.71" fill="#f3cb52" d="M 132.5,50.5 C 136.17,50.3266 138.67,51.9933 140,55.5C 142.088,59.0245 141.921,62.3578 139.5,65.5C 138.614,64.675 138.281,63.675 138.5,62.5C 137.167,62.5 135.833,62.5 134.5,62.5C 134.679,60.0459 134.013,57.8792 132.5,56C 132.82,54.3468 133.82,53.3468 135.5,53C 133.881,52.7645 132.881,51.9311 132.5,50.5 Z"/></g>
<g><path style="opacity:0.904" fill="#0d6546" d="M 232.5,58.5 C 233.568,59.4345 234.901,59.7678 236.5,59.5C 233.242,64.6978 233.242,69.6978 236.5,74.5C 236.973,75.9063 237.973,76.573 239.5,76.5C 240.533,79.5992 242.533,80.2659 245.5,78.5C 247.38,78.7709 248.713,78.1042 249.5,76.5C 250.807,75.8466 252.14,75.1799 253.5,74.5C 254.513,71.0468 255.513,67.7135 256.5,64.5C 257.5,64.5 258.5,64.5 259.5,64.5C 261.268,72.3708 258.435,78.0375 251,81.5C 247.497,86.8093 245.997,92.476 246.5,98.5C 241.256,98.6046 236.256,97.6046 231.5,95.5C 233.369,90.0032 234.369,84.5032 234.5,79C 227.215,72.8431 226.548,66.0097 232.5,58.5 Z"/></g>
<g><path style="opacity:1" fill="#e88861" d="M 92.5,61.5 C 91.8333,60.1667 91.8333,60.1667 92.5,61.5 Z"/></g>
<g><path style="opacity:0.625" fill="#ea8763" d="M 259.5,64.5 C 258.5,64.5 257.5,64.5 256.5,64.5C 256.5,63.1667 256.5,61.8333 256.5,60.5C 257.5,60.5 258.5,60.5 259.5,60.5C 259.5,61.8333 259.5,63.1667 259.5,64.5 Z"/></g>
<g><path style="opacity:1" fill="#e88861" d="M 66.5,63.5 C 67.525,63.8966 67.6917,64.5632 67,65.5C 66.5357,64.9056 66.369,64.2389 66.5,63.5 Z"/></g>
<g><path style="opacity:1" fill="#0f6747" d="M 92.5,61.5 C 95.2369,64.6606 97.2369,68.3273 98.5,72.5C 91.1233,78.9758 89.4567,86.8092 93.5,96C 92.9444,97.0111 92.2778,97.8444 91.5,98.5C 87.9359,99.4227 84.2693,99.756 80.5,99.5C 81.0104,93.928 80.1771,88.5947 78,83.5C 74.5009,81.7515 71.1676,79.7515 68,77.5C 67.7435,74.443 67.2435,71.443 66.5,68.5C 67.0354,66.7295 67.8687,66.3961 69,67.5C 68.2818,75.0655 71.6152,79.3988 79,80.5C 81.1829,80.4779 82.6829,79.4779 83.5,77.5C 84.1667,77.5 84.8333,77.5 85.5,77.5C 86.3143,79.2726 87.6476,79.7726 89.5,79C 91.3333,77.1667 93.1667,75.3333 95,73.5C 93.9213,69.6313 93.088,65.6313 92.5,61.5 Z"/></g>
<g><path style="opacity:0.899" fill="#131313" d="M 249.5,76.5 C 248.713,78.1042 247.38,78.7709 245.5,78.5C 244.248,76.6612 244.248,74.8278 245.5,73C 244.331,71.1642 242.664,69.9976 240.5,69.5C 239.09,71.9492 239.424,74.1159 241.5,76C 240.906,76.4643 240.239,76.631 239.5,76.5C 237.973,76.573 236.973,75.9063 236.5,74.5C 237.469,72.337 238.302,70.0037 239,67.5C 241.925,64.9406 244.925,64.9406 248,67.5C 248.259,70.5867 248.759,73.5867 249.5,76.5 Z"/></g>
<g><path style="opacity:1" fill="#121112" d="M 87.5,71.5 C 84.0504,70.7564 82.3838,72.0897 82.5,75.5C 79.9629,73.3681 79.9629,71.2015 82.5,69C 84.5787,68.1923 86.5787,68.359 88.5,69.5C 88.1373,70.1835 87.8039,70.8501 87.5,71.5 Z"/></g>
<g><path style="opacity:0.556" fill="#f3cb51" d="M 221.5,68.5 C 223.288,68.2148 224.955,68.5481 226.5,69.5C 224.726,70.1867 223.059,71.0201 221.5,72C 223.863,72.5885 224.863,74.0885 224.5,76.5C 222.533,76.7394 220.699,76.4061 219,75.5C 218.751,76.624 218.251,77.624 217.5,78.5C 217.085,74.6357 218.419,71.3024 221.5,68.5 Z"/></g>
<g><path style="opacity:1" fill="#d17e5b" d="M 245.5,78.5 C 242.533,80.2659 240.533,79.5992 239.5,76.5C 240.239,76.631 240.906,76.4643 241.5,76C 239.424,74.1159 239.09,71.9492 240.5,69.5C 242.664,69.9976 244.331,71.1642 245.5,73C 244.248,74.8278 244.248,76.6612 245.5,78.5 Z"/></g>
<g><path style="opacity:1" fill="#d27d5c" d="M 87.5,71.5 C 87.7413,73.8863 87.0746,75.8863 85.5,77.5C 84.8333,77.5 84.1667,77.5 83.5,77.5C 83.1667,76.8333 82.8333,76.1667 82.5,75.5C 82.3838,72.0897 84.0504,70.7564 87.5,71.5 Z"/></g>
<g><path style="opacity:0.719" fill="#f4c653" d="M 106.5,71.5 C 107.995,71.4148 108.995,72.0815 109.5,73.5C 108.242,76.4995 106.242,77.4995 103.5,76.5C 104.952,75.0603 105.952,73.3936 106.5,71.5 Z"/></g>
<g><path style="opacity:0.98" fill="#f2c953" d="M 176.5,72.5 C 176.799,85.5349 176.299,98.5349 175,111.5C 173.167,117.847 169.833,123.18 165,127.5C 163.241,137.165 164.908,146.165 170,154.5C 171.638,156.734 173.805,158.067 176.5,158.5C 178.5,158.5 179.5,159.5 179.5,161.5C 167.5,161.5 155.5,161.5 143.5,161.5C 144.219,159.112 145.885,157.612 148.5,157C 153.178,152.476 155.845,146.976 156.5,140.5C 157.698,136.512 157.698,132.512 156.5,128.5C 151.715,126.358 147.549,123.358 144,119.5C 143.051,122.2 141.217,123.033 138.5,122C 137.438,119.209 136.105,116.543 134.5,114C 129.773,111.422 124.773,109.422 119.5,108C 109.261,101.935 106.761,93.4345 112,82.5C 116.536,77.8485 122.036,76.3485 128.5,78C 130.081,78.7065 131.581,79.5399 133,80.5C 133.287,78.1093 133.787,75.7759 134.5,73.5C 148.484,72.5008 162.484,72.1674 176.5,72.5 Z M 131.5,105.5 C 126.035,105.017 121.201,103.017 117,99.5C 113.284,93.8586 113.784,88.692 118.5,84C 123.802,81.7178 128.302,82.8844 132,87.5C 133.127,91.9218 133.961,96.4218 134.5,101C 133.685,102.643 132.685,104.143 131.5,105.5 Z M 135.5,107.5 C 132.999,107.489 132.832,106.822 135,105.5C 135.464,106.094 135.631,106.761 135.5,107.5 Z"/></g>
<g><path style="opacity:0.98" fill="#ddb84b" d="M 176.5,72.5 C 180.514,72.3345 184.514,72.5012 188.5,73C 189.355,75.4356 190.021,77.9356 190.5,80.5C 189.225,83.6038 189.225,86.6038 190.5,89.5C 190.335,95.9871 189.335,102.32 187.5,108.5C 184.779,111.894 182.446,115.561 180.5,119.5C 176.241,123.764 171.241,126.764 165.5,128.5C 165.431,133.613 166.097,138.613 167.5,143.5C 168.725,149.626 171.725,154.626 176.5,158.5C 173.805,158.067 171.638,156.734 170,154.5C 164.908,146.165 163.241,137.165 165,127.5C 169.833,123.18 173.167,117.847 175,111.5C 176.299,98.5349 176.799,85.5349 176.5,72.5 Z"/></g>
<g><path style="opacity:0.907" fill="#f2c951" d="M 180.5,119.5 C 182.446,115.561 184.779,111.894 187.5,108.5C 192.684,106.048 198.017,103.881 203.5,102C 204.167,101.333 204.833,100.667 205.5,100C 204.306,97.3422 205.306,96.1756 208.5,96.5C 210.596,87.1626 206.929,82.6626 197.5,83C 194.669,84.6657 192.336,86.8324 190.5,89.5C 189.225,86.6038 189.225,83.6038 190.5,80.5C 196.718,76.7463 203.051,76.5796 209.5,80C 216.526,89.1551 215.859,97.8218 207.5,106C 201.898,108.484 196.232,110.817 190.5,113C 187.641,115.552 185.974,118.719 185.5,122.5C 183.833,122.5 182.167,122.5 180.5,122.5C 180.5,121.5 180.5,120.5 180.5,119.5 Z"/></g>
<g><path style="opacity:1" fill="#fefdf9" d="M 161.5,82.5 C 162.933,84.5191 164.267,86.6857 165.5,89C 168.044,90.092 170.711,90.7586 173.5,91C 169.105,94.3566 167.272,98.8566 168,104.5C 166.139,103.236 164.139,102.236 162,101.5C 159.773,102.363 157.607,103.363 155.5,104.5C 154.969,101.901 154.802,99.2348 155,96.5C 153.167,94.6667 151.333,92.8333 149.5,91C 155.879,91.3256 159.879,88.4923 161.5,82.5 Z"/></g>
<g><path style="opacity:0.955" fill="#3a3939" d="M 231.5,95.5 C 236.256,97.6046 241.256,98.6046 246.5,98.5C 248.02,104.228 251.02,108.894 255.5,112.5C 254.637,114.421 253.971,116.421 253.5,118.5C 247.259,119.952 241.925,122.952 237.5,127.5C 235.214,127.595 233.214,128.262 231.5,129.5C 227.639,126.791 225.973,122.957 226.5,118C 227.654,110.375 229.32,102.875 231.5,95.5 Z"/></g>
<g><path style="opacity:0.962" fill="#393939" d="M 91.5,98.5 C 92.2216,98.9175 92.7216,99.5842 93,100.5C 94.237,107.814 94.9036,115.147 95,122.5C 90.0071,125.206 84.8404,126.539 79.5,126.5C 79.5,125.5 79.5,124.5 79.5,123.5C 79.5299,122.503 79.0299,121.836 78,121.5C 73.3333,120.167 68.6667,118.833 64,117.5C 62.9701,117.164 62.4701,116.497 62.5,115.5C 62.5,114.833 62.5,114.167 62.5,113.5C 63.5774,112.982 64.7441,112.648 66,112.5C 69.4661,113.409 72.9661,114.076 76.5,114.5C 77.4242,109.393 78.7576,104.393 80.5,99.5C 84.2693,99.756 87.9359,99.4227 91.5,98.5 Z M 85.5,108.5 C 87.5281,111.772 88.1948,115.272 87.5,119C 85.4658,120.205 83.4658,120.372 81.5,119.5C 83.2342,115.963 84.5675,112.296 85.5,108.5 Z"/></g>
<g><path style="opacity:0.795" fill="#b3cfc4" d="M 262.5,112.5 C 263.568,111.566 264.901,111.232 266.5,111.5C 266.851,114.238 267.518,116.904 268.5,119.5C 265.712,120.752 264.046,119.752 263.5,116.5C 264.954,114.737 264.62,113.403 262.5,112.5 Z"/></g>
<g><path style="opacity:0.848" fill="#e68864" d="M 255.5,112.5 C 257.833,112.5 260.167,112.5 262.5,112.5C 264.62,113.403 264.954,114.737 263.5,116.5C 260.167,117.167 256.833,117.833 253.5,118.5C 253.971,116.421 254.637,114.421 255.5,112.5 Z"/></g>
<g><path style="opacity:0.584" fill="#ceb29b" d="M 62.5,113.5 C 62.5,114.167 62.5,114.833 62.5,115.5C 60.9826,115.511 59.8159,116.177 59,117.5C 58.9856,115.529 59.3189,113.529 60,111.5C 60.4839,113.178 61.3172,113.844 62.5,113.5 Z"/></g>
<g><path style="opacity:1" fill="#b2d0c5" d="M 57.5,118.5 C 58.8333,119.167 58.8333,119.167 57.5,118.5 Z"/></g>
<g><path style="opacity:0.889" fill="#b2d0c5" d="M 77.5,123.5 C 77.2627,124.791 77.596,125.791 78.5,126.5C 78.6602,128.199 78.4935,129.866 78,131.5C 77.3581,129.238 76.5248,127.071 75.5,125C 76.0442,124.283 76.7109,123.783 77.5,123.5 Z"/></g>
<g><path style="opacity:1" fill="#cc8b6e" d="M 77.5,123.5 C 78.1667,123.5 78.8333,123.5 79.5,123.5C 79.5,124.5 79.5,125.5 79.5,126.5C 79.1667,126.5 78.8333,126.5 78.5,126.5C 77.596,125.791 77.2627,124.791 77.5,123.5 Z"/></g>
<g><path style="opacity:0.855" fill="#e68862" d="M 237.5,127.5 C 237.7,130.63 238.366,133.63 239.5,136.5C 239.5,137.167 239.5,137.833 239.5,138.5C 237.833,139.833 236.167,139.833 234.5,138.5C 234.072,135.215 233.072,132.215 231.5,129.5C 233.214,128.262 235.214,127.595 237.5,127.5 Z"/></g>
<g><path style="opacity:0.961" fill="#dbe6f2" d="M 248.5,152.5 C 246.369,153.314 244.036,153.814 241.5,154C 239.288,156.921 237.455,160.088 236,163.5C 233.696,165.068 231.196,166.235 228.5,167C 226.536,168.451 225.203,170.284 224.5,172.5C 223.662,172.842 223.328,173.508 223.5,174.5C 222.5,174.5 221.5,174.5 220.5,174.5C 220.338,172.473 220.505,170.473 221,168.5C 223.333,166.167 225.667,163.833 228,161.5C 228.494,159.866 228.66,158.199 228.5,156.5C 228.487,150.851 231.154,147.184 236.5,145.5C 237.386,144.675 237.719,143.675 237.5,142.5C 239.104,141.713 239.771,140.38 239.5,138.5C 239.5,137.833 239.5,137.167 239.5,136.5C 243.29,132.567 247.124,132.567 251,136.5C 251.667,138.5 251.667,140.5 251,142.5C 248.021,145.412 247.188,148.745 248.5,152.5 Z"/></g>
<g><path style="opacity:0.985" fill="#dbe6f2" d="M 99.5,156.5 C 98.5876,157.738 98.4209,159.072 99,160.5C 102.038,163.203 104.705,166.203 107,169.5C 107.64,171.265 107.473,172.932 106.5,174.5C 105.5,174.5 104.5,174.5 103.5,174.5C 102.653,168.881 99.3196,165.714 93.5,165C 90.6547,161.639 88.3213,157.972 86.5,154C 83.9644,153.814 81.631,153.314 79.5,152.5C 79.9038,151.244 80.5705,150.077 81.5,149C 79.4828,146.131 78.1495,142.964 77.5,139.5C 77.4295,136.404 78.9295,134.738 82,134.5C 84.151,134.643 85.8176,135.643 87,137.5C 87.8344,140.172 88.6677,142.839 89.5,145.5C 92.1667,147.167 94.8333,148.833 97.5,150.5C 98.4767,152.411 99.1433,154.411 99.5,156.5 Z"/></g>
<g><path style="opacity:0.981" fill="#f2f4fc" d="M 156.5,140.5 C 155.845,146.976 153.178,152.476 148.5,157C 145.885,157.612 144.219,159.112 143.5,161.5C 143.5,164.167 143.5,166.833 143.5,169.5C 141.5,170.167 140.167,171.5 139.5,173.5C 139.5,173.833 139.5,174.167 139.5,174.5C 128.5,174.5 117.5,174.5 106.5,174.5C 107.473,172.932 107.64,171.265 107,169.5C 104.705,166.203 102.038,163.203 99,160.5C 98.4209,159.072 98.5876,157.738 99.5,156.5C 116.157,143.062 135.157,137.729 156.5,140.5 Z"/></g>
<g><path style="opacity:0.797" fill="#b1cfc6" d="M 234.5,138.5 C 236.167,139.833 237.833,139.833 239.5,138.5C 239.771,140.38 239.104,141.713 237.5,142.5C 231.299,144.278 230.299,142.945 234.5,138.5 Z"/></g>
<g><path style="opacity:0.971" fill="#f2f4fc" d="M 167.5,143.5 C 178.278,148.221 189.278,152.388 200.5,156C 209.792,157.445 219.126,157.612 228.5,156.5C 228.66,158.199 228.494,159.866 228,161.5C 225.667,163.833 223.333,166.167 221,168.5C 220.505,170.473 220.338,172.473 220.5,174.5C 208.5,174.5 196.5,174.5 184.5,174.5C 184.672,173.508 184.338,172.842 183.5,172.5C 182.952,170.468 181.619,169.468 179.5,169.5C 179.5,166.833 179.5,164.167 179.5,161.5C 179.5,159.5 178.5,158.5 176.5,158.5C 171.725,154.626 168.725,149.626 167.5,143.5 Z"/></g>
<g><path style="opacity:0.987" fill="#126b4a" d="M 79.5,152.5 C 81.631,153.314 83.9644,153.814 86.5,154C 88.3213,157.972 90.6547,161.639 93.5,165C 99.3196,165.714 102.653,168.881 103.5,174.5C 97.1667,174.5 90.8333,174.5 84.5,174.5C 81.6797,171.919 78.3464,170.086 74.5,169C 73.2766,166.948 72.2766,164.781 71.5,162.5C 68.2094,161.618 64.876,160.952 61.5,160.5C 56.8751,154.695 57.8751,150.028 64.5,146.5C 68.4907,149.392 72.824,151.726 77.5,153.5C 78.1835,153.137 78.8501,152.804 79.5,152.5 Z"/></g>
<g><path style="opacity:0.98" fill="#0d6948" d="M 266.5,160.5 C 263.059,160.301 259.726,160.801 256.5,162C 255.383,165.028 253.716,167.695 251.5,170C 248.639,170.872 245.972,172.038 243.5,173.5C 236.978,173.823 230.645,173.49 224.5,172.5C 225.203,170.284 226.536,168.451 228.5,167C 231.196,166.235 233.696,165.068 236,163.5C 237.455,160.088 239.288,156.921 241.5,154C 244.036,153.814 246.369,153.314 248.5,152.5C 249.15,152.804 249.817,153.137 250.5,153.5C 254.228,150.441 258.228,147.774 262.5,145.5C 269.904,148.777 271.237,153.777 266.5,160.5 Z"/></g>
<g><path style="opacity:0.932" fill="#f0f3fb" d="M 61.5,160.5 C 64.876,160.952 68.2094,161.618 71.5,162.5C 72.2766,164.781 73.2766,166.948 74.5,169C 78.3464,170.086 81.6797,171.919 84.5,174.5C 72.1667,174.5 59.8333,174.5 47.5,174.5C 49.1667,166.833 53.8333,162.167 61.5,160.5 Z"/></g>
<g><path style="opacity:0.934" fill="#f0f3fa" d="M 266.5,160.5 C 270.717,162.877 274.551,165.877 278,169.5C 279.009,171.025 279.509,172.692 279.5,174.5C 267.5,174.5 255.5,174.5 243.5,174.5C 243.5,174.167 243.5,173.833 243.5,173.5C 245.972,172.038 248.639,170.872 251.5,170C 253.716,167.695 255.383,165.028 256.5,162C 259.726,160.801 263.059,160.301 266.5,160.5 Z"/></g>
<g><path style="opacity:1" fill="#0f1011" d="M 143.5,161.5 C 155.5,161.5 167.5,161.5 179.5,161.5C 179.5,164.167 179.5,166.833 179.5,169.5C 167.5,169.5 155.5,169.5 143.5,169.5C 143.5,166.833 143.5,164.167 143.5,161.5 Z"/></g>
<g><path style="opacity:1" fill="#323335" d="M 143.5,169.5 C 155.5,169.5 167.5,169.5 179.5,169.5C 181.619,169.468 182.952,170.468 183.5,172.5C 169.01,173.496 154.343,173.829 139.5,173.5C 140.167,171.5 141.5,170.167 143.5,169.5 Z"/></g>
<g><path style="opacity:0.839" fill="#525457" d="M 183.5,172.5 C 184.338,172.842 184.672,173.508 184.5,174.5C 169.5,174.5 154.5,174.5 139.5,174.5C 139.5,174.167 139.5,173.833 139.5,173.5C 154.343,173.829 169.01,173.496 183.5,172.5 Z"/></g>
<g><path style="opacity:0.839" fill="#569584" d="M 224.5,172.5 C 230.645,173.49 236.978,173.823 243.5,173.5C 243.5,173.833 243.5,174.167 243.5,174.5C 236.833,174.5 230.167,174.5 223.5,174.5C 223.328,173.508 223.662,172.842 224.5,172.5 Z"/></g>
</svg>
