<svg width="328" height="217" viewBox="0 0 328 217" fill="none" xmlns="http://www.w3.org/2000/svg">
<g clip-path="url(#clip0_273_9917)">
<path d="M251.084 88.4849L248.875 94.1359L250.441 94.7479L252.65 89.097L251.084 88.4849Z" fill="#0A6847"/>
<path d="M113.079 74.6281L111.826 75.7498L115.875 80.2694L117.128 79.1477L113.079 74.6281Z" fill="#F3CA52"/>
<path d="M131.641 94.857L126.784 98.4944L127.792 99.8403L132.649 96.2029L131.641 94.857Z" fill="#0A6847"/>
<path d="M187.818 53.1166L186.665 54.3411L191.085 58.4991L192.237 57.2746L187.818 53.1166Z" fill="#0A6847"/>
<path d="M155.682 54.4687L152.657 59.7289L154.115 60.5668L157.139 55.3066L155.682 54.4687Z" fill="#F3CA52"/>
<path d="M199.603 99.4519L198.18 100.349L201.419 105.48L202.841 104.583L199.603 99.4519Z" fill="#F3CA52"/>
<path d="M133.657 124.438L132.153 125.189L134.865 130.617L136.369 129.865L133.657 124.438Z" fill="#F3CA52"/>
<path d="M111.648 110.156L109.905 115.968L111.516 116.451L113.258 110.639L111.648 110.156Z" fill="#0A6847"/>
<path d="M216.92 128.267L211.88 131.646L212.817 133.042L217.857 129.663L216.92 128.267Z" fill="#0A6847"/>
<path d="M217.675 43.5005L214.651 48.7606L216.109 49.5985L219.133 44.3384L217.675 43.5005Z" fill="#F3CA52"/>
<path d="M49.5662 86.5335L47.9999 87.1456L50.2091 92.7966L51.7754 92.1845L49.5662 86.5335Z" fill="#F3CA52"/>
<path d="M212.157 79.5524L211.148 80.8983L216.005 84.5357L217.014 83.1898L212.157 79.5524Z" fill="#F3CA52"/>
<path d="M75.7224 54.762L71.3027 58.92L72.4552 60.1444L76.8748 55.9864L75.7224 54.762Z" fill="#0A6847"/>
<path d="M124.675 49.8105L123.217 50.6484L126.242 55.9086L127.7 55.0707L124.675 49.8105Z" fill="#0A6847"/>
<path d="M65.2093 115.855L61.9707 120.986L63.3929 121.883L66.6315 116.752L65.2093 115.855Z" fill="#F3CA52"/>
<path d="M50.8644 129.91L49.9277 131.308L54.9707 134.687L55.9074 133.29L50.8644 129.91Z" fill="#0A6847"/>
<path d="M245.425 62.9054L243.967 63.7433L246.992 69.0034L248.45 68.1655L245.425 62.9054Z" fill="#0A6847"/>
<path d="M182.242 77.2404L178.193 81.76L179.446 82.8817L183.494 78.3621L182.242 77.2404Z" fill="#0A6847"/>
<path d="M146.699 128.184L143.987 133.612L145.491 134.363L148.203 128.935L146.699 128.184Z" fill="#F3CA52"/>
<path d="M168.709 113.903L167.099 114.386L168.841 120.198L170.452 119.715L168.709 113.903Z" fill="#0A6847"/>
<path d="M169.252 117.22L163.52 112.864C163.394 112.768 163.249 112.7 163.096 112.663C162.942 112.626 162.782 112.622 162.626 112.65C162.471 112.678 162.323 112.739 162.192 112.828C162.061 112.916 161.95 113.031 161.865 113.165C161.718 113.417 161.669 113.715 161.729 114.001C161.788 114.287 161.952 114.541 162.188 114.713L163.417 115.647L158.204 114.483C157.627 114.344 156.829 114.542 156.715 115.2C156.655 115.45 156.681 115.714 156.79 115.947C156.898 116.18 157.083 116.37 157.313 116.485C157.31 116.49 157.308 116.496 157.307 116.501C157.306 116.506 157.306 116.51 157.307 116.514L156.416 116.299C156.251 116.26 156.08 116.257 155.914 116.292C155.748 116.327 155.592 116.399 155.457 116.502C155.322 116.605 155.212 116.737 155.134 116.887C155.057 117.038 155.014 117.205 155.009 117.374C155.007 117.641 155.096 117.901 155.262 118.111C155.429 118.32 155.662 118.465 155.922 118.523L156.301 118.615C156.303 118.627 156.308 118.639 156.314 118.649C156.044 118.647 155.781 118.741 155.574 118.914C155.367 119.087 155.227 119.329 155.182 119.595C155.14 119.888 155.21 120.186 155.379 120.429C155.547 120.673 155.801 120.843 156.09 120.908L157.031 121.135C157.016 121.141 157.002 121.151 156.991 121.164C156.98 121.176 156.972 121.191 156.968 121.208C156.964 121.227 156.966 121.247 156.974 121.266C156.732 121.33 156.519 121.473 156.366 121.67C156.213 121.868 156.13 122.111 156.129 122.36C156.132 122.623 156.225 122.876 156.391 123.08C156.557 123.283 156.786 123.425 157.043 123.481L164.983 125.399C166.094 125.667 167.26 125.598 168.331 125.199C169.402 124.801 170.33 124.092 170.995 123.163C171.569 122.362 171.808 121.369 171.661 120.395C171.514 119.421 170.993 118.542 170.208 117.946L169.252 117.22Z" fill="#E98862"/>
<g opacity="0.2">
<path d="M162.468 117.663C162.461 117.689 162.444 117.712 162.421 117.727C162.397 117.741 162.369 117.746 162.343 117.74L157.386 116.626C157.372 116.623 157.36 116.617 157.348 116.609C157.337 116.601 157.327 116.591 157.32 116.58C157.313 116.568 157.308 116.555 157.305 116.541C157.303 116.528 157.303 116.514 157.306 116.5C157.309 116.487 157.315 116.474 157.323 116.463C157.331 116.451 157.341 116.442 157.353 116.434C157.364 116.427 157.377 116.422 157.391 116.42C157.405 116.417 157.419 116.418 157.432 116.421L162.389 117.535C162.402 117.538 162.415 117.543 162.426 117.551C162.438 117.559 162.447 117.569 162.455 117.581C162.462 117.593 162.467 117.606 162.469 117.62C162.472 117.633 162.471 117.647 162.468 117.661L162.468 117.663Z" fill="#0C0C0C"/>
</g>
<g opacity="0.2">
<path d="M162.037 119.862C162.03 119.889 162.013 119.912 161.99 119.926C161.966 119.941 161.938 119.945 161.911 119.939L156.379 118.697C156.366 118.694 156.353 118.688 156.342 118.68C156.33 118.672 156.321 118.662 156.313 118.65C156.306 118.639 156.301 118.626 156.298 118.612C156.296 118.598 156.297 118.584 156.3 118.571C156.307 118.544 156.324 118.521 156.347 118.506C156.37 118.491 156.399 118.486 156.426 118.491L161.957 119.733C161.971 119.736 161.984 119.742 161.995 119.75C162.006 119.758 162.016 119.768 162.023 119.78C162.031 119.792 162.036 119.805 162.038 119.818C162.04 119.832 162.04 119.846 162.037 119.859V119.862Z" fill="#0C0C0C"/>
</g>
<g opacity="0.2">
<path d="M161.584 122.246C161.578 122.273 161.561 122.296 161.537 122.31C161.514 122.325 161.486 122.329 161.459 122.323L157.047 121.333C157.02 121.327 156.996 121.31 156.981 121.286C156.966 121.263 156.961 121.234 156.967 121.207C156.973 121.18 156.99 121.156 157.013 121.141C157.037 121.126 157.066 121.122 157.093 121.128L161.505 122.118C161.519 122.121 161.532 122.127 161.543 122.135C161.554 122.143 161.564 122.153 161.571 122.165C161.579 122.177 161.584 122.19 161.586 122.203C161.588 122.217 161.588 122.231 161.585 122.244L161.584 122.246Z" fill="#0C0C0C"/>
</g>
<path d="M142.039 87.2578L145.24 80.8097C145.31 80.668 145.409 80.5425 145.53 80.4412C145.652 80.3399 145.793 80.265 145.945 80.2213C146.097 80.1775 146.257 80.1659 146.414 80.1872C146.57 80.2085 146.721 80.2622 146.856 80.3448C147.1 80.5051 147.276 80.7503 147.35 81.0331C147.424 81.3158 147.39 81.6158 147.255 81.875L146.569 83.2577L150.722 79.9007C151.178 79.5193 151.98 79.3425 152.375 79.8814C152.54 80.0789 152.633 80.3265 152.64 80.5839C152.646 80.8412 152.565 81.0932 152.41 81.2986C152.414 81.302 152.419 81.3058 152.423 81.3101C152.425 81.3138 152.427 81.3177 152.429 81.3217L153.131 80.7332C153.261 80.6244 153.414 80.5459 153.578 80.5036C153.742 80.4612 153.914 80.4561 154.081 80.4884C154.247 80.5208 154.404 80.59 154.541 80.6908C154.677 80.7917 154.789 80.9217 154.869 81.0714C154.99 81.3096 155.025 81.5822 154.969 81.8434C154.914 82.1046 154.77 82.3387 154.562 82.5066L154.263 82.7569C154.266 82.7688 154.267 82.7813 154.266 82.7937C154.507 82.6714 154.784 82.6389 155.047 82.702C155.309 82.765 155.541 82.9194 155.701 83.1377C155.868 83.3817 155.937 83.6799 155.894 83.9727C155.852 84.2654 155.7 84.5313 155.47 84.7171L154.727 85.3386C154.744 85.3371 154.761 85.3397 154.776 85.346C154.792 85.3524 154.806 85.3624 154.816 85.3751C154.828 85.391 154.836 85.4101 154.837 85.43C155.082 85.3807 155.337 85.4132 155.561 85.5226C155.786 85.632 155.969 85.8122 156.081 86.0355C156.194 86.2723 156.224 86.5404 156.166 86.7963C156.107 87.0522 155.964 87.2809 155.76 87.4455L149.498 92.6899C148.622 93.4237 147.546 93.8791 146.41 93.9978C145.273 94.1166 144.127 93.8932 143.118 93.3564C142.248 92.8936 141.594 92.11 141.292 91.1721C140.991 90.2342 141.068 89.2159 141.505 88.3334L142.039 87.2578Z" fill="#E98862"/>
<g opacity="0.2">
<path d="M148.314 84.6417C148.332 84.6628 148.358 84.6762 148.385 84.6787C148.413 84.6813 148.44 84.6729 148.461 84.6553L152.408 81.457C152.43 81.4395 152.443 81.414 152.446 81.3863C152.449 81.3586 152.441 81.3308 152.423 81.3092C152.406 81.2875 152.38 81.2737 152.353 81.2708C152.325 81.2679 152.297 81.2762 152.276 81.2937L148.329 84.492C148.308 84.5095 148.294 84.5348 148.291 84.5624C148.288 84.5899 148.296 84.6175 148.313 84.6391L148.314 84.6417Z" fill="#0C0C0C"/>
</g>
<g opacity="0.2">
<path d="M149.677 86.4209C149.695 86.4421 149.72 86.4553 149.748 86.4579C149.775 86.4604 149.803 86.4519 149.824 86.4344L154.229 82.8651C154.25 82.8476 154.264 82.8223 154.267 82.7947C154.269 82.7672 154.261 82.7396 154.244 82.718C154.226 82.6973 154.201 82.6842 154.173 82.6813C154.146 82.6784 154.119 82.686 154.097 82.7025L149.691 86.2711C149.67 86.2886 149.656 86.3139 149.653 86.3414C149.65 86.369 149.658 86.3966 149.675 86.4182L149.677 86.4209Z" fill="#0C0C0C"/>
</g>
<g opacity="0.2">
<path d="M151.142 88.3561C151.16 88.3773 151.185 88.3906 151.213 88.3931C151.24 88.3957 151.268 88.3873 151.289 88.3698L154.802 85.5226C154.824 85.5051 154.838 85.4796 154.841 85.4519C154.844 85.4242 154.835 85.3964 154.818 85.3748C154.8 85.3531 154.775 85.3393 154.747 85.3364C154.719 85.3335 154.692 85.3418 154.67 85.3593L151.156 88.2065C151.134 88.224 151.121 88.2493 151.118 88.2768C151.115 88.3044 151.123 88.332 151.14 88.3536L151.142 88.3561Z" fill="#0C0C0C"/>
</g>
<path d="M70.2193 81.7292C70.2193 81.7292 69.7679 88.4997 68.2446 90.9555C63.8583 98.0271 62.5876 105.982 66.9799 110.139C71.3723 114.295 99.388 114.353 101.51 104.793C103.297 96.7449 99.4628 95.8795 98.5297 89.241C98.1076 86.2369 96.9462 79.9376 96.9462 79.9376" fill="#0A0A0A"/>
<path d="M94.2596 103.392C94.2113 103.385 93.6746 112.288 83.33 111.512C76.1686 110.975 73.6151 103.379 73.4512 103.379C74.2233 103.214 75.5234 102.976 75.8663 102.793C76.994 102.187 78.3888 101.557 78.7529 99.3672C78.9631 98.1062 78.6068 91.6495 78.7163 90.3721L89.709 92.826C89.5553 95.5226 88.4803 101.774 92.2483 102.88C92.8752 103.064 93.5506 103.232 94.2596 103.392Z" fill="#E98862"/>
<path opacity="0.5" d="M89.8632 100.326C89.691 99.7709 89.5801 99.1989 89.5325 98.62C89.4117 97.2989 89.4358 95.9686 89.6044 94.6527C87.3703 94.3512 85.2655 93.4292 83.5294 91.9914C83.3252 92.745 82.2025 96.0383 82.5134 96.7546C83.1005 98.1087 85.8612 100.326 89.8632 100.326Z" fill="#0C0C0C"/>
<path d="M88.4417 97.5522C84.1076 97.9725 78.5001 96.2382 77.3385 90.4677L76.2903 85.2611C75.1287 79.4907 77.2184 74.203 82.6526 73.1095C88.0869 72.0166 93.0903 75.8763 94.2519 81.6468L94.7161 83.9519C95.1617 86.166 96.1743 96.804 88.4417 97.5522Z" fill="#E98862"/>
<path opacity="0.1" d="M85.6867 89.9905C86.4 89.9054 86.9276 89.4124 86.8651 88.8894C86.8027 88.3664 86.1739 88.0114 85.4607 88.0964C84.7475 88.1815 84.2199 88.6745 84.2823 89.1975C84.3447 89.7205 84.9735 90.0755 85.6867 89.9905Z" fill="#0C0C0C"/>
<path opacity="0.1" d="M93.2232 87.8994C93.2862 88.4217 93.9158 88.7762 94.6291 88.6922C94.7523 88.6774 94.8737 88.6498 94.9913 88.61C95.0245 87.9873 95.0264 87.3883 95.0083 86.8337C94.8102 86.7841 94.6046 86.7721 94.402 86.7981C93.6888 86.8822 93.1614 87.375 93.2232 87.8994Z" fill="#0C0C0C"/>
<path opacity="0.5" d="M90.0717 89.5138C90.0752 89.5134 90.0787 89.5128 90.0822 89.5121C90.3025 89.4662 90.52 89.4082 90.7339 89.3383C91.0529 89.2315 91.4696 89.0562 91.4124 88.7677C91.3464 88.439 89.7307 85.0727 89.5474 84.6905C89.5399 84.6732 89.529 84.6576 89.5153 84.6447C89.5017 84.6317 89.4855 84.6217 89.4679 84.6151C89.4503 84.6086 89.4315 84.6056 89.4127 84.6065C89.3939 84.6073 89.3754 84.612 89.3585 84.6201C89.3415 84.6283 89.3263 84.6397 89.3139 84.6539C89.3015 84.668 89.292 84.6845 89.2861 84.7024C89.2802 84.7202 89.278 84.7391 89.2795 84.7579C89.2811 84.7766 89.2864 84.7949 89.2952 84.8115C89.984 86.245 91.0935 88.6021 91.1381 88.8234C91.1032 88.9265 90.5739 89.1281 90.0275 89.2382C90.0094 89.2411 89.9921 89.2476 89.9764 89.2573C89.9608 89.2669 89.9472 89.2795 89.9365 89.2944C89.9257 89.3093 89.918 89.3261 89.9138 89.344C89.9096 89.3618 89.9089 89.3804 89.9118 89.3985C89.9148 89.4166 89.9212 89.434 89.9309 89.4496C89.9405 89.4652 89.9531 89.4788 89.968 89.4895C89.9829 89.5003 89.9997 89.508 90.0176 89.5122C90.0355 89.5164 90.054 89.5171 90.0721 89.5142L90.0717 89.5138Z" fill="#0C0C0C"/>
<path d="M71.9543 87.1304L76.8261 86.179C80.5063 84.6404 81.5504 78.228 81.5504 78.228C81.5504 78.228 86.0922 82.5526 96.947 79.9375C96.947 79.9375 94.5891 64.7875 78.561 69.3872C73.393 70.8699 69.7322 76.1367 70.2766 83.1125C70.6582 87.9997 71.9543 87.1304 71.9543 87.1304Z" fill="#0A0A0A"/>
<path d="M78.0298 92.1578C76.3784 92.4901 74.6841 90.9931 74.3511 89.3416C74.0182 87.6901 75.1743 86.5106 76.8257 86.1782L77.8995 87.1134L79.4493 91.8718L78.0298 92.1578Z" fill="#E98862"/>
<path d="M90.718 82.006C91.1312 81.7139 91.6144 81.5363 92.1184 81.4915C92.3717 81.4672 92.6272 81.4814 92.8762 81.5335C93.1274 81.5847 93.3711 81.6672 93.6017 81.779L93.6088 81.7824C93.6344 81.7936 93.6633 81.7945 93.6895 81.7847C93.7157 81.7749 93.737 81.7553 93.7488 81.73C93.7607 81.7047 93.7623 81.6758 93.7531 81.6494C93.7439 81.623 93.7248 81.6013 93.6998 81.5888C93.4555 81.4598 93.1959 81.3621 92.9271 81.2979C92.6565 81.2321 92.3775 81.2074 92.0995 81.2246C91.5365 81.2557 90.992 81.4371 90.5229 81.75C90.5054 81.7618 90.4905 81.777 90.4789 81.7947C90.4672 81.8123 90.4592 81.8321 90.4552 81.8528C90.4513 81.8735 90.4514 81.8949 90.4557 81.9155C90.46 81.9362 90.4684 81.9559 90.4802 81.9733C90.4921 81.9908 90.5074 82.0057 90.525 82.0173C90.5427 82.0288 90.5625 82.0368 90.5832 82.0407C90.604 82.0446 90.6253 82.0444 90.646 82.0401C90.6667 82.0357 90.6863 82.0274 90.7037 82.0154L90.7075 82.0129L90.718 82.006Z" fill="#0C0C0C"/>
<path d="M86.2677 82.6209C85.7144 82.5109 85.1418 82.5513 84.6095 82.738C84.3464 82.8286 84.0984 82.9582 83.8738 83.1224C83.6501 83.2845 83.4476 83.4742 83.2713 83.6869C83.2535 83.708 83.2446 83.7353 83.2465 83.7629C83.2483 83.7904 83.2607 83.8162 83.2812 83.8349C83.3016 83.8535 83.3285 83.8635 83.3561 83.8627C83.3837 83.862 83.41 83.8505 83.4294 83.8309L83.4351 83.825C83.6052 83.6334 83.7987 83.4639 84.0111 83.3206C84.2212 83.1773 84.4518 83.0665 84.6951 82.9921C85.1779 82.8404 85.6923 82.8194 86.1859 82.9311L86.1981 82.9343C86.2395 82.9443 86.2832 82.9375 86.3196 82.9153C86.356 82.8931 86.3821 82.8574 86.3921 82.816C86.4022 82.7746 86.3953 82.7309 86.3731 82.6945C86.3509 82.6581 86.3152 82.632 86.2738 82.622L86.2677 82.6209Z" fill="#0C0C0C"/>
<path d="M76.8295 86.0988C80.1044 84.8798 81.1912 82.6188 81.5258 80.9362C81.7424 79.8141 81.7221 78.6591 81.4663 77.5452L81.365 77.5732C81.617 78.6725 81.6365 79.8124 81.4222 80.9196C81.0917 82.5747 80.0205 84.7995 76.7927 86.0006L76.8295 86.0988Z" fill="#0C0C0C"/>
<path d="M102.685 104.451L133.78 114.843L124.651 118.9L140.156 87.0977L152.828 93.002L138.442 125.326C137.714 126.96 136.423 128.278 134.803 129.039C133.184 129.8 131.344 129.954 129.621 129.471L129.312 129.383L97.7457 120.522L102.685 104.451Z" fill="#0A6847"/>
<path d="M83.1371 109.286C75.9706 108.949 75.6689 102.867 75.6689 102.867C75.6689 102.867 72.1181 103.097 69.7576 103.416C65.8931 103.939 63.3437 105.249 61.3148 107.277C59.4275 109.164 58.2785 111.206 59.4944 124.24C60.3747 133.678 59.7552 154.436 59.7552 154.436H103.426C103.426 154.436 106.476 124.446 106.837 120.198C107.527 112.088 109.477 110.297 105.527 106.12C102.663 103.09 95.2689 102.867 92.2927 102.868C92.2442 102.868 92.8967 109.746 83.1371 109.286Z" fill="#0A6847"/>
<path d="M91.5244 90.6512C90.1163 91.367 88.5097 91.5934 86.9585 91.2945C86.9048 91.2844 86.8493 91.2898 86.7986 91.3101C86.7478 91.3304 86.7039 91.3647 86.6719 91.4089C86.6399 91.4532 86.6212 91.5057 86.6179 91.5602C86.6147 91.6148 86.627 91.6691 86.6535 91.7169C87.1159 92.5315 88.2128 93.9236 90.0946 93.3562C91.3096 92.9897 91.7689 91.74 91.9392 90.9668C91.9508 90.9134 91.947 90.8577 91.928 90.8063C91.9091 90.755 91.8759 90.7101 91.8324 90.6769C91.7888 90.6438 91.7367 90.6237 91.6822 90.6192C91.6276 90.6146 91.5729 90.6257 91.5244 90.6512Z" fill="white"/>
<path d="M91.6125 84.3899C91.9883 84.3899 92.2929 84.0853 92.2929 83.7096C92.2929 83.3339 91.9883 83.0293 91.6125 83.0293C91.2367 83.0293 90.932 83.3339 90.932 83.7096C90.932 84.0853 91.2367 84.3899 91.6125 84.3899Z" fill="#0C0C0C"/>
<path d="M85.0741 85.5343C85.4499 85.5343 85.7546 85.2297 85.7546 84.854C85.7546 84.4782 85.4499 84.1736 85.0741 84.1736C84.6983 84.1736 84.3937 84.4782 84.3937 84.854C84.3937 85.2297 84.6983 85.5343 85.0741 85.5343Z" fill="#0C0C0C"/>
<path d="M106.74 123.153C106.736 123.153 106.731 123.153 106.727 123.153C106.699 123.149 106.674 123.135 106.657 123.113C106.64 123.091 106.632 123.063 106.636 123.036L107.312 117.555C107.313 117.541 107.318 117.528 107.324 117.516C107.331 117.504 107.34 117.493 107.351 117.485C107.362 117.476 107.375 117.47 107.388 117.466C107.401 117.463 107.415 117.462 107.429 117.464C107.443 117.466 107.456 117.47 107.468 117.477C107.48 117.484 107.491 117.493 107.499 117.504C107.508 117.514 107.514 117.527 107.517 117.54C107.521 117.554 107.522 117.567 107.52 117.581L106.844 123.062C106.841 123.087 106.828 123.11 106.809 123.127C106.79 123.144 106.766 123.153 106.74 123.153Z" fill="#0C0C0C"/>
<path d="M217.282 80.8629C217.282 80.8629 214.677 77.938 214.979 72.4604C215.213 68.2193 218.485 71.6492 218.485 71.6492C218.485 71.6492 218.683 68.597 220.791 69.3237C222.898 70.0505 223.489 73.4161 223.489 73.4161" fill="#0C0C0C"/>
<path d="M231.922 71.9037C231.922 71.9037 242.444 75.1989 235.653 88.9902L234.689 88.8641L232.732 88.6088" fill="#0C0C0C"/>
<path d="M216.954 103.369C217.003 103.363 217.537 112.236 227.848 111.463C234.985 110.928 237.53 103.357 237.694 103.357C236.924 103.193 235.628 102.955 235.287 102.773C234.163 102.169 232.772 101.541 232.41 99.3589C232.201 98.1011 232.555 91.6669 232.446 90.3941L221.49 92.839C221.643 95.5266 222.714 101.757 218.959 102.86C218.334 103.042 217.66 103.21 216.954 103.369Z" fill="#E98862"/>
<path opacity="0.52" d="M221.336 100.314C221.508 99.7607 221.618 99.1905 221.666 98.6135C221.786 97.2967 221.762 95.9707 221.594 94.6592C223.821 94.3588 225.919 93.4399 227.65 92.0069C227.853 92.758 228.972 96.0404 228.662 96.7543C228.077 98.1038 225.325 100.314 221.336 100.314Z" fill="#0C0C0C"/>
<path d="M222.65 97.3088C226.965 97.7734 232.572 96.1066 233.793 90.3683L234.894 85.1904C236.113 79.4529 234.088 74.1594 228.684 73.0109C223.28 71.8623 218.251 75.6558 217.031 81.3942L216.544 83.6865C216.39 84.4764 216.291 85.2759 216.246 86.0794C216.112 88.2021 215.916 91.4313 216.895 93.8372C217.82 96.1087 219.893 97.0118 222.65 97.3088Z" fill="#E98862"/>
<path d="M219.223 84.0889C219.598 84.0889 219.903 83.7843 219.903 83.4086C219.903 83.0329 219.598 82.7283 219.223 82.7283C218.847 82.7283 218.542 83.0329 218.542 83.4086C218.542 83.7843 218.847 84.0889 219.223 84.0889Z" fill="#0C0C0C"/>
<path d="M225.685 84.7692C226.061 84.7692 226.366 84.4647 226.366 84.0889C226.366 83.7132 226.061 83.4086 225.685 83.4086C225.31 83.4086 225.005 83.7132 225.005 84.0889C225.005 84.4647 225.31 84.7692 225.685 84.7692Z" fill="#0C0C0C"/>
<path d="M233.085 92.0451C234.727 92.3942 236.432 90.9205 236.781 89.2785C237.131 87.6365 235.992 86.4482 234.349 86.0991L233.269 87.0194L231.673 91.745L233.085 92.0451Z" fill="#E98862"/>
<path d="M231.976 89.0736C231.976 89.0736 233.043 80.8223 230.674 79.8276C229.097 79.1652 224.644 80.7023 221.091 79.262C219.537 78.6315 217.923 78.7261 217.615 79.4581C217.492 79.7479 217.352 75.2054 220.539 72.4144C223.077 70.1921 229.817 70.7653 232.645 72.2234C240.475 76.2605 234.619 86.5254 234.619 86.5254L233.689 89.2575L231.976 89.0736Z" fill="#0C0C0C"/>
<g opacity="0.52">
<path d="M220.993 89.6639L220.982 89.6623C220.453 89.5511 219.577 89.305 219.659 88.9097C219.729 88.5816 221.37 85.2278 221.558 84.8465C221.574 84.8137 221.602 84.7886 221.637 84.7768C221.671 84.765 221.709 84.7674 221.742 84.7835C221.775 84.7996 221.8 84.828 221.812 84.8626C221.823 84.8971 221.821 84.935 221.805 84.9678C221.077 86.4528 219.976 88.7432 219.929 88.9662C219.962 89.0713 220.49 89.2774 221.038 89.3924C221.073 89.4001 221.103 89.4207 221.123 89.45C221.142 89.4793 221.15 89.515 221.144 89.5498C221.138 89.5846 221.119 89.6158 221.091 89.637C221.063 89.6583 221.028 89.6679 220.993 89.6639Z" fill="#0C0C0C"/>
</g>
<path d="M220.871 81.2804C220.35 81.0179 219.769 80.9005 219.188 80.9406C218.902 80.9586 218.62 81.0193 218.353 81.1207C218.088 81.2198 217.837 81.352 217.605 81.5141C217.566 81.5388 217.539 81.5777 217.529 81.6224C217.518 81.6672 217.526 81.7142 217.55 81.7533C217.574 81.7924 217.613 81.8205 217.657 81.8314C217.702 81.8424 217.749 81.8354 217.788 81.8119L217.801 81.805C218.013 81.6733 218.241 81.5688 218.48 81.494C218.715 81.4188 218.96 81.3798 219.207 81.3781C219.695 81.371 220.176 81.4929 220.601 81.7314L220.617 81.7409C220.647 81.7586 220.68 81.7703 220.714 81.7753C220.749 81.7802 220.784 81.7783 220.817 81.7697C220.851 81.761 220.883 81.7459 220.91 81.725C220.938 81.7041 220.961 81.678 220.979 81.6481C220.996 81.6182 221.008 81.5851 221.012 81.5507C221.017 81.5164 221.015 81.4814 221.006 81.4479C220.997 81.4144 220.982 81.3829 220.961 81.3554C220.94 81.3278 220.914 81.3047 220.883 81.2874L220.871 81.2804Z" fill="#0C0C0C"/>
<path d="M224.761 82.3319C225.234 82.2107 225.73 82.2164 226.2 82.3485C226.438 82.4136 226.665 82.5143 226.873 82.6472C227.084 82.7808 227.278 82.9405 227.449 83.1224L227.459 83.1318C227.491 83.1632 227.534 83.1809 227.579 83.1812C227.625 83.1815 227.668 83.1643 227.701 83.1333C227.734 83.1023 227.753 83.0598 227.755 83.0147C227.758 82.9696 227.742 82.9255 227.713 82.8914C227.531 82.6752 227.322 82.483 227.091 82.3191C226.859 82.1524 226.602 82.0215 226.331 81.9307C225.779 81.7424 225.187 81.7061 224.617 81.8256C224.583 81.833 224.551 81.8469 224.523 81.8666C224.495 81.8863 224.47 81.9114 224.452 81.9405C224.414 81.9992 224.401 82.0704 224.416 82.1386C224.431 82.2067 224.472 82.2662 224.531 82.3038C224.59 82.3415 224.661 82.3543 224.729 82.3395L224.743 82.3361L224.761 82.3319Z" fill="#0C0C0C"/>
<path d="M220.16 90.9369C221.693 91.3198 223.309 91.181 224.754 90.5426C224.804 90.5208 224.86 90.5137 224.914 90.5221C224.968 90.5305 225.018 90.5541 225.059 90.5901C225.1 90.6261 225.13 90.673 225.146 90.7254C225.161 90.7778 225.161 90.8336 225.146 90.8861C224.877 91.7837 224.12 93.387 222.159 93.2542C220.893 93.1689 220.166 92.0535 219.826 91.3381C219.802 91.2885 219.794 91.2332 219.8 91.1788C219.807 91.1243 219.83 91.073 219.865 91.0308C219.9 90.9886 219.946 90.9573 219.999 90.9407C220.051 90.9241 220.107 90.9228 220.16 90.9369Z" fill="white"/>
<path d="M226.242 73.59C226.974 71.8713 226.621 70.0748 225.453 69.5773C224.285 69.0799 222.745 70.0699 222.012 71.7886C221.28 73.5073 221.633 75.3039 222.801 75.8013C223.969 76.2988 225.509 75.3087 226.242 73.59Z" fill="#0C0C0C"/>
<path d="M228.008 109.286C235.174 108.949 235.476 102.867 235.476 102.867C235.476 102.867 239.027 103.097 241.388 103.416C245.252 103.939 247.801 105.249 249.83 107.277C251.718 109.164 252.866 111.206 251.651 124.24C250.77 133.678 251.39 154.436 251.39 154.436H207.719C207.719 154.436 204.669 124.446 204.308 120.198C203.618 112.088 201.669 110.297 205.618 106.12C208.482 103.09 215.876 102.867 218.852 102.868C218.901 102.868 218.249 109.746 228.008 109.286Z" fill="#0A6847"/>
<path d="M204.204 107.998L192.913 131.93L170.647 115.189L161.803 126.947L191.287 149.114C191.551 149.31 191.827 149.49 192.113 149.652C192.955 150.124 193.882 150.426 194.841 150.539C195.8 150.653 196.772 150.577 197.702 150.315C198.631 150.053 199.5 149.61 200.258 149.013C201.017 148.415 201.65 147.674 202.122 146.832L202.25 146.604L219.476 115.864L204.204 107.998Z" fill="#0A6847"/>
<path d="M253.065 154.646H54.1897C54.134 154.646 54.0805 154.624 54.0411 154.585C54.0016 154.545 53.9795 154.492 53.9795 154.436C53.9795 154.38 54.0016 154.327 54.0411 154.288C54.0805 154.248 54.134 154.226 54.1897 154.226H253.065C253.121 154.226 253.175 154.248 253.214 154.288C253.254 154.327 253.276 154.38 253.276 154.436C253.276 154.492 253.254 154.545 253.214 154.585C253.175 154.624 253.121 154.646 253.065 154.646Z" fill="#292A2E"/>
<path d="M209.808 123.176H103.312V159.571H209.808V123.176Z" fill="#FAFAFA"/>
<path d="M209.913 159.676H103.207V123.071H209.913V159.676ZM103.417 159.466H209.703V123.281H103.417V159.466Z" fill="#0C0C0C"/>
<path d="M98.0537 134.299L104.628 131.363C104.772 131.299 104.928 131.265 105.087 131.264C105.245 131.264 105.401 131.296 105.546 131.359C105.692 131.422 105.822 131.515 105.929 131.631C106.037 131.747 106.119 131.884 106.17 132.034C106.256 132.313 106.236 132.614 106.112 132.879C105.989 133.144 105.772 133.354 105.503 133.467L104.093 134.098L109.435 134.153C110.029 134.148 110.76 134.523 110.721 135.19C110.723 135.447 110.637 135.698 110.479 135.9C110.32 136.103 110.097 136.245 109.846 136.305C109.848 136.311 109.848 136.316 109.849 136.322C109.848 136.326 109.847 136.331 109.846 136.335L110.762 136.328C110.931 136.327 111.099 136.364 111.253 136.436C111.406 136.508 111.542 136.613 111.65 136.744C111.757 136.875 111.835 137.028 111.876 137.192C111.917 137.357 111.921 137.528 111.887 137.694C111.829 137.955 111.682 138.188 111.473 138.354C111.263 138.52 111.003 138.608 110.736 138.605L110.346 138.608C110.341 138.62 110.334 138.63 110.325 138.639C110.589 138.698 110.823 138.849 110.985 139.065C111.148 139.281 111.228 139.547 111.212 139.817C111.186 140.112 111.05 140.386 110.831 140.585C110.611 140.783 110.325 140.892 110.029 140.889L109.061 140.896C109.075 140.906 109.086 140.918 109.094 140.933C109.101 140.947 109.106 140.964 109.106 140.98C109.105 141 109.099 141.019 109.087 141.035C109.308 141.153 109.483 141.34 109.587 141.568C109.69 141.795 109.716 142.05 109.661 142.294C109.597 142.548 109.449 142.774 109.241 142.934C109.034 143.094 108.778 143.18 108.515 143.177L100.347 143.235C99.204 143.243 98.0849 142.91 97.1329 142.278C96.1808 141.646 95.4391 140.744 95.0029 139.688C94.6268 138.778 94.6206 137.757 94.9857 136.842C95.3507 135.927 96.0582 135.19 96.9579 134.788L98.0537 134.299Z" fill="#E98862"/>
<g opacity="0.2">
<path d="M104.558 136.276C104.559 136.303 104.57 136.33 104.59 136.349C104.609 136.369 104.636 136.379 104.664 136.379L109.744 136.425C109.771 136.425 109.798 136.414 109.818 136.395C109.838 136.375 109.849 136.349 109.85 136.321C109.85 136.293 109.839 136.266 109.819 136.246C109.8 136.226 109.773 136.215 109.745 136.215L104.665 136.169C104.638 136.169 104.611 136.18 104.591 136.2C104.571 136.219 104.56 136.246 104.56 136.274L104.558 136.276Z" fill="#0C0C0C"/>
</g>
<g opacity="0.2">
<path d="M104.477 138.516C104.477 138.544 104.488 138.57 104.508 138.589C104.527 138.609 104.554 138.62 104.582 138.62L110.251 138.671C110.279 138.671 110.305 138.66 110.325 138.64C110.345 138.62 110.356 138.593 110.356 138.566C110.355 138.538 110.344 138.512 110.324 138.492C110.305 138.473 110.278 138.461 110.251 138.46L104.582 138.409C104.568 138.409 104.554 138.412 104.541 138.417C104.528 138.422 104.516 138.43 104.507 138.44C104.497 138.45 104.489 138.461 104.484 138.474C104.478 138.487 104.475 138.501 104.475 138.514L104.477 138.516Z" fill="#0C0C0C"/>
</g>
<g opacity="0.2">
<path d="M104.374 140.94C104.374 140.968 104.385 140.994 104.405 141.013C104.425 141.033 104.451 141.044 104.479 141.044L109.001 141.084C109.029 141.085 109.056 141.074 109.076 141.054C109.095 141.035 109.107 141.008 109.107 140.98C109.107 140.952 109.096 140.925 109.077 140.906C109.057 140.886 109.031 140.874 109.003 140.874L104.481 140.833C104.453 140.833 104.426 140.844 104.406 140.864C104.387 140.884 104.376 140.911 104.376 140.938L104.374 140.94Z" fill="#0C0C0C"/>
</g>
<path d="M99.9354 146.001L63.4877 154.285C62.2769 154.417 61.0521 154.266 59.9092 153.845C58.7664 153.424 57.7367 152.744 56.9009 151.858C56.0651 150.973 55.446 149.905 55.0921 148.74C54.7382 147.575 54.6591 146.344 54.8612 145.143L59.0321 111.6C59.379 109.539 60.5307 107.7 62.2338 106.488C63.937 105.275 66.052 104.789 68.1137 105.136C70.1754 105.483 72.0149 106.634 73.2274 108.337C74.44 110.04 74.9263 112.154 74.5794 114.216L72.5709 138.224L97.8936 132.494L99.9354 146.001Z" fill="#0A6847"/>
<path d="M67.4465 139.167C67.4201 139.167 67.3948 139.157 67.3755 139.139C67.3563 139.121 67.3445 139.096 67.3426 139.07C67.3406 139.044 67.3487 139.018 67.3651 138.997C67.3815 138.976 67.4051 138.963 67.4312 138.959L72.5101 137.874C72.5237 137.872 72.5377 137.873 72.5511 137.876C72.5646 137.879 72.5773 137.885 72.5884 137.893C72.5995 137.901 72.6089 137.912 72.6159 137.924C72.623 137.936 72.6276 137.949 72.6295 137.963C72.6336 137.99 72.6266 138.018 72.61 138.04C72.5935 138.063 72.5687 138.078 72.5412 138.082L67.4623 139.166C67.4571 139.167 67.4518 139.167 67.4465 139.167Z" fill="#0C0C0C"/>
<path d="M64.5812 154.436C64.5533 154.438 64.5258 154.429 64.5048 154.41C64.4838 154.392 64.471 154.366 64.4692 154.338C64.4674 154.31 64.4767 154.283 64.4952 154.262C64.5136 154.241 64.5396 154.228 64.5675 154.226L99.7066 145.952L97.7155 132.648L72.5439 138.081C72.5276 138.083 72.5111 138.081 72.4956 138.076C72.4801 138.07 72.4661 138.061 72.4546 138.05C72.4431 138.038 72.4346 138.024 72.4297 138.008C72.4248 137.992 72.4237 137.975 72.4264 137.959L73.8384 124.242C73.8405 124.228 73.8453 124.215 73.8526 124.203C73.8598 124.191 73.8694 124.181 73.8807 124.173C73.892 124.165 73.9048 124.159 73.9183 124.156C73.9318 124.153 73.9458 124.153 73.9594 124.155C73.9869 124.16 74.0115 124.175 74.0276 124.198C74.0438 124.221 74.0503 124.249 74.0456 124.277L72.6582 137.853L97.7644 132.416C97.7779 132.413 97.7921 132.412 97.806 132.413C97.8199 132.415 97.8332 132.42 97.8454 132.427C97.8574 132.434 97.868 132.443 97.8764 132.455C97.8848 132.466 97.8909 132.479 97.8943 132.492L99.9361 146C99.9425 146.027 99.9384 146.055 99.9246 146.078C99.9107 146.102 99.8882 146.119 99.8619 146.126L64.5948 154.435C64.5903 154.436 64.5857 154.436 64.5812 154.436Z" fill="#0C0C0C"/>
<path d="M213.091 140.604L206.517 137.668C206.373 137.604 206.217 137.57 206.058 137.569C205.9 137.569 205.744 137.601 205.599 137.664C205.454 137.727 205.323 137.82 205.216 137.936C205.109 138.052 205.027 138.189 204.975 138.339C204.889 138.618 204.909 138.919 205.033 139.184C205.156 139.449 205.373 139.659 205.642 139.772L207.052 140.403L201.71 140.458C201.116 140.453 200.384 140.828 200.424 141.495C200.422 141.752 200.508 142.003 200.667 142.205C200.826 142.408 201.049 142.55 201.299 142.61C201.298 142.616 201.297 142.621 201.296 142.627C201.297 142.631 201.298 142.636 201.299 142.64L200.383 142.633C200.214 142.632 200.046 142.669 199.892 142.741C199.739 142.813 199.603 142.918 199.495 143.049C199.388 143.179 199.31 143.333 199.269 143.497C199.228 143.662 199.224 143.833 199.258 143.999C199.316 144.26 199.463 144.493 199.672 144.659C199.882 144.824 200.142 144.913 200.409 144.91L200.799 144.913C200.804 144.924 200.811 144.935 200.82 144.944C200.556 145.003 200.322 145.154 200.16 145.37C199.997 145.586 199.917 145.852 199.933 146.122C199.959 146.417 200.095 146.691 200.315 146.89C200.534 147.088 200.82 147.197 201.116 147.194L202.084 147.201C202.071 147.21 202.06 147.223 202.052 147.238C202.044 147.252 202.039 147.268 202.039 147.285C202.04 147.305 202.046 147.324 202.058 147.34C201.837 147.458 201.662 147.645 201.559 147.873C201.455 148.1 201.429 148.355 201.485 148.599C201.548 148.853 201.696 149.079 201.904 149.239C202.112 149.399 202.368 149.485 202.63 149.482L210.799 149.54C211.941 149.548 213.061 149.215 214.013 148.583C214.965 147.951 215.706 147.049 216.142 145.993C216.519 145.082 216.525 144.061 216.16 143.146C215.795 142.231 215.087 141.494 214.187 141.092L213.091 140.604Z" fill="#E98862"/>
<g opacity="0.2">
<path d="M206.586 142.581C206.586 142.608 206.575 142.635 206.555 142.654C206.536 142.673 206.509 142.684 206.481 142.684L201.401 142.73C201.388 142.73 201.374 142.727 201.361 142.722C201.348 142.717 201.337 142.709 201.327 142.7C201.317 142.69 201.309 142.679 201.304 142.666C201.298 142.653 201.296 142.64 201.295 142.626C201.295 142.612 201.298 142.598 201.303 142.585C201.308 142.573 201.316 142.561 201.326 142.551C201.335 142.541 201.347 142.534 201.359 142.528C201.372 142.523 201.386 142.52 201.4 142.52L206.48 142.474C206.507 142.474 206.534 142.485 206.554 142.505C206.574 142.524 206.585 142.551 206.585 142.579L206.586 142.581Z" fill="#0C0C0C"/>
</g>
<g opacity="0.2">
<path d="M206.668 144.821C206.668 144.848 206.657 144.874 206.638 144.894C206.618 144.913 206.592 144.924 206.564 144.924L200.895 144.976C200.867 144.976 200.84 144.964 200.821 144.945C200.801 144.925 200.79 144.898 200.79 144.87C200.791 144.843 200.802 144.817 200.822 144.797C200.841 144.778 200.867 144.766 200.895 144.765L206.564 144.714C206.592 144.714 206.619 144.725 206.638 144.745C206.658 144.765 206.669 144.792 206.669 144.819L206.668 144.821Z" fill="#0C0C0C"/>
</g>
<g opacity="0.2">
<path d="M206.771 147.245C206.771 147.273 206.76 147.299 206.74 147.318C206.721 147.338 206.694 147.349 206.666 147.349L202.144 147.389C202.13 147.389 202.117 147.387 202.104 147.382C202.091 147.376 202.079 147.369 202.07 147.359C202.06 147.35 202.052 147.338 202.046 147.325C202.041 147.313 202.038 147.299 202.038 147.285C202.038 147.271 202.041 147.258 202.046 147.245C202.051 147.232 202.059 147.22 202.068 147.211C202.078 147.201 202.089 147.193 202.102 147.187C202.115 147.182 202.128 147.179 202.142 147.179L206.664 147.138C206.692 147.138 206.719 147.149 206.739 147.169C206.759 147.189 206.77 147.216 206.77 147.243L206.771 147.245Z" fill="#0C0C0C"/>
</g>
<path d="M213.312 152.306L247.657 154.285C248.868 154.417 250.093 154.266 251.236 153.845C252.379 153.424 253.408 152.744 254.244 151.858C255.08 150.973 255.699 149.905 256.053 148.74C256.407 147.575 256.486 146.344 256.284 145.143L252.114 111.599C251.942 110.579 251.571 109.602 251.021 108.725C250.472 107.847 249.755 107.087 248.912 106.487C248.069 105.886 247.115 105.458 246.106 105.226C245.098 104.994 244.053 104.963 243.032 105.135C242.011 105.307 241.034 105.678 240.157 106.227C239.279 106.776 238.519 107.493 237.918 108.336C237.318 109.179 236.889 110.132 236.658 111.141C236.426 112.15 236.395 113.194 236.566 114.215L238.575 139.694L213.462 138.798L213.312 152.306Z" fill="#0A6847"/>
<path d="M243.698 139.588C243.725 139.588 243.75 139.577 243.769 139.559C243.789 139.541 243.8 139.517 243.802 139.49C243.804 139.464 243.796 139.438 243.78 139.417C243.763 139.397 243.74 139.383 243.714 139.379L238.635 139.345C238.621 139.343 238.607 139.344 238.594 139.347C238.58 139.35 238.568 139.356 238.556 139.364C238.545 139.373 238.536 139.383 238.529 139.395C238.522 139.407 238.517 139.42 238.515 139.434C238.511 139.461 238.518 139.489 238.535 139.512C238.551 139.534 238.576 139.549 238.604 139.553L243.683 139.586C243.688 139.587 243.693 139.588 243.698 139.588Z" fill="#0C0C0C"/>
<path d="M246.564 154.436C246.592 154.438 246.619 154.429 246.64 154.41C246.661 154.392 246.674 154.366 246.676 154.338C246.678 154.31 246.668 154.283 246.65 154.262C246.632 154.241 246.605 154.228 246.578 154.226L213.54 152.257L213.639 138.954L238.601 139.553C238.617 139.555 238.633 139.553 238.649 139.548C238.664 139.542 238.678 139.534 238.69 139.522C238.701 139.51 238.71 139.496 238.715 139.48C238.72 139.464 238.721 139.447 238.718 139.431L237.306 124.243C237.304 124.229 237.299 124.216 237.292 124.204C237.285 124.192 237.275 124.182 237.264 124.174C237.253 124.166 237.24 124.16 237.226 124.157C237.213 124.154 237.199 124.154 237.185 124.156C237.172 124.159 237.159 124.164 237.147 124.171C237.135 124.178 237.125 124.188 237.117 124.199C237.109 124.21 237.103 124.223 237.1 124.236C237.097 124.25 237.097 124.264 237.099 124.277L238.487 139.325L213.591 138.722C213.578 138.718 213.564 138.717 213.55 138.719C213.536 138.721 213.522 138.726 213.51 138.733C213.498 138.74 213.488 138.749 213.479 138.76C213.471 138.772 213.465 138.784 213.461 138.798L213.311 152.306C213.305 152.332 213.309 152.361 213.323 152.384C213.337 152.408 213.359 152.425 213.386 152.432L246.55 154.434C246.554 154.435 246.559 154.436 246.564 154.436Z" fill="#0C0C0C"/>
<path d="M128.56 146.989H125.769L124.203 140.916C124.145 140.7 124.046 140.254 123.907 139.576C123.767 138.899 123.687 138.444 123.665 138.212C123.634 138.497 123.555 138.954 123.428 139.584C123.301 140.214 123.204 140.663 123.135 140.932L121.577 146.989H118.794L115.844 135.43H118.256L119.735 141.739C119.993 142.904 120.18 143.914 120.296 144.768C120.328 144.467 120.4 144.002 120.514 143.372C120.627 142.742 120.734 142.253 120.834 141.905L122.519 135.43H124.836L126.52 141.905C126.594 142.195 126.686 142.638 126.797 143.234C126.908 143.829 126.992 144.341 127.049 144.768C127.102 144.357 127.186 143.844 127.301 143.23C127.417 142.616 127.522 142.119 127.617 141.74L129.088 135.43H131.5L128.56 146.989Z" fill="#1E1E1E"/>
<path d="M139.616 146.989H132.957V135.43H139.616V137.438H135.409V139.976H139.324V141.984H135.409V144.965H139.616V146.989Z" fill="#1E1E1E"/>
<path d="M142.028 146.989V135.43H144.48V144.965H149.17V146.99L142.028 146.989Z" fill="#1E1E1E"/>
<path d="M156.09 137.303C155.674 137.284 155.26 137.369 154.886 137.551C154.511 137.732 154.188 138.005 153.946 138.343C153.44 139.036 153.187 140.002 153.187 141.241C153.187 143.819 154.154 145.108 156.089 145.108C157.099 145.069 158.096 144.863 159.039 144.498V146.554C158.029 146.961 156.948 147.163 155.86 147.147C154.178 147.147 152.892 146.637 152 145.617C151.109 144.597 150.663 143.133 150.664 141.225C150.64 140.135 150.864 139.055 151.32 138.066C151.725 137.198 152.382 136.473 153.206 135.986C154.084 135.489 155.08 135.239 156.089 135.263C157.264 135.275 158.421 135.554 159.473 136.077L158.682 138.07C158.257 137.867 157.822 137.688 157.377 137.532C156.964 137.384 156.529 137.306 156.09 137.303Z" fill="#1E1E1E"/>
<path d="M171.993 141.193C171.993 143.107 171.519 144.577 170.57 145.605C169.621 146.633 168.26 147.147 166.489 147.147C164.717 147.147 163.357 146.633 162.408 145.605C161.459 144.577 160.985 143.101 160.985 141.177C160.985 139.253 161.461 137.784 162.412 136.769C163.364 135.755 164.728 135.247 166.505 135.247C168.281 135.247 169.64 135.759 170.582 136.781C171.523 137.804 171.993 139.275 171.993 141.193ZM163.555 141.193C163.555 142.485 163.8 143.457 164.291 144.111C164.781 144.764 165.514 145.091 166.489 145.091C168.445 145.091 169.423 143.792 169.423 141.193C169.423 138.589 168.45 137.287 166.505 137.287C165.53 137.287 164.794 137.615 164.298 138.272C163.801 138.928 163.554 139.902 163.555 141.193Z" fill="#1E1E1E"/>
<path d="M179.285 146.989L176.501 137.92H176.43C176.53 139.765 176.58 140.996 176.58 141.612V146.989H174.39V135.43H177.727L180.463 144.27H180.511L183.413 135.43H186.75V146.989H184.465V141.517C184.465 141.259 184.469 140.961 184.477 140.624C184.484 140.286 184.52 139.39 184.583 137.936H184.512L181.531 146.989H179.285Z" fill="#1E1E1E"/>
<path d="M196.32 146.989H189.66V135.43H196.319V137.438H192.112V139.976H196.027V141.984H192.112V144.965H196.32V146.989Z" fill="#1E1E1E"/>
</g>
<defs>
<clipPath id="clip0_273_9917">
<rect width="232" height="129.336" fill="white" transform="translate(48 43.5)"/>
</clipPath>
</defs>
</svg>
