<svg width="181" height="218" viewBox="0 0 181 218" fill="none" xmlns="http://www.w3.org/2000/svg">
<g clip-path="url(#clip0_650_8052)">
<path d="M71.8753 199.343C71.8753 199.343 68.0903 204.938 72.2186 209.59C76.3469 214.242 71.8979 216.788 71.8979 216.788L55.1177 200.008L63.5029 191.625L71.8753 199.343Z" fill="#0A6847"/>
<path d="M72.7677 84.2666C72.7677 84.2666 72.8421 82.2728 72.8249 86.7956C72.7989 94.3061 73.5135 114.153 73.0114 139.733C72.611 160.181 58.376 195.269 58.376 195.269L71.2139 204.484C71.2139 204.484 90.5254 173.161 93.5902 142.153C95.1589 126.281 98.3672 83.5807 98.3672 83.5807L72.7677 84.2666Z" fill="#262626"/>
<path d="M112.382 205.254C112.382 205.254 113.662 211.886 119.871 212.256C126.081 212.625 124.734 217.573 124.734 217.573H101.004V205.716L112.382 205.254Z" fill="#0A6847"/>
<path d="M115.399 85.5767C115.399 85.5767 117.347 143.234 117.143 146.052L115.313 209.05L99.9767 209.333L97.5038 143.773C97.5038 143.773 95.8839 125.689 91.513 108.896C89.2774 100.277 87.932 91.4516 87.498 82.5583L115.399 85.5767Z" fill="#262626"/>
<path d="M95.167 126.455L96.4456 106.899C96.4456 106.899 97.7592 115.029 97.7592 122.037C97.7592 125.462 97.0538 139.024 97.0538 139.024L95.167 126.455Z" fill="#0A0A0A"/>
<path d="M72.5995 84.2649L72.5483 84.2678C72.5483 84.2678 72.5841 83.2843 72.5995 84.2649Z" fill="#333333"/>
<path d="M72.6622 84.2649L72.6113 84.2678C72.6113 84.2678 72.6479 83.2843 72.6622 84.2649Z" fill="#333333"/>
<path d="M82.7039 11.4288C82.7039 11.4288 81.4684 18.0126 79.6875 20.2421C74.56 26.6599 72.3823 34.3091 76.2 38.8979C80.0176 43.4868 107.467 46.8255 110.667 37.7037C113.361 30.0238 109.705 28.7263 109.569 22.1088C109.507 19.1147 109.107 12.8039 109.107 12.8039" fill="#0A0A0A"/>
<path d="M104.972 34.2242C104.924 34.2182 104.395 43.0059 94.1847 42.2407C87.1164 41.7113 84.5963 34.2119 84.4341 34.2119C85.1961 34.05 86.4796 33.8143 86.818 33.6338C87.931 33.0356 89.3081 32.4135 89.6668 30.2518C89.8736 29.0061 89.5238 22.6329 89.6308 21.3725L100.481 23.7942C100.329 26.4562 99.2681 32.6275 102.987 33.7202C103.607 33.9004 104.273 34.0666 104.972 34.2242Z" fill="#E98862"/>
<path opacity="0.52" d="M100.632 31.1975C100.462 30.6498 100.353 30.0852 100.306 29.5138C100.187 28.2095 100.21 26.896 100.377 25.5969C98.1719 25.2991 96.0947 24.3889 94.3811 22.9698C94.1809 23.7135 93.0716 26.9651 93.38 27.6722C93.9584 29.0089 96.6847 31.1975 100.632 31.1975Z" fill="#0C0C0C"/>
<path d="M98.7071 29.0741C94.4107 28.9774 89.1182 26.6215 88.6559 20.829L88.2388 15.6026C87.7766 9.8101 90.4443 4.87173 95.8981 4.43636C101.352 4.00128 105.803 8.37155 106.265 14.1641L106.45 16.4779C106.627 18.7005 106.373 29.2469 98.7071 29.0741Z" fill="#E98862"/>
<path d="M103.322 16.8635C103.695 16.8635 103.996 16.5618 103.996 16.1896C103.996 15.8174 103.695 15.5156 103.322 15.5156C102.95 15.5156 102.648 15.8174 102.648 16.1896C102.648 16.5618 102.95 16.8635 103.322 16.8635Z" fill="#0C0C0C"/>
<path d="M97.1861 16.8635C97.5583 16.8635 97.8601 16.5618 97.8601 16.1896C97.8601 15.8174 97.5583 15.5156 97.1861 15.5156C96.8139 15.5156 96.5122 15.8174 96.5122 16.1896C96.5122 16.5618 96.8139 16.8635 97.1861 16.8635Z" fill="#0C0C0C"/>
<path opacity="0.52" d="M101.247 21.3857H101.257C101.478 21.3663 101.698 21.3349 101.915 21.2916C102.241 21.2243 102.67 21.1013 102.647 20.8119C102.621 20.4818 101.433 16.9928 101.297 16.5961C101.285 16.5621 101.26 16.5344 101.227 16.5188C101.194 16.5032 101.157 16.501 101.123 16.5127C101.089 16.5244 101.06 16.549 101.044 16.5812C101.028 16.6135 101.025 16.6509 101.036 16.6853C101.543 18.171 102.354 20.6116 102.372 20.833C102.326 20.9303 101.783 21.0659 101.235 21.1096C101.2 21.1128 101.167 21.1295 101.143 21.1561C101.12 21.1828 101.108 21.2174 101.109 21.2528C101.111 21.2882 101.126 21.3217 101.151 21.3464C101.177 21.3711 101.211 21.3851 101.246 21.3854L101.247 21.3857Z" fill="#0C0C0C"/>
<path opacity="0.52" d="M100.355 22.7647C99.4712 22.7811 98.6033 23.005 97.8217 23.4183C97.8047 23.426 97.7894 23.437 97.7768 23.4507C97.7641 23.4645 97.7544 23.4806 97.7482 23.4982C97.7419 23.5157 97.7393 23.5344 97.7405 23.553C97.7417 23.5716 97.7466 23.5898 97.755 23.6065C97.7634 23.6231 97.775 23.6379 97.7893 23.6499C97.8036 23.662 97.8201 23.671 97.8379 23.6764C97.8558 23.6819 97.8745 23.6837 97.893 23.6817C97.9116 23.6797 97.9295 23.674 97.9458 23.6649C99.6335 22.8148 101.214 22.8225 102.519 23.6869C102.545 23.7053 102.572 23.7222 102.6 23.7376C102.633 23.7519 102.67 23.7531 102.703 23.7409C102.737 23.7287 102.764 23.704 102.78 23.6721C102.796 23.6401 102.798 23.6033 102.788 23.5694C102.777 23.5354 102.754 23.5069 102.722 23.4899C102.712 23.4841 102.694 23.4724 102.671 23.4567C101.985 23.0007 101.179 22.7598 100.355 22.7647Z" fill="#0C0C0C"/>
<path d="M83.7705 16.9264L88.6565 16.5646C92.4435 15.4876 94.2182 9.32524 94.2182 9.32524C94.2182 9.32524 98.1625 14.0963 109.107 12.8047C109.107 12.8047 108.572 -2.32186 92.3248 0.307797C87.0861 1.15593 82.8814 5.88949 82.5974 12.7913C82.3983 17.627 83.7705 16.9264 83.7705 16.9264Z" fill="#0A0A0A"/>
<path d="M89.1353 22.5668C87.4779 22.6989 85.993 21.033 85.8606 19.3756C85.7281 17.7182 86.999 16.697 88.6564 16.5646L89.6004 17.6072L90.5615 22.4529L89.1353 22.5668Z" fill="#E98862"/>
<path d="M102.569 13.9879C103.076 13.7329 103.642 13.619 104.208 13.6583C104.487 13.6759 104.761 13.7352 105.022 13.8342C105.281 13.9306 105.526 14.0591 105.752 14.2167C105.785 14.2369 105.808 14.2692 105.817 14.3065C105.825 14.3437 105.819 14.3829 105.799 14.4154C105.778 14.4478 105.746 14.4709 105.709 14.4796C105.672 14.4883 105.632 14.4818 105.6 14.4616L105.59 14.4558C105.38 14.3223 105.153 14.2159 104.916 14.1392C104.682 14.0621 104.437 14.0207 104.191 14.0165C103.701 14.0053 103.218 14.1237 102.789 14.3597L102.775 14.3677C102.725 14.3963 102.666 14.4038 102.61 14.3887C102.555 14.3736 102.508 14.3371 102.479 14.2872C102.451 14.2373 102.443 14.1782 102.458 14.1227C102.473 14.0673 102.51 14.0201 102.56 13.9916L102.569 13.9879Z" fill="#0C0C0C"/>
<path d="M98.1879 14.5314C97.728 14.3648 97.2322 14.3227 96.7508 14.4095C96.5077 14.4517 96.2723 14.5303 96.0526 14.6426C95.8301 14.7552 95.6226 14.8952 95.435 15.0594L95.4267 15.0666C95.4123 15.079 95.3957 15.0884 95.3777 15.0944C95.3597 15.1003 95.3408 15.1027 95.3219 15.1013C95.303 15.1 95.2845 15.0949 95.2676 15.0864C95.2506 15.0779 95.2355 15.0662 95.2232 15.0518C95.2108 15.0375 95.2013 15.0209 95.1953 15.0029C95.1894 14.9849 95.187 14.9659 95.1884 14.947C95.1897 14.9281 95.1948 14.9097 95.2033 14.8927C95.2118 14.8758 95.2235 14.8607 95.2379 14.8483C95.4373 14.6569 95.66 14.4914 95.9007 14.3554C96.1434 14.2174 96.4055 14.1165 96.6781 14.0562C97.2312 13.9302 97.8081 13.9553 98.3481 14.1289C98.4012 14.1481 98.4446 14.1873 98.4693 14.238C98.4939 14.2888 98.4978 14.3471 98.4801 14.4007C98.4624 14.4543 98.4246 14.4989 98.3745 14.525C98.3245 14.5511 98.2663 14.5566 98.2122 14.5405L98.2036 14.5374L98.1879 14.5314Z" fill="#0C0C0C"/>
<path d="M88.6733 16.5051L88.6401 16.3672C94.9455 14.8429 94.1037 8.72569 94.0943 8.6639L94.2344 8.64273C94.2439 8.70566 95.1066 14.9496 88.6733 16.5051Z" fill="#0C0C0C"/>
<path opacity="0.1" d="M96.8941 21.3393C97.6032 21.3393 98.1779 20.9177 98.1779 20.3977C98.1779 19.8776 97.6032 19.456 96.8941 19.456C96.1851 19.456 95.6104 19.8776 95.6104 20.3977C95.6104 20.9177 96.1851 21.3393 96.8941 21.3393Z" fill="#0C0C0C"/>
<path opacity="0.1" d="M104.524 20.1725C104.524 20.692 105.101 21.1134 105.809 21.1145C105.932 21.1144 106.054 21.1016 106.174 21.0765C106.279 20.4697 106.352 19.8828 106.399 19.337C106.21 19.2652 106.01 19.2293 105.809 19.2312C105.1 19.23 104.525 19.6516 104.524 20.1725Z" fill="#0C0C0C"/>
<path d="M117.658 53.5732C117.336 57.3513 115.772 80.923 115.463 85.5767H72.849C72.6082 81.3792 71.5272 63.026 70.6144 54.8181C69.7431 46.9857 68.0334 43.0646 69.2865 40.749C71.3344 36.9645 76.9301 34.778 80.7454 34.2614C83.0756 33.9467 86.5808 33.7196 86.5808 33.7196C86.5808 33.7196 86.8775 39.7221 93.9526 40.0562C103.584 40.5104 102.941 33.7196 102.988 33.7196C104.549 33.7196 113.462 34.7073 115.642 36C121.583 39.5187 118.34 45.5678 117.658 53.5732Z" fill="#0A6847"/>
<path d="M150.047 60.481C150.096 60.3457 150.172 60.2219 150.271 60.117C150.369 60.0121 150.488 59.9284 150.62 59.871C150.752 59.8136 150.894 59.7837 151.038 59.7831C151.182 59.7826 151.325 59.8114 151.457 59.8677C151.71 59.9855 151.908 60.1947 152.012 60.4531C152.116 60.7115 152.118 60.9998 152.018 61.2596L151.531 62.6041L154.595 59.4801C154.976 59.0796 155.699 58.8334 156.119 59.2899C156.483 59.6366 157.325 59.7436 157.462 60.3932C157.466 60.3966 157.458 66.343 157.105 66.7149C155.606 68.2882 151.984 68.5928 149.963 67.7939L146.783 66.5353L150.047 60.481Z" fill="#E98862"/>
<g opacity="0.1">
<path d="M150.047 60.481C150.096 60.3457 150.172 60.2219 150.271 60.117C150.369 60.0121 150.488 59.9284 150.62 59.871C150.752 59.8136 150.894 59.7837 151.038 59.7831C151.182 59.7826 151.325 59.8114 151.457 59.8677C151.71 59.9855 151.908 60.1947 152.012 60.4531C152.116 60.7115 152.118 60.9998 152.018 61.2596L151.531 62.6041L154.595 59.4801C154.976 59.0796 155.699 58.8334 156.119 59.2899C156.483 59.6366 157.325 59.7436 157.462 60.3932C157.466 60.3966 157.458 66.343 157.105 66.7149C155.606 68.2882 151.984 68.5928 149.963 67.7939L146.783 66.5353L150.047 60.481Z" fill="#0C0C0C"/>
</g>
<path d="M163.246 84.7166L108.59 92.8859C107.55 93.0413 106.487 92.9147 105.513 92.5193C104.539 92.1239 103.688 91.4742 103.051 90.638C102.414 89.8018 102.012 88.8098 101.889 87.7656C101.766 86.7214 101.925 85.6633 102.351 84.7017L123.234 37.4943C123.634 36.5892 124.257 35.8 125.044 35.2C125.831 34.6001 126.757 34.2087 127.736 34.0624C128.715 33.9161 129.715 34.0195 130.643 34.3631C131.571 34.7067 132.398 35.2793 133.045 36.0277L166.819 75.0658C167.507 75.861 167.969 76.8262 168.157 77.8608C168.344 78.8954 168.251 79.9613 167.886 80.9473C167.52 81.9334 166.897 82.8033 166.081 83.4663C165.265 84.1293 164.286 84.5611 163.246 84.7166Z" fill="#D05641"/>
<path d="M107.689 93.0964C106.69 93.0902 105.709 92.8357 104.833 92.3557C103.957 91.8757 103.215 91.1853 102.672 90.3469C102.13 89.5084 101.804 88.5481 101.725 87.5525C101.646 86.557 101.816 85.5574 102.22 84.6439L123.103 37.4368C123.513 36.5095 124.151 35.7009 124.958 35.0862C125.764 34.4714 126.713 34.0705 127.715 33.9205C128.718 33.7706 129.743 33.8766 130.693 34.2287C131.644 34.5807 132.491 35.1674 133.154 35.9342L166.928 74.972C167.633 75.7866 168.106 76.7755 168.298 77.8354C168.49 78.8953 168.394 79.9873 168.02 80.9973C167.646 82.0074 167.007 82.8985 166.171 83.5776C165.335 84.2567 164.332 84.6989 163.267 84.8579L108.61 93.0275C108.305 93.0732 107.997 93.0963 107.689 93.0964ZM128.617 34.1392C128.329 34.1394 128.042 34.1608 127.758 34.2033C126.802 34.3436 125.898 34.7246 125.129 35.3104C124.361 35.8962 123.754 36.6677 123.365 37.5524L102.484 84.7595C102.069 85.6977 101.913 86.73 102.033 87.7488C102.154 88.7676 102.545 89.7354 103.167 90.5512C103.789 91.3671 104.618 92.001 105.569 92.3868C106.519 92.7726 107.556 92.8962 108.571 92.7446L163.227 84.5753C164.242 84.4236 165.197 84.0024 165.993 83.3555C166.789 82.7087 167.397 81.8599 167.754 80.8979C168.11 79.9359 168.201 78.8959 168.018 77.8865C167.835 76.877 167.385 75.9352 166.714 75.1594L132.938 36.1213C132.403 35.4992 131.74 35.0001 130.994 34.658C130.248 34.3159 129.437 34.1389 128.617 34.1392Z" fill="#0C0C0C"/>
<path d="M127.685 56.198L126.496 49.8663L133.558 48.8107L134.273 55.2131L135.482 70.0148L130.857 70.7059L127.685 56.198ZM129.998 78.2295C129.623 75.7203 131.144 73.5149 133.585 73.1499C136.026 72.7849 138.127 74.4491 138.502 76.9586C138.873 79.4513 137.353 81.6561 134.911 82.0217C132.469 82.3873 130.371 80.7233 129.998 78.2295Z" fill="white"/>
<path d="M153.945 65.1496C153.904 64.9649 153.926 64.7721 154.005 64.6006C154.085 64.4291 154.218 64.2883 154.385 64.1996C154.376 64.1876 154.345 64.1645 154.367 64.1496L153.644 64.1765C153.431 64.1889 153.221 64.124 153.053 63.9936C152.884 63.8632 152.768 63.6762 152.727 63.4671C152.692 63.2592 152.737 63.0461 152.851 62.8691C152.965 62.692 153.14 62.5635 153.344 62.5085C153.337 62.5028 153.337 62.4931 153.333 62.4856L153.035 62.4965C152.835 62.5074 152.637 62.4487 152.474 62.3303C152.312 62.2119 152.196 62.041 152.145 61.8466C152.116 61.7241 152.114 61.5966 152.14 61.4733C152.166 61.35 152.219 61.234 152.295 61.1337C152.371 61.0334 152.468 60.9512 152.58 60.8931C152.692 60.8349 152.815 60.8024 152.941 60.7977L153.628 60.7722C153.628 60.7685 153.623 60.7665 153.623 60.7628C153.623 60.759 153.627 60.7545 153.628 60.7499C153.438 60.7144 153.266 60.6155 153.141 60.4696C153.015 60.3236 152.942 60.1392 152.935 59.9467C152.884 59.4506 153.417 59.1457 153.86 59.1306L155.262 59.1878C155.478 59.1966 155.689 59.2587 155.875 59.3685C156.061 59.4783 156.217 59.6324 156.33 59.8171C157.302 61.4161 159.744 65.6525 158.329 65.7054L154.846 65.8341C154.641 65.8366 154.441 65.7707 154.278 65.6467C154.115 65.5227 153.997 65.3478 153.945 65.1496Z" fill="#E98862"/>
<path d="M117.998 72.1224C117.985 71.9144 117.908 71.7157 117.776 71.5537C117.645 71.3918 117.467 71.2745 117.266 71.2182C117.275 71.202 117.279 71.1834 117.277 71.165C117.273 71.1498 117.265 71.136 117.254 71.1249C117.243 71.1137 117.229 71.1057 117.214 71.1015L118.052 70.9158C118.3 70.8664 118.521 70.7289 118.676 70.5287C118.83 70.3285 118.907 70.0792 118.892 69.8268C118.869 69.5781 118.754 69.3467 118.571 69.1776C118.387 69.0084 118.147 68.9136 117.897 68.9115C117.902 68.9029 117.9 68.8917 117.903 68.8829L118.246 68.8065C118.48 68.7592 118.69 68.6325 118.84 68.4479C118.991 68.2633 119.074 68.0323 119.074 67.7939C119.071 67.6445 119.035 67.4977 118.968 67.3639C118.901 67.2302 118.806 67.113 118.688 67.0206C118.571 66.9283 118.434 66.8631 118.289 66.8299C118.143 66.7967 117.992 66.7962 117.846 66.8285L117.052 67.005C117.052 67.0004 117.055 66.9969 117.054 66.9927C117.053 66.9884 117.047 66.9844 117.045 66.9789C117.252 66.8815 117.419 66.7167 117.52 66.5116C117.621 66.3065 117.649 66.0733 117.599 65.8502C117.51 65.2658 116.807 65.0778 116.293 65.1923L111.659 66.1362L112.759 65.3324C112.976 65.1802 113.127 64.9511 113.182 64.6915C113.237 64.4319 113.191 64.1611 113.054 63.9339C112.98 63.8191 112.882 63.7208 112.768 63.6448C112.654 63.5689 112.526 63.517 112.391 63.4924C112.256 63.4677 112.118 63.4707 111.984 63.5013C111.851 63.5319 111.725 63.5893 111.614 63.6702L105.61 68.0588C104.906 68.5736 104.43 69.3427 104.284 70.2026C104.138 71.0625 104.332 71.9455 104.827 72.6642C105.4 73.4977 106.21 74.1409 107.152 74.5113C108.093 74.8817 109.124 74.9624 110.112 74.7432L117.171 73.1765C117.407 73.1197 117.618 72.9847 117.768 72.7934C117.918 72.6021 117.999 72.3656 117.998 72.1224Z" fill="#E98862"/>
<g opacity="0.25">
<path d="M112.466 67.9369C112.472 67.9606 112.486 67.9812 112.507 67.9944C112.527 68.0075 112.552 68.0122 112.576 68.0073L116.981 67.1036C116.993 67.1012 117.004 67.0964 117.014 67.0895C117.024 67.0827 117.033 67.0739 117.04 67.0637C117.046 67.0535 117.051 67.0421 117.053 67.0301C117.056 67.0181 117.056 67.0058 117.053 66.9938C117.051 66.9818 117.046 66.9705 117.039 66.9604C117.032 66.9503 117.023 66.9416 117.013 66.9349C117.003 66.9281 116.992 66.9235 116.98 66.9212C116.968 66.9189 116.955 66.919 116.943 66.9214L112.538 67.8248C112.514 67.8298 112.493 67.8442 112.479 67.8649C112.466 67.8855 112.461 67.9107 112.466 67.9349L112.466 67.9369Z" fill="#0C0C0C"/>
</g>
<g opacity="0.25">
<path d="M112.811 69.89C112.816 69.9137 112.831 69.9344 112.851 69.9475C112.872 69.9607 112.897 69.9653 112.92 69.9604L117.838 68.9521C117.862 68.9471 117.883 68.9327 117.897 68.912C117.91 68.8914 117.915 68.8662 117.91 68.842C117.904 68.8182 117.89 68.7975 117.869 68.7841C117.849 68.7707 117.824 68.7655 117.8 68.7696L112.883 69.7779C112.859 69.7829 112.837 69.7974 112.824 69.818C112.81 69.8387 112.806 69.8638 112.811 69.888L112.811 69.89Z" fill="#0C0C0C"/>
</g>
<g opacity="0.25">
<path d="M113.172 72.0088C113.178 72.0325 113.192 72.0531 113.213 72.0663C113.233 72.0794 113.258 72.0841 113.282 72.0792L117.204 71.2748C117.228 71.2699 117.25 71.2555 117.263 71.2349C117.277 71.2143 117.282 71.1891 117.277 71.165C117.272 71.1408 117.257 71.1196 117.237 71.106C117.216 71.0925 117.191 71.0876 117.167 71.0926L113.244 71.897C113.232 71.8994 113.221 71.9042 113.211 71.9111C113.201 71.9179 113.192 71.9267 113.185 71.9369C113.179 71.9471 113.174 71.9585 113.172 71.9705C113.169 71.9825 113.169 71.9949 113.172 72.0068L113.172 72.0088Z" fill="#0C0C0C"/>
</g>
<path d="M109.676 77.5379L71.3773 84.4603C70.1822 84.5904 68.9732 84.4417 67.8451 84.026C66.7171 83.6104 65.7008 82.939 64.8758 82.0645C64.0509 81.19 63.4398 80.1363 63.0905 78.986C62.7412 77.8357 62.6633 76.6201 62.8627 75.4345L68.2244 43.5654C68.3886 42.553 68.7513 41.583 69.2917 40.7112C69.8321 39.8395 70.5395 39.0832 71.3733 38.4858C72.207 37.8885 73.1506 37.4618 74.1499 37.2305C75.1491 36.9992 76.1842 36.9677 77.1957 37.1379C78.2071 37.3081 79.1749 37.6766 80.0435 38.2221C80.912 38.7677 81.664 39.4796 82.2564 40.317C82.8488 41.1543 83.2698 42.1004 83.4951 43.101C83.7205 44.1016 83.7458 45.1369 83.5696 46.1473L79.9136 68.0845L107.992 64.5584L109.676 77.5379Z" fill="#0A6847"/>
<path d="M71.3771 84.6007C71.3432 84.5982 71.3114 84.5838 71.2872 84.56C71.2631 84.5361 71.2482 84.5045 71.2452 84.4707C71.2422 84.4369 71.2513 84.4032 71.2709 84.3755C71.2905 84.3478 71.3193 84.328 71.3522 84.3196L109.518 77.4226L107.869 64.7166L79.9311 68.2252C79.9092 68.2281 79.8869 68.2258 79.8661 68.2185C79.8453 68.2111 79.8265 68.1989 79.8112 68.1829C79.796 68.1669 79.7846 68.1476 79.7781 68.1266C79.7715 68.1055 79.77 68.0831 79.7735 68.0613L82.0976 54.04C82.108 54.0071 82.1298 53.979 82.1592 53.9609C82.1886 53.9429 82.2235 53.936 82.2575 53.9417C82.2916 53.9473 82.3224 53.9651 82.3444 53.9916C82.3664 54.0182 82.378 54.0519 82.3771 54.0864L80.0841 67.9203L107.974 64.4176C108.011 64.4132 108.049 64.4236 108.078 64.4465C108.108 64.4694 108.127 64.503 108.132 64.5401L109.816 77.5196C109.821 77.5555 109.812 77.5917 109.79 77.621C109.769 77.6504 109.738 77.6705 109.702 77.6775L71.4037 84.5999C71.3948 84.6008 71.3859 84.6011 71.3771 84.6007Z" fill="#0C0C0C"/>
<path d="M79.8913 67.9446L77.4277 68.339L77.4726 68.6191L79.9361 68.2248L79.8913 67.9446Z" fill="#0C0C0C"/>
<path d="M158.891 217.713H32.6098C32.5511 217.713 32.4949 217.689 32.4534 217.648C32.412 217.606 32.3887 217.55 32.3887 217.492C32.3887 217.433 32.412 217.377 32.4534 217.335C32.4949 217.294 32.5511 217.27 32.6098 217.27H158.891C158.95 217.27 159.006 217.294 159.048 217.335C159.089 217.377 159.113 217.433 159.113 217.492C159.113 217.55 159.089 217.606 159.048 217.648C159.006 217.689 158.95 217.713 158.891 217.713Z" fill="#3F3F3F"/>
<path d="M40.9831 147.897L3.93963 147.872C3.23491 147.872 2.54327 147.682 1.93691 147.323C1.33056 146.964 0.831723 146.449 0.492482 145.831C0.15324 145.213 -0.0139666 144.516 0.00831652 143.811C0.0305997 143.107 0.241556 142.421 0.619162 141.826L19.1604 112.613C19.5159 112.053 20.0073 111.591 20.5888 111.272C21.1704 110.953 21.8232 110.785 22.4867 110.786C23.1501 110.786 23.8027 110.954 24.3838 111.275C24.9649 111.595 25.4557 112.057 25.8104 112.617L44.3124 141.856C44.6893 142.452 44.8993 143.137 44.9206 143.842C44.9418 144.546 44.7736 145.243 44.4335 145.861C44.0933 146.478 43.5937 146.993 42.9868 147.351C42.3798 147.709 41.6879 147.898 40.9831 147.897Z" fill="#CEE1DA"/>
<path d="M19.5908 140.289C19.5908 138.588 20.8208 137.278 22.4748 137.279C24.1287 137.281 25.3559 138.592 25.3547 140.293C25.3547 141.982 24.1247 143.292 22.4711 143.291C20.8174 143.29 19.5897 141.979 19.5908 140.289ZM20.2505 125.455L20.0928 121.14L24.8787 121.143L24.7145 125.458L24.0429 135.39L20.9101 135.387L20.2505 125.455Z" fill="white"/>
<path d="M55.4488 52.0079L25.6358 51.9879C25.0686 51.9875 24.5119 51.8348 24.0238 51.5458C23.5357 51.2568 23.1342 50.8421 22.8611 50.3449C22.588 49.8478 22.4534 49.2864 22.4713 48.7195C22.4892 48.1525 22.659 47.6008 22.963 47.1219L37.8853 23.6103C38.1714 23.1594 38.5669 22.7882 39.0349 22.5311C39.5029 22.274 40.0283 22.1393 40.5623 22.1397C41.0963 22.14 41.6215 22.2753 42.0892 22.533C42.5569 22.7907 42.9518 23.1625 43.2373 23.6137L58.128 47.1456C58.4313 47.6249 58.6004 48.1769 58.6176 48.7438C58.6348 49.3108 58.4995 49.872 58.2258 50.3688C57.952 50.8656 57.5499 51.2798 57.0614 51.5681C56.573 51.8564 56.016 52.0083 55.4488 52.0079Z" fill="#CEE1DA"/>
<path d="M38.2328 45.8856C38.2515 45.4309 38.4034 44.9917 38.6697 44.6227C38.936 44.2536 39.3049 43.971 39.7306 43.81C40.1562 43.649 40.6198 43.6166 41.0637 43.717C41.5076 43.8173 41.9122 44.0459 42.2271 44.3744C42.5421 44.7029 42.7536 45.1167 42.8352 45.5644C42.9169 46.0121 42.8651 46.4739 42.6864 46.8924C42.5077 47.3109 42.2098 47.6677 41.83 47.9183C41.4501 48.1689 41.0049 48.3022 40.5498 48.3018C40.2373 48.3013 39.928 48.2377 39.6406 48.1148C39.3532 47.9919 39.0936 47.8123 38.8773 47.5867C38.6609 47.3611 38.4924 47.0941 38.3816 46.8018C38.2709 46.5095 38.2203 46.1979 38.2328 45.8856ZM38.7637 33.9481L38.6364 30.4755L42.4878 30.4784L42.3565 33.9504L41.8162 41.9432L39.2935 41.9415L38.7637 33.9481Z" fill="white"/>
<path d="M176.675 175.493L144.141 175.471C143.522 175.471 142.914 175.305 142.381 174.989C141.848 174.674 141.41 174.221 141.112 173.679C140.814 173.136 140.667 172.524 140.686 171.905C140.706 171.286 140.891 170.684 141.223 170.161L157.508 144.502C157.82 144.01 158.252 143.605 158.762 143.325C159.273 143.044 159.847 142.897 160.429 142.898C161.012 142.898 161.585 143.046 162.096 143.327C162.606 143.608 163.037 144.014 163.349 144.506L179.599 170.187C179.93 170.71 180.115 171.312 180.133 171.931C180.152 172.55 180.004 173.162 179.706 173.704C179.407 174.247 178.968 174.699 178.435 175.013C177.902 175.328 177.294 175.494 176.675 175.493Z" fill="#CEE1DA"/>
<path d="M157.888 168.812C157.888 167.319 158.967 166.168 160.42 166.169C161.874 166.17 162.95 167.322 162.949 168.816C162.961 169.155 162.903 169.494 162.781 169.811C162.659 170.128 162.474 170.417 162.237 170.661C162.001 170.905 161.718 171.099 161.405 171.232C161.092 171.364 160.756 171.432 160.416 171.432C160.076 171.432 159.74 171.363 159.427 171.231C159.114 171.098 158.832 170.903 158.596 170.659C158.36 170.414 158.175 170.125 158.053 169.808C157.931 169.491 157.875 169.152 157.886 168.812H157.888ZM158.467 155.784L158.328 151.995L162.531 151.998L162.388 155.787L161.798 164.51L159.044 164.507L158.467 155.784Z" fill="white"/>
</g>
<defs>
<clipPath id="clip0_650_8052">
<rect width="180.14" height="217.713" fill="white"/>
</clipPath>
</defs>
</svg>
