<svg width="232" height="132" viewBox="0 0 232 132" fill="none" xmlns="http://www.w3.org/2000/svg">
<g clip-path="url(#clip0_589_13082)">
<path d="M232 131.61H0C2.54214 125.128 7.23664 119.628 13.8546 117.996C23.5355 115.613 33.7806 122.166 43.4406 119.702C48.9284 118.304 53.2488 114.228 57.7886 110.844C74.9159 98.0745 98.3867 94.3004 118.653 101.059C129.247 104.591 138.901 110.766 149.753 113.392C163.786 116.788 178.461 113.972 192.891 113.508C206.945 113.055 227.082 118.782 232 131.61Z" fill="#F3F5FD"/>
<path d="M203.266 98.9804C202.148 102.369 198.287 105.381 199.44 107.873C199.878 108.821 200.319 109.811 200.521 110.824C200.653 111.427 200.675 112.049 200.586 112.661C200.17 115.3 197.701 117.053 195.404 118.418C195.262 118.502 195.119 118.587 194.976 118.673C192.8 119.977 190.521 121.478 189.821 123.885C189.433 125.222 189.605 126.651 189.444 128.034C189.292 129.305 188.86 130.526 188.18 131.61H173.514C172.212 130.175 172.321 127.763 173.312 126.071C174.372 124.261 176.164 123.03 177.781 121.691C179.177 120.534 180.539 119.141 181.072 117.442C181.157 117.174 181.219 116.898 181.259 116.619C181.388 115.7 181.318 111.004 182.912 108.113C185.377 103.649 189.374 104.748 190.596 102.23C191.064 101.265 191.468 89.4093 199.254 91.5995C200.014 91.8025 200.724 92.158 201.341 92.6443C201.959 93.1306 202.471 93.7375 202.846 94.428C203.221 95.1186 203.452 95.8783 203.524 96.661C203.597 97.4436 203.509 98.2328 203.266 98.9804Z" fill="#DEE8F5"/>
<path d="M217.509 117.518C217.285 117.671 217.045 117.799 216.792 117.899C214.692 118.687 208.849 118.6 207.994 120.674C207.592 121.649 207.496 122.726 207.151 123.724C206.37 125.988 204.308 127.685 202.001 128.323C201.171 128.552 200.311 128.658 199.489 128.913C197.902 129.408 196.588 130.402 195.432 131.61H176.491C176.483 130.354 176.792 129.116 177.39 128.011C177.987 126.907 178.854 125.971 179.91 125.29C182.016 123.962 184.676 123.714 186.744 122.326C188.107 121.41 189.088 120.087 189.866 118.624C190.36 117.667 190.797 116.681 191.174 115.672C191.753 114.171 192.358 112.559 193.672 111.63C194.298 111.188 195.039 110.939 195.782 110.745C197.68 110.249 199.139 110.541 200.522 110.824C202.2 111.167 203.766 111.494 205.868 110.377C209.598 108.395 215.051 98.511 220.501 107.902C222.686 111.668 219.671 116.07 217.509 117.518Z" fill="#0A6847"/>
<path d="M29.3232 98.9804C30.4419 102.369 34.3028 105.381 33.1499 107.873C32.7112 108.821 32.2707 109.811 32.068 110.824C31.9364 111.427 31.9145 112.049 32.0034 112.661C32.4193 115.3 34.8891 117.053 37.1856 118.418C37.3272 118.502 37.4705 118.587 37.6138 118.673C39.7898 119.977 42.0689 121.478 42.7681 123.885C43.1561 125.222 42.9848 126.651 43.1457 128.034C43.2981 129.305 43.7296 130.526 44.4093 131.61H59.0752C60.3773 130.175 60.2689 127.763 59.2778 126.071C58.2176 124.261 56.4254 123.03 54.8088 121.691C53.4121 120.534 52.0506 119.141 51.5176 117.442C51.4329 117.174 51.3704 116.898 51.3307 116.619C51.2013 115.7 51.2712 111.004 49.6773 108.113C47.2117 103.649 43.2149 104.748 41.9935 102.23C41.5251 101.265 41.1214 89.4093 33.3349 91.5995C32.5756 91.8025 31.8656 92.158 31.2482 92.6443C30.6307 93.1306 30.1187 93.7375 29.7434 94.4281C29.3681 95.1186 29.1373 95.8784 29.065 96.661C28.9928 97.4437 29.0807 98.2328 29.3232 98.9804Z" fill="#DEE8F5"/>
<path d="M15.0806 117.518C15.3042 117.671 15.5446 117.799 15.7972 117.899C17.8981 118.687 23.741 118.6 24.5957 120.674C24.9977 121.649 25.0938 122.726 25.4382 123.724C26.2194 125.988 28.2818 127.685 30.5889 128.323C31.4192 128.552 32.2786 128.658 33.1006 128.913C34.6875 129.408 36.0018 130.402 37.1571 131.61H56.0981C56.1065 130.354 55.7976 129.116 55.1999 128.011C54.6023 126.907 53.7354 125.971 52.6795 125.29C50.5734 123.962 47.9131 123.714 45.8456 122.326C44.4822 121.41 43.5017 120.087 42.724 118.624C42.2293 117.667 41.7923 116.681 41.4153 115.672C40.8368 114.171 40.232 112.559 38.9177 111.63C38.292 111.188 37.5509 110.939 36.8081 110.746C34.91 110.249 33.4506 110.541 32.068 110.824C30.3896 111.166 28.8242 111.493 26.7204 110.376C22.9905 108.394 17.5373 98.5101 12.0877 107.901C9.90354 111.668 12.9186 116.07 15.0806 117.518Z" fill="#0A6847"/>
<path d="M178.424 26.984C177.15 26.5704 175.777 26.5704 174.503 26.984C173.77 27.2284 173.116 27.6641 172.608 28.246C171.96 29.0138 171.481 30.0769 171.529 31.0952C171.563 31.622 171.729 32.1318 172.013 32.5766C172.298 33.0214 172.69 33.3868 173.154 33.6385C173.976 34.06 175.213 34.1474 175.933 33.4729C176.482 32.9593 176.454 32.0772 176.1 31.4651C175.534 30.4869 174.299 30.0892 173.226 30.2254C172.615 30.3131 172.027 30.5228 171.498 30.8421C170.969 31.1614 170.51 31.5837 170.147 32.084C169.805 32.5574 169.557 33.0922 169.417 33.6592C169.287 34.1855 169.234 34.7892 169.441 35.3037C169.478 35.4251 169.56 35.5276 169.671 35.5904C169.781 35.6531 169.911 35.6712 170.035 35.6411C170.264 35.578 170.47 35.2904 170.372 35.0469C170.312 34.9098 170.279 34.7628 170.273 34.6134C170.264 34.4289 170.278 34.2441 170.316 34.0633C170.402 33.6454 170.558 33.2452 170.778 32.8797C171.223 32.1514 171.911 31.6037 172.721 31.3333C173.495 31.0744 174.409 31.0768 175.03 31.6636C175.146 31.7677 175.241 31.8931 175.309 32.033C175.318 32.0487 175.346 32.1195 175.313 32.0361C175.328 32.0739 175.341 32.1125 175.352 32.1521C175.36 32.1766 175.366 32.2018 175.372 32.2263C175.38 32.2594 175.392 32.4145 175.384 32.2732C175.386 32.3118 175.42 32.5396 175.383 32.5614C175.373 32.5679 175.412 32.4241 175.39 32.5086C175.386 32.5233 175.386 32.5389 175.381 32.5533C175.373 32.5944 175.361 32.6348 175.347 32.6744C175.285 32.775 175.192 32.8527 175.082 32.8956C175.153 32.8624 175.009 32.9209 175.01 32.9206C174.98 32.9297 174.95 32.9371 174.919 32.9444C174.831 32.9677 174.74 32.9817 174.649 32.9862C174.491 32.9972 174.333 32.9931 174.177 32.9738C174.009 32.944 173.846 32.895 173.69 32.828C173.347 32.6615 173.056 32.4064 172.845 32.0892C172.635 31.7719 172.514 31.4041 172.494 31.024C172.503 30.5917 172.6 30.1659 172.78 29.7725C172.851 29.6129 172.933 29.4579 173.024 29.3086C173.103 29.1753 173.193 29.0483 173.292 28.9285C173.392 28.8095 173.5 28.6971 173.614 28.5918C173.67 28.5406 173.728 28.4912 173.787 28.4436C173.901 28.3505 173.712 28.4954 173.831 28.4095C173.867 28.3833 173.904 28.3576 173.94 28.3326C174.068 28.2462 174.201 28.1675 174.338 28.097C174.409 28.0604 174.481 28.0261 174.553 27.9935C174.569 27.9865 174.639 27.9584 174.558 27.9913C174.604 27.9725 174.651 27.9543 174.699 27.9368C175.014 27.8242 175.34 27.7426 175.671 27.6932C175.81 27.6711 175.57 27.7023 175.71 27.6884C175.751 27.6842 175.792 27.6791 175.835 27.6751C175.918 27.6673 176 27.6612 176.083 27.6569C176.246 27.6483 176.41 27.6462 176.573 27.6506C176.731 27.6546 176.888 27.6643 177.045 27.6797C177.079 27.6832 177.313 27.7129 177.18 27.6937C177.252 27.7041 177.325 27.715 177.397 27.7276C177.658 27.7721 177.915 27.8345 178.167 27.9145C178.76 28.1042 179.014 27.1717 178.424 26.9828L178.424 26.984Z" fill="#F3CA52"/>
<path d="M86.1664 9.26359C87.3988 8.82063 88.6843 9.71632 89.2641 10.8131C89.8348 11.8942 89.7018 13.4384 88.5849 14.13C88.1103 14.4239 87.4457 14.5225 87.0317 14.1453C86.6 13.7518 86.6264 13.2617 87.0531 12.8682C87.153 12.7787 87.2619 12.6996 87.378 12.6324C87.4455 12.5916 87.5146 12.553 87.5852 12.5176C87.611 12.5046 87.6372 12.4922 87.6634 12.4799C87.735 12.4468 87.5592 12.5176 87.6891 12.4692C87.7935 12.4298 87.9001 12.3966 88.0084 12.3698C88.0598 12.3574 88.1116 12.3464 88.1638 12.3367C88.194 12.331 88.2241 12.3261 88.2543 12.3212C88.1549 12.337 88.3023 12.3168 88.3098 12.3161C88.5552 12.2935 88.8024 12.2976 89.0469 12.3284C89.1288 12.3386 88.9817 12.3178 89.0635 12.3314C89.0956 12.3368 89.1279 12.3421 89.1599 12.3479C89.2162 12.3583 89.2723 12.3701 89.3282 12.3832C89.4647 12.4152 89.5993 12.4546 89.7314 12.5013C89.769 12.5146 89.8827 12.5581 89.882 12.5578C89.8418 12.5412 89.9165 12.5734 89.9151 12.5729C89.9453 12.5866 89.9754 12.6007 90.0053 12.6153C90.1321 12.6768 90.2553 12.7458 90.374 12.8219C90.5775 12.9504 90.7616 13.1074 90.9207 13.288C91.077 13.4635 91.2067 13.6611 91.3053 13.8744C91.3249 13.9137 91.3415 13.9544 91.355 13.9962C91.3845 14.0777 91.4105 14.1607 91.4344 14.2447C91.4872 14.4246 91.5268 14.6082 91.5528 14.794C91.6373 15.4771 91.5284 16.1701 91.2384 16.7944C90.9485 17.4186 90.4892 17.9489 89.9128 18.3251C89.6829 18.4689 89.422 18.5558 89.1518 18.5786C88.8815 18.6014 88.6098 18.5595 88.359 18.4563C88.2895 18.4228 88.2227 18.384 88.1592 18.3403C88.083 18.2893 88.195 18.3761 88.1511 18.3352C88.1397 18.3246 88.1279 18.3143 88.117 18.3031C88.1025 18.288 88.0896 18.2722 88.0759 18.257C88.2018 18.3962 88.0904 18.2828 88.0982 18.2794C88.0873 18.262 88.0775 18.2439 88.0687 18.2254C88.0958 18.2673 88.0898 18.3092 88.0772 18.2393C88.074 18.2227 88.0469 18.0821 88.0557 18.1613C88.0638 18.2356 88.0575 18.1142 88.057 18.0902C88.0565 18.0662 88.0603 18.0431 88.061 18.0195C88.061 18.0378 88.0366 18.1243 88.059 18.0387C88.0739 17.9818 88.0847 17.925 88.1029 17.8689C88.1122 17.8405 88.1615 17.7277 88.1232 17.8092C88.1486 17.7551 88.1763 17.7022 88.2061 17.6505C88.238 17.5955 88.2723 17.5424 88.3098 17.4905C88.3136 17.4851 88.3636 17.4203 88.3263 17.4682C88.348 17.4408 88.3709 17.4143 88.3939 17.3883C88.5939 17.1638 88.8276 16.9718 89.0867 16.8191C89.1664 16.7711 89.2474 16.7249 89.3304 16.6829C89.3584 16.6687 89.4884 16.6134 89.3824 16.6551C89.4841 16.615 89.5881 16.5808 89.6938 16.5527C89.9076 16.4888 90.13 16.4584 90.3531 16.4628C90.4792 16.4609 90.6053 16.4656 90.7308 16.4769C90.7733 16.4778 90.8155 16.4833 90.8567 16.4934C90.9331 16.5075 91.0091 16.5233 91.0845 16.5431C91.3358 16.6005 91.5727 16.709 91.7802 16.8619C92.1629 17.1714 92.4323 17.5989 92.5466 18.0776C92.6762 18.5764 92.6881 19.0986 92.5812 19.6028C92.4815 20.1015 92.263 20.5687 91.9442 20.965C91.7826 21.1612 91.5925 21.332 91.38 21.4717C90.8612 21.8101 91.3449 22.6479 91.8677 22.3061C93.0647 21.525 93.7065 20.0602 93.6121 18.6483C93.5781 17.9321 93.3371 17.241 92.9185 16.6589C92.4667 16.0639 91.8015 15.6676 91.0631 15.5535C89.67 15.3251 88.1807 15.8802 87.4093 17.1031C87.104 17.5868 86.9526 18.2482 87.2645 18.7672C87.6604 19.4257 88.6166 19.6121 89.3208 19.5253C90.187 19.4191 90.9001 18.8958 91.4428 18.2313C92.0454 17.5223 92.4234 16.65 92.5285 15.7255C92.6231 14.8651 92.4593 13.9961 92.0581 13.2292C91.7206 12.643 91.2238 12.1645 90.6255 11.8491C89.4805 11.2337 87.9992 11.1153 86.8633 11.8134C86.1201 12.2701 85.538 13.0755 85.8168 13.9818C85.949 14.3896 86.2092 14.7439 86.5589 14.992C86.9086 15.24 87.329 15.3685 87.7577 15.3584C89.5964 15.3272 90.7548 13.4036 90.5407 11.714C90.3178 9.96133 88.8841 8.39125 87.099 8.19279C86.6971 8.14824 86.2903 8.19542 85.9093 8.33078C85.7875 8.36765 85.6846 8.4499 85.6218 8.56053C85.559 8.67117 85.5411 8.80171 85.5718 8.92515C85.6069 9.0481 85.6888 9.15236 85.8 9.21547C85.9112 9.27859 86.0427 9.29551 86.1662 9.26259L86.1664 9.26359Z" fill="#F3CA52"/>
<path d="M139.848 22.1837C141.256 22.0513 142.579 21.4536 143.609 20.4849C144.201 19.9079 144.613 19.1723 144.796 18.3665C145.025 17.3706 144.934 16.1886 144.364 15.3217C144.097 14.9348 143.747 14.6131 143.339 14.3808C142.931 14.1484 142.475 14.0114 142.006 13.9799C141.111 13.942 139.967 14.3389 139.583 15.2212C139.275 15.9269 139.656 16.7643 140.264 17.1747C141.229 17.8259 142.489 17.6757 143.445 17.0889C143.964 16.754 144.411 16.3176 144.757 15.806C145.104 15.2944 145.344 14.718 145.463 14.1115C145.672 13.0383 145.546 11.707 144.734 10.9034C144.549 10.7195 144.204 10.795 144.055 10.9832C143.978 11.085 143.944 11.2123 143.959 11.3388C143.974 11.4653 144.037 11.5812 144.135 11.6624C144.062 11.5907 144.169 11.7056 144.174 11.7121C144.194 11.7381 144.214 11.7649 144.233 11.7921C144.269 11.8412 144.3 11.894 144.324 11.9497C144.403 12.1193 144.463 12.2971 144.504 12.4798C144.583 12.868 144.6 13.2663 144.554 13.6599C144.451 14.5188 144.044 15.3127 143.408 15.8987C142.807 16.4454 141.986 16.8154 141.181 16.5603C141.018 16.515 140.868 16.4347 140.74 16.3249C140.715 16.3044 140.691 16.283 140.668 16.2608C140.742 16.3319 140.644 16.2323 140.636 16.2221C140.618 16.2 140.601 16.1779 140.585 16.1558C140.568 16.1326 140.484 15.9835 140.547 16.1061C140.505 16.0233 140.486 15.9171 140.441 15.8389C140.444 15.8434 140.455 15.952 140.446 15.853C140.437 15.803 140.435 15.7522 140.44 15.7017C140.463 15.5419 140.431 15.7175 140.459 15.6318C140.463 15.6202 140.512 15.5184 140.483 15.5699C140.507 15.5325 140.533 15.4967 140.561 15.4625C140.572 15.4475 140.648 15.3668 140.591 15.4224C140.709 15.3143 140.843 15.2238 140.987 15.1538C141.277 14.9978 141.604 14.9234 141.933 14.9384C141.865 14.9359 141.97 14.9429 141.986 14.9447C142.028 14.9495 142.07 14.9531 142.111 14.9593C142.196 14.971 142.279 14.9876 142.361 15.009C142.304 14.9939 142.386 15.0168 142.391 15.0183C142.441 15.0348 142.491 15.0514 142.538 15.0714C142.629 15.1079 142.717 15.149 142.803 15.1945C143.115 15.3637 143.382 15.6034 143.584 15.8946C144.019 16.5572 144.009 17.4867 143.84 18.221C143.82 18.31 143.807 18.3536 143.794 18.3991C143.768 18.4786 143.74 18.5571 143.71 18.6347C143.65 18.7854 143.58 18.9321 143.502 19.0738C143.426 19.21 143.551 18.9993 143.468 19.1303C143.451 19.157 143.434 19.1835 143.417 19.2098C143.374 19.2751 143.328 19.339 143.281 19.4017C143.178 19.5376 143.067 19.6671 142.948 19.7891C142.926 19.8112 142.904 19.833 142.882 19.8544C142.955 19.7838 142.839 19.893 142.824 19.9061C142.762 19.9621 142.698 20.0163 142.632 20.0689C142.49 20.1826 142.342 20.2885 142.189 20.3861C142.119 20.4307 142.048 20.4723 141.977 20.5145C141.956 20.5269 141.869 20.5753 141.954 20.5288C141.915 20.5501 141.876 20.5707 141.836 20.5911C141.681 20.6708 141.522 20.7438 141.36 20.8101C141.073 20.9259 140.78 21.0227 140.48 21.0999C140.454 21.1069 140.366 21.1263 140.471 21.1026C140.435 21.1109 140.398 21.1192 140.361 21.1271C140.29 21.1424 140.218 21.1561 140.146 21.1687C140.013 21.1919 139.88 21.2101 139.745 21.2232C139.125 21.2847 139.227 22.2456 139.846 22.184L139.848 22.1837Z" fill="#F3CA52"/>
<path d="M99.9199 -0.000636388L98.3872 0.984863L100.721 4.6149L102.254 3.6294L99.9199 -0.000636388Z" fill="#F3CA52"/>
<path d="M130.203 31.7416L127.567 35.7214L129.087 36.7277L131.723 32.7478L130.203 31.7416Z" fill="#F3CA52"/>
<path d="M44.8682 11.6623L42.5581 15.1987L44.0837 16.1953L46.3938 12.6589L44.8682 11.6623Z" fill="#F3CA52"/>
<path d="M189.73 48.0179L187.961 48.4546L189.092 53.0353L190.861 52.5985L189.73 48.0179Z" fill="#F3CA52"/>
<path d="M193.377 11.6444L191.877 12.6785L194.657 16.7117L196.157 15.6777L193.377 11.6444Z" fill="#F3CA52"/>
<path d="M60.0297 29.7923L56.623 33.8257L58.0151 35.0015L61.4218 30.9681L60.0297 29.7923Z" fill="#F3CA52"/>
<path d="M87.9978 58.9658L84.7056 62.3456L86.0109 63.6171L89.303 60.2373L87.9978 58.9658Z" fill="#F3CA52"/>
<path d="M158.935 54.6543L157.402 55.6398L159.736 59.2698L161.269 58.2843L158.935 54.6543Z" fill="#F3CA52"/>
<path d="M200.805 29.8141C201.181 27.3798 200.436 25.7302 199.249 24.7119C198.078 23.7075 194.138 22.4124 192.177 25.1626C190.898 26.9572 191.193 27.7073 190.462 30.7717C189.731 33.8362 188.595 34.005 186.95 37.6098C185.658 40.4374 190.282 42.7039 194.501 43.174C198.72 43.6441 201.516 43.0981 202.145 40.4622C203.047 36.6796 200.066 34.5844 200.805 29.8141Z" fill="#0F1011"/>
<path d="M197.331 36.1937C197.331 36.1937 196.168 35.328 196.98 31.9237L194.438 31.037C194.438 31.037 194.258 34.1732 192.784 34.9514L197.331 36.1937Z" fill="#E98862"/>
<g opacity="0.15">
<path d="M193.419 34.3873L195.847 33.0586L194.143 32.7788C194.004 33.3554 193.758 33.9009 193.419 34.3873Z" fill="black"/>
</g>
<path d="M198.669 30.8146C198.328 31.8329 197.605 32.7362 196.63 32.9318C195.563 33.1766 194.452 33.1566 193.395 32.8735C190.567 32.199 192.133 25.7744 193.687 24.7185C195.241 23.6626 199.108 25.0762 199.269 27.2661C199.352 28.3987 198.995 29.8455 198.669 30.8146Z" fill="#E98862"/>
<path d="M194.733 29.3828C194.865 29.3828 194.973 29.2753 194.973 29.1427C194.973 29.0102 194.865 28.9027 194.733 28.9027C194.6 28.9027 194.493 29.0102 194.493 29.1427C194.493 29.2753 194.6 29.3828 194.733 29.3828Z" fill="#0F1011"/>
<path d="M192.885 28.9417C193.017 28.9417 193.125 28.8343 193.125 28.7017C193.125 28.5691 193.017 28.4617 192.885 28.4617C192.752 28.4617 192.645 28.5691 192.645 28.7017C192.645 28.8343 192.752 28.9417 192.885 28.9417Z" fill="#0F1011"/>
<path d="M193.198 28.223C193.193 28.2231 193.187 28.2227 193.182 28.2218L192.552 28.1332C192.537 28.1316 192.523 28.127 192.509 28.1197C192.496 28.1123 192.484 28.1024 192.475 28.0905C192.466 28.0786 192.459 28.0649 192.455 28.0502C192.451 28.0356 192.45 28.0203 192.452 28.0053C192.454 27.9904 192.459 27.9759 192.467 27.963C192.475 27.95 192.485 27.9387 192.498 27.9298C192.51 27.9209 192.524 27.9145 192.539 27.9111C192.553 27.9077 192.569 27.9073 192.584 27.9099L193.213 27.9985C193.241 28.0026 193.267 28.0172 193.285 28.0393C193.303 28.0615 193.311 28.0896 193.309 28.118C193.307 28.1464 193.295 28.173 193.274 28.1925C193.253 28.212 193.226 28.2229 193.197 28.223H193.198Z" fill="#0F1011"/>
<path d="M195.328 28.7927C195.313 28.7927 195.299 28.7898 195.285 28.7842L194.689 28.54C194.675 28.5347 194.662 28.5266 194.651 28.5162C194.64 28.5058 194.632 28.4933 194.626 28.4795C194.62 28.4657 194.616 28.4508 194.616 28.4358C194.616 28.4207 194.619 28.4058 194.625 28.3918C194.63 28.3779 194.639 28.3653 194.649 28.3546C194.66 28.344 194.673 28.3356 194.687 28.33C194.701 28.3244 194.716 28.3216 194.731 28.3218C194.746 28.322 194.761 28.3253 194.774 28.3313L195.371 28.5756C195.395 28.5855 195.415 28.6035 195.427 28.6265C195.44 28.6495 195.444 28.6761 195.439 28.7018C195.434 28.7274 195.42 28.7505 195.4 28.7671C195.38 28.7837 195.354 28.7927 195.328 28.7927Z" fill="#0F1011"/>
<path d="M194.336 30.994C194.336 30.994 193.446 30.952 192.865 30.6432C192.865 30.6432 192.781 31.2208 193.466 31.384C194.15 31.5472 194.336 30.994 194.336 30.994Z" fill="white"/>
<path d="M197.158 27.8086C196.608 30.2336 196.498 32.7377 196.832 35.2017C196.832 35.2017 199.36 32.068 200.112 29.2497C200.817 26.6078 199.08 24.7175 197.789 24.2137C192.88 22.2965 191.993 25.9506 191.993 25.9506C192.139 27.262 197.571 28.8456 197.571 28.8456" fill="#0F1011"/>
<path d="M195.774 30.3491C195.741 30.4797 195.734 30.6155 195.755 30.7487C195.775 30.8818 195.821 31.0096 195.891 31.1247C195.961 31.2398 196.053 31.3399 196.161 31.4192C196.27 31.4985 196.394 31.5554 196.525 31.5867C196.656 31.6179 196.792 31.6228 196.924 31.6012C197.057 31.5795 197.185 31.5317 197.299 31.4605C197.413 31.3893 197.512 31.2962 197.59 31.1864C197.668 31.0767 197.724 30.9526 197.753 30.8213C197.787 30.6912 197.794 30.5557 197.773 30.423C197.753 30.2902 197.707 30.1629 197.636 30.0485C197.566 29.9341 197.474 29.835 197.364 29.7572C197.255 29.6794 197.131 29.6243 197 29.5954C196.286 29.4619 195.904 29.8025 195.774 30.3491Z" fill="#E98862"/>
<g opacity="0.15">
<path d="M193.491 30.2983C193.478 30.2983 193.466 30.2955 193.454 30.29L192.91 30.027C192.9 30.0218 192.89 30.0145 192.883 30.0055C192.875 29.9965 192.87 29.986 192.867 29.9747C192.864 29.9634 192.863 29.9516 192.865 29.94C192.866 29.9284 192.871 29.9173 192.877 29.9075L193.381 29.1289C193.393 29.1105 193.412 29.0975 193.433 29.0929C193.455 29.0883 193.477 29.0924 193.496 29.1043C193.514 29.1163 193.527 29.135 193.532 29.1565C193.536 29.178 193.532 29.2004 193.52 29.2189L193.067 29.9188L193.527 30.1411C193.544 30.1493 193.557 30.1629 193.566 30.1798C193.574 30.1967 193.576 30.2159 193.572 30.2342C193.567 30.2524 193.557 30.2687 193.542 30.2804C193.528 30.2921 193.51 30.2985 193.491 30.2985L193.491 30.2983Z" fill="black"/>
</g>
<path d="M217.47 73.2579L203.406 75.8211C202.989 75.8972 202.559 75.8531 202.167 75.694C201.774 75.5349 201.435 75.2674 201.189 74.9228L201.083 74.7737L194.865 66.0456L200.414 62.842L204.289 71.3348L216.956 69.8178L217.47 73.2579Z" fill="#E98862"/>
<path d="M220.077 77.099C220.099 77.19 220.102 77.2845 220.086 77.3766C220.069 77.4687 220.034 77.5566 219.983 77.6346C219.931 77.7126 219.864 77.7791 219.785 77.83C219.707 77.8808 219.619 77.915 219.526 77.9303C219.398 77.9514 219.267 77.9355 219.148 77.8845C219.029 77.8336 218.927 77.7496 218.853 77.6425L216.567 74.0357C216.523 73.9658 216.495 73.8872 216.484 73.8053C216.474 73.7233 216.481 73.6401 216.505 73.5611C216.747 72.9282 216.779 72.2344 216.597 71.5817C216.435 71.0785 216.134 70.6312 215.729 70.2908C215.69 70.2617 215.66 70.2221 215.643 70.1766C215.626 70.1312 215.622 70.0818 215.632 70.0342C215.641 69.9866 215.665 69.9427 215.698 69.9077C215.732 69.8728 215.775 69.8481 215.822 69.8367L217.745 69.3628C217.801 69.3488 217.86 69.3461 217.918 69.355C217.976 69.3638 218.031 69.384 218.081 69.4143C218.131 69.4446 218.175 69.4845 218.209 69.5317C218.243 69.5788 218.268 69.6323 218.282 69.6891L220.077 77.099Z" fill="#B3D0C6"/>
<path d="M186.926 77.2577L192.023 96.9107L188.685 97.8909L182.348 78.621L186.926 77.2577Z" fill="#E98862"/>
<path d="M185.072 100.751C184.983 100.782 184.889 100.793 184.796 100.785C184.702 100.778 184.612 100.751 184.529 100.706C184.447 100.662 184.374 100.601 184.317 100.527C184.259 100.453 184.217 100.368 184.194 100.278C184.161 100.152 184.165 100.02 184.205 99.897C184.245 99.7737 184.32 99.6645 184.42 99.5821L187.807 96.9813C187.873 96.9312 187.949 96.8959 188.029 96.8778C188.11 96.8597 188.193 96.8592 188.274 96.8764C188.926 97.0606 189.62 97.0306 190.254 96.7909C190.74 96.5839 191.159 96.2443 191.462 95.8108C191.487 95.7694 191.524 95.7361 191.568 95.7148C191.611 95.6936 191.66 95.6851 191.708 95.6906C191.757 95.696 191.802 95.7151 191.84 95.7455C191.878 95.776 191.907 95.8166 191.922 95.8626L192.567 97.7345C192.586 97.7897 192.594 97.8482 192.59 97.9065C192.586 97.9648 192.571 98.0218 192.546 98.0742C192.52 98.1267 192.484 98.1735 192.44 98.2121C192.396 98.2506 192.345 98.2801 192.29 98.2989L185.072 100.751Z" fill="#B3D0C6"/>
<path d="M185.569 51.9546C185.569 51.9546 181.193 66.0528 179.997 70.0773C177.29 79.1807 182.348 85.9777 182.348 85.9777C182.348 85.9777 189.19 86.9535 192.592 82.4207C198.883 74.0371 206.936 79.8719 207.281 70.5799C202.701 69.7156 197.563 53.109 197.563 53.109L185.569 51.9546Z" fill="#3A3A3A"/>
<path d="M34.6387 37.5581C34.6387 37.5581 35.8846 36.8168 35.4274 33.3469L38.0465 32.7266C38.0465 32.7266 37.9034 35.8647 39.2889 36.7906L34.6387 37.5581Z" fill="#E98862"/>
<g opacity="0.15">
<path d="M38.7158 36.1642L36.437 34.5925L38.1608 34.4896C38.2398 35.0775 38.428 35.6455 38.7158 36.1642Z" fill="black"/>
</g>
<path d="M33.8614 32.0698C34.0964 33.1177 34.7228 34.0908 35.6716 34.3858C36.7981 34.7365 37.6196 34.7236 38.8958 34.6608C40.6372 34.575 40.4902 32.7618 40.449 30.9291C40.4076 29.0892 40.1644 27.1255 39.4446 26.519C38.0079 25.3086 34.0156 26.3166 33.6301 28.4784C33.4312 29.5964 33.6376 31.0722 33.8614 32.0698Z" fill="#E98862"/>
<path d="M41.215 27.4966C41.215 27.4966 41.9203 27.3023 41.6899 26.6008C41.5373 26.1354 40.9382 26.2694 40.9382 26.2694C40.9382 26.2694 41.5052 26.1369 41.4805 25.6371C41.4651 25.3224 41.1971 24.8011 40.4825 25.1418C39.6441 25.5416 38.6655 25.5437 37.9171 25.4554C37.4926 25.3842 37.0633 25.345 36.633 25.3381H36.6308C36.1372 25.3538 35.6488 25.4437 35.182 25.605C33.8746 26.0673 31.925 27.356 32.4848 30.0323C33.1095 33.0192 34.5788 34.101 35.2181 34.4387C35.2559 34.4591 35.2979 34.4706 35.3409 34.4723C35.3838 34.474 35.4266 34.466 35.466 34.4487C35.5053 34.4315 35.5403 34.4055 35.5681 34.3728C35.596 34.3401 35.616 34.3014 35.6268 34.2598C35.7759 33.687 36.0094 32.2524 35.78 29.3294C39.849 28.9285 41.0195 28.8101 41.0195 28.8101C41.0195 28.8101 41.9815 28.7987 41.9472 28.0978C41.9129 27.3969 41.215 27.4966 41.215 27.4966Z" fill="#0F1011"/>
<path d="M37.9485 31.0521C38.0811 31.0521 38.1886 30.9446 38.1886 30.8121C38.1886 30.6795 38.0811 30.572 37.9485 30.572C37.816 30.572 37.7085 30.6795 37.7085 30.8121C37.7085 30.9446 37.816 31.0521 37.9485 31.0521Z" fill="#0F1011"/>
<path d="M39.8323 30.8039C39.9649 30.8039 40.0724 30.6965 40.0724 30.5639C40.0724 30.4313 39.9649 30.3239 39.8323 30.3239C39.6998 30.3239 39.5923 30.4313 39.5923 30.5639C39.5923 30.6965 39.6998 30.8039 39.8323 30.8039Z" fill="#0F1011"/>
<path d="M39.5818 30.0559C39.5525 30.0554 39.5246 30.0436 39.5039 30.023C39.4831 30.0023 39.4713 29.9744 39.4707 29.9451C39.4702 29.9159 39.481 29.8876 39.501 29.8661C39.5209 29.8447 39.5484 29.8319 39.5776 29.8304L40.2131 29.807C40.2428 29.8063 40.2716 29.8173 40.2932 29.8376C40.3149 29.8579 40.3277 29.886 40.3287 29.9157C40.3298 29.9454 40.3192 29.9743 40.2991 29.9961C40.279 30.018 40.2511 30.0311 40.2214 30.0325L39.5859 30.0559H39.5818Z" fill="#0F1011"/>
<path d="M37.4049 30.4033C37.3778 30.4032 37.3517 30.3934 37.3312 30.3756C37.3108 30.3578 37.2975 30.3333 37.2936 30.3065C37.2898 30.2797 37.2957 30.2524 37.3103 30.2296C37.325 30.2068 37.3473 30.19 37.3733 30.1823L37.9922 30.0001C38.0207 29.9924 38.051 29.9962 38.0767 30.0107C38.1024 30.0251 38.1215 30.0491 38.1297 30.0774C38.138 30.1057 38.1349 30.1361 38.121 30.1621C38.1071 30.1882 38.0836 30.2077 38.0554 30.2166L37.4367 30.398C37.4264 30.4013 37.4157 30.4031 37.4049 30.4033Z" fill="#0F1011"/>
<path d="M36.7302 31.46C36.7498 31.5935 36.7426 31.7296 36.7091 31.8602C36.6756 31.9909 36.6165 32.1136 36.5351 32.2213C36.4538 32.3289 36.3518 32.4192 36.2352 32.4871C36.1186 32.555 35.9897 32.5989 35.8559 32.6165C35.7222 32.6341 35.5862 32.6249 35.4561 32.5895C35.3259 32.554 35.2041 32.493 35.0977 32.4101C34.9913 32.3271 34.9024 32.2239 34.8363 32.1063C34.7702 31.9887 34.7281 31.8591 34.7126 31.7251C34.6928 31.5923 34.7 31.4568 34.7336 31.3268C34.7673 31.1969 34.8267 31.075 34.9085 30.9684C34.9902 30.8619 35.0925 30.7729 35.2094 30.7067C35.3262 30.6405 35.4551 30.5985 35.5885 30.5832C36.3115 30.5247 36.6569 30.9029 36.7302 31.46Z" fill="#E98862"/>
<g opacity="0.15">
<path d="M39.0745 32.0894C39.0551 32.0893 39.0363 32.0824 39.0215 32.0699C39.0067 32.0573 38.9968 32.04 38.9934 32.0209C38.9901 32.0018 38.9935 31.9821 39.0032 31.9653C39.0129 31.9485 39.0281 31.9356 39.0463 31.9289L39.5267 31.7551L39.1484 31.0123C39.1429 31.0026 39.1394 30.9919 39.1382 30.9808C39.1369 30.9697 39.138 30.9584 39.1412 30.9477C39.1444 30.937 39.1497 30.9271 39.1569 30.9185C39.1641 30.91 39.1729 30.9029 39.1828 30.8978C39.1928 30.8928 39.2037 30.8898 39.2148 30.889C39.226 30.8882 39.2371 30.8897 39.2477 30.8934C39.2582 30.8971 39.2679 30.9028 39.2762 30.9103C39.2845 30.9179 39.2911 30.927 39.2958 30.9371L39.7169 31.7636C39.7223 31.7741 39.7254 31.7856 39.726 31.7974C39.7266 31.8091 39.7247 31.8209 39.7204 31.8319C39.7161 31.8429 39.7095 31.8528 39.701 31.861C39.6925 31.8692 39.6824 31.8756 39.6713 31.8795L39.103 32.0851C39.0938 32.0883 39.0842 32.0897 39.0745 32.0894Z" fill="black"/>
</g>
<path d="M38.1523 32.6947C38.1523 32.6947 39.0419 32.7444 39.6515 32.4971C39.6515 32.4971 39.6754 33.0802 38.978 33.1721C38.2806 33.2641 38.1523 32.6947 38.1523 32.6947Z" fill="white"/>
<path d="M44.8808 21.7411L46.641 20.875C46.641 20.875 46.612 18.3372 44.3639 17.2261C43.6185 16.8579 43.1893 17.6936 43.3438 17.9361C43.8547 18.7377 44.4372 19.4636 44.5114 20.277C44.2149 20.0524 43.7913 19.7696 43.6884 19.8993C43.4182 20.2406 44.8808 21.7411 44.8808 21.7411Z" fill="#E98862"/>
<path d="M15.6852 73.7485C15.584 73.7233 15.2758 73.6463 12.3721 72.5425L13.6082 69.2909C14.8388 69.7585 16.32 70.3095 16.5668 70.3842C16.5511 70.3794 16.5378 70.3763 16.5275 70.3736L15.6852 73.7485Z" fill="#E98862"/>
<path d="M9.87801 76.3428C9.85195 76.4327 9.84469 76.527 9.8567 76.6197C9.86872 76.7125 9.89973 76.8018 9.94782 76.8821C9.9959 76.9623 10.06 77.0318 10.1362 77.0861C10.2123 77.1405 10.2989 77.1786 10.3904 77.1979C10.5172 77.2249 10.6491 77.215 10.7705 77.1695C10.8919 77.124 10.9978 77.0447 11.0757 76.941L13.5223 73.4414C13.5694 73.3735 13.6012 73.2962 13.6157 73.2148C13.6302 73.1335 13.627 73.0499 13.6062 72.9699C13.3932 72.3268 13.3922 71.6323 13.6034 70.9885C13.7886 70.4932 14.1093 70.06 14.5289 69.7382C14.5691 69.7108 14.6007 69.6726 14.62 69.628C14.6393 69.5834 14.6455 69.5343 14.6379 69.4863C14.6303 69.4383 14.6092 69.3934 14.5771 69.357C14.545 69.3205 14.5032 69.2939 14.4566 69.2803L12.5568 68.7199C12.5008 68.7034 12.4421 68.6981 12.384 68.7043C12.3259 68.7106 12.2696 68.7282 12.2184 68.7563C12.1672 68.7843 12.122 68.8222 12.0854 68.8677C12.0488 68.9133 12.0216 68.9656 12.0054 69.0217L9.87801 76.3428Z" fill="#B3D0C6"/>
<path d="M29.9093 84.6793L29.3169 81.2513C30.6145 81.027 32.1698 80.7469 32.4201 80.6853C32.4035 80.6891 32.3911 80.6931 32.381 80.6961L33.3738 84.0302C33.2739 84.06 32.9698 84.1506 29.9093 84.6793Z" fill="#E98862"/>
<path d="M29.6976 89.2202C29.721 89.3108 29.7627 89.3956 29.8203 89.4694C29.8779 89.5431 29.9501 89.6042 30.0324 89.6487C30.1146 89.6933 30.2052 89.7205 30.2984 89.7285C30.3916 89.7365 30.4855 89.7252 30.5741 89.6953C30.697 89.6539 30.8055 89.5782 30.8868 89.4772C30.9681 89.3762 31.0188 89.254 31.033 89.1251L31.3564 84.8678C31.3624 84.7853 31.3505 84.7026 31.3215 84.6252C31.2925 84.5478 31.2472 84.4776 31.1885 84.4193C30.6781 83.9741 30.3239 83.3769 30.178 82.7154C30.0852 82.1949 30.1405 81.6588 30.3377 81.1682C30.3584 81.1242 30.3662 81.0752 30.3601 81.027C30.354 80.9788 30.3343 80.9333 30.3033 80.8958C30.2723 80.8583 30.2313 80.8305 30.1851 80.8154C30.1389 80.8004 30.0893 80.7988 30.0422 80.8109L28.1226 81.2958C28.066 81.3101 28.0127 81.3354 27.9659 81.3703C27.9191 81.4053 27.8796 81.4491 27.8498 81.4993C27.82 81.5496 27.8004 81.6052 27.7921 81.663C27.7838 81.7208 27.787 81.7797 27.8016 81.8363L29.6976 89.2202Z" fill="#B3D0C6"/>
<path d="M48.7375 78.3759L48.7209 78.2358C48.2854 74.6159 45.8599 56.9693 45.5735 55.104H33.0316C33.0316 55.104 28.1514 71.0541 27.9625 71.4961L15.9726 68.9397L14.4678 74.8814L29.2293 79.2227C30.0128 79.4528 30.8521 79.4004 31.6009 79.0747C32.3497 78.7489 32.9603 78.1706 33.3261 77.4406C33.3261 77.4406 38.6852 63.7507 38.7927 63.4986L42.1012 76.5751L30.9092 79.7604L32.5871 85.6556L46.5366 81.6854C47.2371 81.4856 47.8435 81.0427 48.2468 80.4362C48.6502 79.8296 48.8242 79.0991 48.7375 78.3759Z" fill="#3A3A3A"/>
<path d="M21.6747 24.7497L19.7982 25.3217C19.7982 25.3217 18.212 23.1031 19.0921 20.7549C19.3839 19.9763 20.2683 20.2926 20.322 20.5752C20.4974 21.5093 20.4404 22.785 20.9428 23.4289C21.0056 23.0622 21.1211 22.5662 21.2849 22.5904C21.7156 22.6543 21.6747 24.7497 21.6747 24.7497Z" fill="#E98862"/>
<path d="M187.14 18.1322L185.3 17.4515C185.3 17.4515 185.069 14.9242 187.191 13.5881C187.894 13.1451 188.407 13.9323 188.278 14.1896C187.852 15.0392 187.347 15.8213 187.357 16.6379C187.629 16.384 188.021 16.0592 188.137 16.1776C188.441 16.4892 187.14 18.1322 187.14 18.1322Z" fill="#E98862"/>
<path d="M209.465 23.1334L211.424 23.2541C211.424 23.2541 212.451 20.7279 211.05 18.6481C210.586 17.959 209.798 18.4717 209.812 18.7589C209.858 19.7083 210.209 20.9358 209.871 21.6789C209.724 21.3367 209.497 20.8811 209.343 20.9428C208.939 21.1044 209.465 23.1334 209.465 23.1334Z" fill="#E98862"/>
<path d="M212.574 22.7375L210.542 33.4023C210.493 33.6577 210.39 33.8996 210.239 34.1114C210.089 34.3232 209.894 34.5 209.669 34.6297L201.954 39.0744C202.054 41.7214 199.425 44.7413 198.944 47.4996C198.348 50.9287 199.632 52.7343 199.213 54.4737C198.552 57.2088 185.228 54.2186 184.817 52.5272C184.393 50.7864 185.998 50.0358 186.856 44.7267C187.266 42.1988 187.042 39.0397 187.706 36.8581L181.517 28.9895C181.335 28.7577 181.213 28.4851 181.16 28.1952C181.108 27.9054 181.127 27.6071 181.216 27.3263L184.66 16.4924L188.102 17.5858L184.948 27.5085L190.305 34.3202C190.781 34.2533 191.263 34.2544 191.738 34.3235C191.841 34.3368 192.007 34.3617 192.22 34.3948C192.108 35.3009 197.665 36.265 197.944 35.3688C198.65 35.4841 199.332 35.7152 199.963 36.053L207.149 31.9133L209.026 22.0618L212.574 22.7375Z" fill="#0A6847"/>
<path d="M130.513 116.253C118.072 110.669 116.895 88.1201 117.478 85.9778C117.693 85.1855 117.314 84.9801 116.752 85.0349C116.001 84.9476 114.607 85.6532 114.154 85.8963C113.7 85.6528 112.307 84.9473 111.556 85.0349C110.993 84.9801 110.614 85.1855 110.83 85.9778C111.412 88.1201 110.235 110.669 97.7945 116.253C95.1806 117.426 96.0809 118.823 96.0809 118.823H132.227C132.227 118.823 133.127 117.426 130.513 116.253Z" fill="#F3CA52"/>
<g opacity="0.09">
<path d="M132.226 118.824H129.907C129.907 118.824 130.808 117.426 128.194 116.253C115.753 110.669 116.232 88.1204 116.815 85.9784C116.984 85.3556 116.785 85.0955 116.417 85.0392C116.528 85.0257 116.64 85.0246 116.75 85.0359C117.314 84.9812 117.693 85.1866 117.478 85.9784C116.895 88.1204 118.072 110.669 130.513 116.253C133.128 117.426 132.226 118.824 132.226 118.824Z" fill="black"/>
</g>
<path d="M163.868 58.1531C160.245 63.787 155.862 65.3607 150.97 66.7489C146.161 68.1139 142.008 69.2917 139.379 73.7164C138.736 74.7667 138.26 75.9107 137.968 77.1073V77.1106C137.9 77.3966 137.847 77.6859 137.809 77.9774C137.766 78.3586 137.631 78.7237 137.415 79.0415C137.232 79.3099 136.983 79.527 136.693 79.6724C136.402 79.8177 136.079 79.8865 135.755 79.8721C134.777 79.8721 134.206 79.4767 133.874 78.985C133.578 78.5323 133.458 77.9869 133.537 77.4517C133.552 77.3373 133.569 77.2225 133.588 77.1073C133.924 75.1283 134.633 73.231 135.677 71.5165C139.18 65.6175 144.819 64.0173 149.794 62.6042C154.356 61.3105 157.504 60.0879 160.245 55.824C161.608 53.7003 163.061 48.825 161.324 44.9504C159.97 41.9354 157.755 40.1679 154.742 39.6941C146.515 38.402 142.651 46.4164 142.49 46.7577C142.243 47.2645 141.808 47.6542 141.276 47.8433C140.745 48.0323 140.161 48.0056 139.65 47.7687C139.138 47.5319 138.74 47.1039 138.54 46.5767C138.341 46.0494 138.356 45.4649 138.582 44.9487C139.592 42.935 140.943 41.1113 142.575 39.5583C146.198 36.1127 150.637 34.6897 155.41 35.4401C159.826 36.1325 163.321 38.8841 165.253 43.1878C167.454 48.0945 166.199 54.5285 163.868 58.1531Z" fill="#F3CA52"/>
<path d="M64.4476 58.1531C68.0705 63.787 72.785 65.3607 77.6768 66.7489C82.4858 68.1139 86.6387 69.2917 89.2677 73.7164C89.911 74.7667 90.3871 75.9107 90.6791 77.1073V77.1106C90.7468 77.3966 90.7997 77.6859 90.8374 77.9774C90.8812 78.3586 91.0164 78.7237 91.2315 79.0415C91.4148 79.3099 91.6635 79.527 91.9541 79.6724C92.2447 79.8177 92.5676 79.8865 92.8922 79.8721C93.8696 79.8721 94.4409 79.4767 94.7729 78.985C95.0688 78.5323 95.1888 77.9869 95.11 77.4517C95.0947 77.3373 95.0777 77.2225 95.059 77.1073C94.7229 75.1283 94.014 73.231 92.9701 71.5165C89.4665 65.6175 83.8276 64.0173 78.853 62.6042C74.2908 61.3105 70.8121 60.0879 68.0705 55.824C66.7071 53.7003 65.5856 48.825 67.3234 44.9504C68.6768 41.9354 70.8916 40.1679 73.9048 39.6941C82.1313 38.402 85.996 46.4164 86.1567 46.7577C86.4036 47.2645 86.8394 47.6542 87.3705 47.8433C87.9016 48.0323 88.4857 48.0056 88.9973 47.7687C89.5089 47.5319 89.9073 47.1039 90.1068 46.5767C90.3063 46.0494 90.2911 45.4649 90.0645 44.9487C89.0547 42.935 87.704 41.1113 86.0722 39.5583C82.4493 36.1127 78.0098 34.6897 73.2372 35.4401C68.8209 36.1325 65.3256 38.8841 63.394 43.1878C61.193 48.0945 62.1168 54.5285 64.4476 58.1531Z" fill="#F3CA52"/>
<path d="M141.714 32.8432C141.63 32.0994 141.274 31.4127 140.715 30.9143C140.156 30.4159 139.434 30.1405 138.685 30.1407H89.9175C89.1688 30.1405 88.4462 30.4159 87.8875 30.9143C87.3288 31.4127 86.9731 32.0994 86.8882 32.8432C86.1036 39.7771 84.7015 58.3707 90.6636 68.6297C98.0896 81.408 109.36 85.9778 111.787 85.9778H116.814C119.242 85.9778 130.512 81.408 137.938 68.6297C143.901 58.371 142.499 39.7771 141.714 32.8432Z" fill="#F3CA52"/>
<g opacity="0.09">
<path d="M141.714 32.8432C141.629 32.0994 141.274 31.4127 140.715 30.9143C140.156 30.4159 139.434 30.1405 138.685 30.1407H128.916C128.916 30.1407 130.577 55.6402 127.468 68.4183C124.359 81.1965 116.728 85.9778 116.815 85.9778C119.243 85.9778 130.513 81.408 137.939 68.6297C143.901 58.371 142.499 39.7771 141.714 32.8432Z" fill="black"/>
</g>
<path d="M132.227 118.823H96.0967V127.457H132.227V118.823Z" fill="#0F1011"/>
<path d="M134.428 127.457H93.8955V129.534H134.428V127.457Z" fill="#0F1011"/>
<path d="M136.511 129.534H91.8125V131.61H136.511V129.534Z" fill="#0F1011"/>
<path d="M121.849 62.7579L114.273 58.7737L106.691 62.7579L108.142 54.3231L102.011 48.3474L110.482 47.1192L114.273 39.4431L118.055 47.1192L126.529 48.3474L120.398 54.3231L121.849 62.7579Z" fill="white"/>
<path d="M51.1983 29.3145L47.1858 19.869L43.8614 21.2812L47.4344 29.6924L41.885 36.1277C41.4126 36.0397 40.9302 36.019 40.4521 36.0661C40.3494 36.0744 40.1837 36.0926 39.9684 36.1158C39.8489 36.1292 39.7108 36.1453 39.5628 36.1625L39.3586 35.0793L33.9051 35.8146L34.0556 36.8543C32.8873 37.0287 31.9175 37.4475 31.246 38.0083L23.4704 33.8086L22.206 23.9877L18.6235 24.4491L20.0063 35.1883C20.0429 35.4725 20.1467 35.7439 20.3089 35.9801C20.4712 36.2163 20.6873 36.4105 20.9394 36.5467L30.0859 41.486C30.4687 43.8617 32.3527 46.5158 32.6577 48.9042C33.0983 52.3565 31.735 54.1025 32.0746 55.8584C32.6113 58.6197 46.0559 56.2361 46.5429 54.5663C47.0448 52.8435 45.4761 52.0233 44.8582 46.6795C44.5638 44.1367 44.9307 40.9902 44.3657 38.7812L50.9036 31.2C51.1239 30.9446 51.2683 30.6326 51.3204 30.2994C51.3725 29.9661 51.3302 29.6249 51.1983 29.3145Z" fill="#0A6847"/>
<path d="M197.943 35.3687C197.665 36.2649 195.838 37.5471 193.853 37.065C192.366 36.7055 192.107 35.3008 192.22 34.3947C193.375 34.5769 195.961 35.0225 197.938 35.367C197.939 35.3669 197.94 35.367 197.941 35.3673C197.942 35.3676 197.943 35.3681 197.943 35.3687Z" fill="#E98862"/>
</g>
<defs>
<clipPath id="clip0_589_13082">
<rect width="232" height="131.61" fill="white"/>
</clipPath>
</defs>
</svg>
