<svg width="176" height="139" viewBox="0 0 176 139" fill="none" xmlns="http://www.w3.org/2000/svg">
<path d="M41.9761 86.6011H40.1643V119.456H41.9761V86.6011Z" fill="#F3F5FD"/>
<path d="M40.0547 64.4302C45.8913 64.4302 50.6227 59.6975 50.6227 53.8595C50.6227 48.0214 45.8913 43.2887 40.0547 43.2887C34.2182 43.2887 29.4867 48.0214 29.4867 53.8595C29.4867 59.6975 34.2182 64.4302 40.0547 64.4302Z" fill="#F3F5FD"/>
<path d="M46.227 93.9112C51.4391 93.9112 55.6643 89.6848 55.6643 84.4714C55.6643 79.2579 51.4391 75.0316 46.227 75.0316C41.0149 75.0316 36.7897 79.2579 36.7897 84.4714C36.7897 89.6848 41.0149 93.9112 46.227 93.9112Z" fill="#F3F5FD"/>
<path d="M34.9793 94.5496C40.5439 94.5496 45.0548 90.0374 45.0548 84.4714C45.0548 78.9054 40.5439 74.3933 34.9793 74.3933C29.4148 74.3933 24.9038 78.9054 24.9038 84.4714C24.9038 90.0374 29.4148 94.5496 34.9793 94.5496Z" fill="#F3F5FD"/>
<path d="M47.5363 72.9021C52.2141 72.9021 56.0063 69.109 56.0063 64.4299C56.0063 59.7508 52.2141 55.9576 47.5363 55.9576C42.8584 55.9576 39.0662 59.7508 39.0662 64.4299C39.0662 69.109 42.8584 72.9021 47.5363 72.9021Z" fill="#F3F5FD"/>
<path d="M41.0701 77.9921C45.7479 77.9921 49.5401 74.1989 49.5401 69.5198C49.5401 64.8408 45.7479 61.0476 41.0701 61.0476C36.3922 61.0476 32.6 64.8408 32.6 69.5198C32.6 74.1989 36.3922 77.9921 41.0701 77.9921Z" fill="#F3F5FD"/>
<path d="M51.1599 81.3746C55.8377 81.3746 59.6299 77.5815 59.6299 72.9024C59.6299 68.2233 55.8377 64.4302 51.1599 64.4302C46.482 64.4302 42.6898 68.2233 42.6898 72.9024C42.6898 77.5815 46.482 81.3746 51.1599 81.3746Z" fill="#F3F5FD"/>
<path d="M30.5962 72.6011C35.2741 72.6011 39.0662 68.8079 39.0662 64.1289C39.0662 59.4498 35.2741 55.6566 30.5962 55.6566C25.9183 55.6566 22.1262 59.4498 22.1262 64.1289C22.1262 68.8079 25.9183 72.6011 30.5962 72.6011Z" fill="#F3F5FD"/>
<path d="M30.5962 83.1128C35.2741 83.1128 39.0662 79.3197 39.0662 74.6406C39.0662 69.9615 35.2741 66.1683 30.5962 66.1683C25.9183 66.1683 22.1262 69.9615 22.1262 74.6406C22.1262 79.3197 25.9183 83.1128 30.5962 83.1128Z" fill="#F3F5FD"/>
<path d="M114.827 138.547H175.333C178.651 128.611 168.68 123.711 165.51 130.149C167.401 126.308 167.904 121.44 163.976 118.306C159.86 115.821 154.904 118.661 154.146 123.155C155.155 117.172 150.348 111.208 144.998 109.852C131.267 106.375 128.206 121.959 129.45 124.409C125.822 117.27 110.828 126.082 114.827 138.547Z" fill="#FAEABA"/>
<path d="M5.72359 138.547H66.9011C70.2194 128.611 60.2486 123.711 57.0785 130.15C58.9694 126.309 59.4725 121.44 55.5446 118.306C51.4283 115.822 46.4727 118.662 45.7141 123.155C46.7234 117.172 41.9163 111.209 36.5664 109.853C22.8354 106.376 19.7742 121.96 21.0195 124.41C13.2153 119.878 5.72359 125.762 5.72359 138.547Z" fill="#FAEABA"/>
<path d="M93.3629 138.547H129.977C132.663 136.172 132.848 130.821 130.064 128.432C127.919 126.59 124.675 127.083 122.658 128.998C123.035 127.572 123.042 126.057 122.679 124.627C122.024 122.051 120.566 119.434 118.34 118.392C112.66 115.736 108.624 121.3 107.815 124.411C106.361 122.042 103.108 120.789 101.066 122.384C98.479 124.405 98.596 127.59 100.66 129.876C97.9113 129.308 95.8406 129.746 93.9337 132.015C92.4811 133.74 92.259 136.682 93.3629 138.547Z" fill="#FAEABA"/>
<path d="M96.5006 138.547H59.4554C57.4236 132.463 63.5285 129.463 65.4695 133.405C64.3117 131.054 64.0035 128.073 66.4085 126.154C68.9286 124.633 71.9628 126.372 72.4274 129.123C71.8094 125.46 74.7525 121.809 78.0282 120.979C86.4353 118.849 88.3096 128.391 87.5476 129.891C89.7679 125.52 98.9485 130.915 96.5006 138.547Z" fill="#FAEABA"/>
<path d="M43.1174 138.878H2.33463C-0.657083 136.49 -0.863131 131.109 2.23733 128.707C4.62778 126.855 8.24079 127.35 10.4873 129.276C10.0675 127.842 10.0592 126.319 10.4633 124.881C11.1936 122.289 12.8174 119.658 15.2965 118.612C21.6234 115.942 26.1195 121.536 27.0196 124.665C28.6393 122.282 32.2632 121.022 34.5375 122.627C37.4184 124.659 37.2882 127.861 34.9899 130.16C38.052 129.587 40.3584 130.029 42.4824 132.309C44.1001 134.044 44.3468 137.002 43.1174 138.878Z" fill="#F5D575"/>
<path d="M147.595 138.573H122.491C120.649 137.103 120.522 133.791 122.431 132.311C123.902 131.172 126.126 131.476 127.509 132.662C127.251 131.779 127.246 130.842 127.495 129.956C127.944 128.361 128.944 126.742 130.471 126.097C134.365 124.453 137.133 127.897 137.687 129.823C138.684 128.356 140.915 127.581 142.315 128.568C144.089 129.819 144.009 131.79 142.594 133.206C144.479 132.854 145.898 133.125 147.206 134.529C148.199 135.597 148.352 137.418 147.595 138.573Z" fill="#F5D575"/>
<path fill-rule="evenodd" clip-rule="evenodd" d="M92.2623 68.5024L95.655 138.878H95.8811H128.695L132.088 68.5024H92.2623Z" fill="#DC8070"/>
<path fill-rule="evenodd" clip-rule="evenodd" d="M132.087 68.5013H92.2621L95.2927 49.6143H128.916L132.087 68.5013Z" fill="#DC8070"/>
<path opacity="0.12" fill-rule="evenodd" clip-rule="evenodd" d="M127.563 65.3381H96.7854L98.801 52.7773H125.455L127.563 65.3381Z" fill="#312810"/>
<path d="M112.175 109.591C119.966 109.591 126.281 103.274 126.281 95.4819C126.281 87.6894 119.966 81.3724 112.175 81.3724C104.385 81.3724 98.0695 87.6894 98.0695 95.4819C98.0695 103.274 104.385 109.591 112.175 109.591Z" fill="white"/>
<path d="M44.142 10.162C44.0979 5.90566 46.3521 2.69562 48.6324 1.24746C50.8821 -0.181514 57.3652 -1.42528 60.0401 3.76191C61.7858 7.14686 61.0966 8.35685 61.5912 13.7782C62.0857 19.1996 63.9853 19.7686 65.9125 26.3399C67.4235 31.4944 58.9583 34.2307 51.6287 33.9943C44.2991 33.7578 39.6521 32.1336 39.2268 27.4714C38.6156 20.7791 44.2281 18.5031 44.142 10.162Z" fill="#1E1E1E"/>
<path d="M56.5908 20.3526L48.5091 21.3573C48.5091 21.3573 49.8138 20.6503 50.1632 17.5816C50.2691 17.1007 50.375 16.5511 50.478 15.9443C50.5781 15.3574 50.6723 14.7134 50.7496 14.0264L54.7249 13.2506C54.7249 13.2506 54.261 18.6582 56.5908 20.3526Z" fill="#E98862"/>
<g opacity="0.15">
<path d="M55.6435 19.2325L51.8184 16.3611L54.8013 16.3038C54.8972 17.324 55.1828 18.3173 55.6435 19.2325Z" fill="black"/>
</g>
<path d="M47.5464 11.8274C47.8798 13.6531 48.8931 15.3769 50.5112 15.9514C52.2754 16.6332 54.1796 16.8728 56.0576 16.6493C61.0589 16.1927 59.9645 4.81876 57.5681 2.62949C55.1716 0.440228 48.21 1.90441 47.3961 5.61054C46.9751 7.52843 47.2293 10.0895 47.5464 11.8274Z" fill="#E98862"/>
<path d="M54.6891 10.3532C54.9181 10.3532 55.1038 10.1675 55.1038 9.93846C55.1038 9.70939 54.9181 9.52368 54.6891 9.52368C54.4601 9.52368 54.2744 9.70939 54.2744 9.93846C54.2744 10.1675 54.4601 10.3532 54.6891 10.3532Z" fill="#1E1E1E"/>
<path d="M57.9581 10.0549C58.1871 10.0549 58.3728 9.8692 58.3728 9.64012C58.3728 9.41104 58.1871 9.22534 57.9581 9.22534C57.7291 9.22534 57.5434 9.41104 57.5434 9.64012C57.5434 9.8692 57.7291 10.0549 57.9581 10.0549Z" fill="#1E1E1E"/>
<path d="M58.6667 8.74964L57.568 8.74591C57.5177 8.74398 57.47 8.72261 57.4351 8.68629C57.4001 8.64997 57.3806 8.60153 57.3806 8.55112C57.3806 8.50071 57.4001 8.45226 57.4351 8.41594C57.47 8.37962 57.5177 8.35825 57.568 8.35632L58.6667 8.36004C58.717 8.36198 58.7647 8.38334 58.7996 8.41966C58.8346 8.45598 58.8541 8.50443 58.8541 8.55484C58.8541 8.60525 58.8346 8.6537 58.7996 8.69002C58.7647 8.72634 58.717 8.7477 58.6667 8.74964Z" fill="#1E1E1E"/>
<path d="M53.7856 9.19474C53.7381 9.19476 53.6922 9.17738 53.6566 9.14587C53.621 9.11437 53.5982 9.07092 53.5924 9.02373C53.5866 8.97654 53.5983 8.92886 53.6253 8.8897C53.6522 8.85054 53.6926 8.8226 53.7387 8.81116L54.819 8.54036C54.8687 8.52924 54.9207 8.53796 54.964 8.56468C55.0072 8.59139 55.0384 8.63398 55.0507 8.68334C55.063 8.7327 55.0556 8.78492 55.0299 8.82886C55.0043 8.8728 54.9625 8.90497 54.9135 8.9185L53.8331 9.18901C53.8176 9.19287 53.8016 9.19479 53.7856 9.19474Z" fill="#1E1E1E"/>
<path d="M54.9109 13.2032C54.9109 13.2032 56.4431 13.3506 57.5125 12.9656C57.5125 12.9656 57.5125 13.974 56.3029 14.0845C55.0932 14.195 54.9109 13.2032 54.9109 13.2032Z" fill="white"/>
<path d="M50.9699 8.56212C50.9502 8.0669 50.9158 7.56596 50.87 7.05929L49.9113 8.72815C49.9113 8.72815 50.3174 8.6709 50.9699 8.56212C51.0387 10.3866 50.9653 12.2137 50.7498 14.0267C50.6726 14.7137 50.5781 15.3578 50.4783 15.9446C50.3752 16.5515 50.2693 17.1011 50.1635 17.582C49.8687 18.9646 46.0568 13.8006 45.467 8.79399C44.9121 4.1023 48.3491 1.29701 50.6812 0.753132C59.547 -1.31362 60.1623 5.15256 60.1623 5.15256C59.7072 6.90758 53.5 8.13274 50.9699 8.56212Z" fill="#1E1E1E"/>
<path d="M50.9699 8.56203C50.3177 8.67081 49.911 8.72806 49.911 8.72806L50.8697 7.0592C50.9158 7.56587 50.9502 8.06682 50.9699 8.56203Z" fill="#1E1E1E"/>
<path d="M52.612 11.7453C52.6515 12.2082 52.5062 12.6679 52.208 13.0241C51.9097 13.3802 51.4826 13.6038 51.0201 13.646C50.5575 13.6882 50.0971 13.5456 49.7393 13.2493C49.3815 12.953 49.1555 12.5272 49.1106 12.0647C49.0856 11.8341 49.1073 11.6007 49.1744 11.3786C49.2414 11.1565 49.3525 10.9501 49.5009 10.7718C49.6493 10.5935 49.8321 10.4469 50.0384 10.3407C50.2446 10.2345 50.4701 10.1709 50.7015 10.1537C51.9541 10.1013 52.5236 10.778 52.612 11.7453Z" fill="#E98862"/>
<g opacity="0.15">
<path d="M56.5498 12.223C56.5158 12.2229 56.4828 12.2106 56.457 12.1884C56.4311 12.1662 56.414 12.1355 56.4087 12.1019C56.4035 12.0682 56.4105 12.0337 56.4283 12.0047C56.4462 11.9757 56.4739 11.954 56.5063 11.9436L57.3474 11.6765L56.7464 10.368C56.7379 10.3509 56.733 10.3322 56.7318 10.3131C56.7307 10.294 56.7334 10.2749 56.7397 10.2568C56.7461 10.2388 56.7561 10.2222 56.7689 10.208C56.7818 10.1939 56.7974 10.1825 56.8148 10.1745C56.8322 10.1665 56.851 10.1621 56.8701 10.1614C56.8893 10.1608 56.9083 10.1641 56.9262 10.171C56.944 10.1779 56.9603 10.1883 56.9741 10.2016C56.9878 10.2149 56.9988 10.2308 57.0063 10.2484L57.6759 11.7043C57.6845 11.7226 57.689 11.7426 57.6892 11.7629C57.6894 11.7831 57.6853 11.8032 57.6772 11.8218C57.6691 11.8403 57.6571 11.857 57.6421 11.8706C57.6271 11.8842 57.6094 11.8944 57.5901 11.9006L56.5948 12.2155C56.5803 12.2204 56.5651 12.2229 56.5498 12.223Z" fill="black"/>
</g>
<path d="M67.6101 135.903L61.6424 135.193C61.9111 132.934 62.2148 130.22 62.2356 129.775C62.2356 129.803 62.2356 129.827 62.2356 129.845H68.2454C68.2451 130.025 68.2451 130.573 67.6101 135.903Z" fill="#E98862"/>
<path d="M43.6638 136.621L37.654 136.602C37.654 136.602 37.6743 130.395 37.6743 129.845H43.6841C43.6841 130.396 43.6638 136.621 43.6638 136.621Z" fill="#E98862"/>
<path d="M69.8274 133.823C69.33 121.226 69.2997 107.994 69.1443 95.3635C67.0772 81.7395 65.9906 66.7971 63.4393 53.2699L63.3632 53.2925L63.1394 51.7668L41.3678 50.4229L40.6019 64.6496C39.5059 83.7084 37.3873 114.348 36.1055 133.662L46.6563 134.554C48.5408 115.558 51.3274 85.2965 53.0301 66.5747C54.8989 76.1144 56.9473 86.8574 58.6063 96.5102C58.9695 108.842 59.2734 121.692 59.2402 134.003L69.8274 133.823Z" fill="#262626"/>
<path d="M50.9696 138.947C51.1312 138.947 51.291 138.912 51.4388 138.847C51.5867 138.782 51.7195 138.687 51.829 138.568C51.9385 138.449 52.0223 138.309 52.0752 138.156C52.128 138.003 52.1489 137.841 52.1364 137.68C52.1189 137.457 52.038 137.243 51.9032 137.064C51.7684 136.885 51.5853 136.748 51.3754 136.67L44.3804 134.326C44.2449 134.281 44.1013 134.266 43.9594 134.282C43.8176 134.298 43.6808 134.344 43.5584 134.418C42.5969 135.085 41.4465 135.426 40.2765 135.391C39.3654 135.326 38.4908 135.007 37.7525 134.469C37.6875 134.415 37.6088 134.382 37.5255 134.371C37.4422 134.361 37.3577 134.375 37.2819 134.411C37.206 134.447 37.142 134.504 37.0972 134.575C37.0524 134.646 37.0288 134.728 37.029 134.812V138.233C37.029 138.334 37.0489 138.434 37.0876 138.527C37.1263 138.621 37.1831 138.705 37.2546 138.777C37.3261 138.848 37.4109 138.904 37.5043 138.943C37.5976 138.981 37.6976 139 37.7985 139L50.9696 138.947Z" fill="#0A6847"/>
<path d="M74.9325 138.947C75.0941 138.946 75.2538 138.912 75.4017 138.847C75.5495 138.782 75.6823 138.687 75.7918 138.568C75.9012 138.449 75.985 138.309 76.0379 138.156C76.0907 138.003 76.1115 137.841 76.099 137.68C76.0816 137.457 76.0008 137.243 75.8661 137.064C75.7313 136.885 75.5482 136.748 75.3383 136.67L68.3432 134.326C68.2078 134.281 68.0642 134.266 67.9223 134.282C67.7805 134.298 67.6437 134.344 67.5213 134.418C66.5598 135.085 65.4094 135.426 64.2394 135.391C63.3282 135.326 62.4535 135.007 61.7151 134.468C61.6502 134.415 61.5715 134.381 61.4882 134.371C61.4049 134.361 61.3204 134.375 61.2445 134.411C61.1687 134.447 61.1047 134.504 61.0599 134.575C61.0152 134.646 60.9916 134.728 60.9919 134.812V138.233C60.9919 138.334 61.0118 138.434 61.0505 138.527C61.0892 138.621 61.146 138.705 61.2175 138.776C61.289 138.848 61.3738 138.904 61.4672 138.942C61.5605 138.981 61.6605 139 61.7614 139L74.9325 138.947Z" fill="#0A6847"/>
<path d="M31.6491 59.5693L35.077 58.4243V60.1556L35.1574 60.0305C35.1574 60.9061 35.6196 63.8319 34.8764 64.0412C34.5936 64.1208 34.2791 63.2737 34.0865 62.6425C33.3479 63.8877 33.0717 66.8719 32.973 68.5542C32.9662 68.6656 32.9261 68.7723 32.8577 68.8605C32.7894 68.9486 32.6961 69.0141 32.59 69.0484C32.4839 69.0827 32.3699 69.0843 32.2629 69.0528C32.1559 69.0213 32.0609 68.9583 31.9903 68.872C29.2226 65.4773 31.6491 59.5693 31.6491 59.5693Z" fill="#E98862"/>
<path d="M89.2289 44.3152C90.0588 44.5098 92.9377 44.7217 92.9709 45.4737C92.9907 45.9242 90.8051 45.9391 90.8051 45.9391" fill="#E98862"/>
<path d="M97.5761 49.1243C97.8578 47.9216 95.3036 46.2948 91.8714 45.4906C88.4391 44.6864 85.4283 45.0095 85.1467 46.2121C84.8651 47.4147 87.4192 49.0416 90.8515 49.8457C94.2838 50.6499 97.2945 50.3269 97.5761 49.1243Z" fill="#E98862"/>
<path d="M74.2892 37.972L63.6325 22.0415L63.5692 22.0838C62.6535 20.6863 61.0809 19.7938 58.483 19.6827C58.3027 19.6742 58.0136 19.6684 57.6416 19.6627C57.5672 21.2371 47.8199 21.2314 47.6139 19.6255C44.8609 19.6284 42.6029 20.4728 41.2951 21.781C40.6868 22.3832 40.2203 23.1133 39.9294 23.9184L39.8945 23.903L32.977 39.4829C32.8569 39.7536 32.776 40.0401 32.7366 40.3336L30.0488 60.3221L36.2331 61.1543L38.8611 41.608L41.587 35.4693C42.0238 36.9369 42.27 38.4546 42.3196 39.985C42.3196 45.9992 39.6009 48.6928 39.8012 51.7786C40.116 56.6277 63.6771 55.4827 64.8762 52.7261C66.1125 49.8865 63.6027 48.1346 63.7143 38.8428C63.7593 37.2122 63.8888 35.5849 64.1021 33.9676L69.6746 42.2976C70.0457 42.8525 70.5848 43.2738 71.2128 43.4999L88.6574 49.7688L90.7668 43.8946L74.2892 37.972Z" fill="#0A6847"/>
<path d="M57.6416 19.6638C57.5672 21.2382 56.7115 23.554 54.0701 23.7286C50.5501 23.9605 47.8199 21.2325 47.6139 19.6266H47.6225C51.0881 19.6266 55.6212 19.6323 57.6416 19.6638Z" fill="#E98862"/>
<path d="M102.427 58.0187L89.8602 52.6528L96.784 36.4261L106.677 40.6501L108.145 44.619L102.427 58.0187Z" fill="#EAEAEA"/>
<path d="M106.707 40.5775L105.501 43.4044L108.176 44.5464L106.707 40.5775Z" fill="#D5D5D5"/>
<path d="M106.384 45.5887L96.0961 41.1962L95.9386 41.5652L106.227 45.9578L106.384 45.5887Z" fill="#FAFAFA"/>
<path d="M105.866 46.8038L95.5775 42.4113L95.4201 42.7803L105.708 47.1729L105.866 46.8038Z" fill="#FAFAFA"/>
<path d="M105.347 48.019L95.059 43.6265L94.9015 43.9955L105.19 48.3881L105.347 48.019Z" fill="#FAFAFA"/>
<path d="M104.829 49.2342L94.5404 44.8417L94.3829 45.2108L104.671 49.6033L104.829 49.2342Z" fill="#FAFAFA"/>
<path d="M104.31 50.4493L94.0219 46.0568L93.8644 46.4258L104.152 50.8184L104.31 50.4493Z" fill="#FAFAFA"/>
<path d="M103.791 51.6645L93.5034 47.272L93.3459 47.641L103.634 52.0336L103.791 51.6645Z" fill="#FAFAFA"/>
<path d="M103.273 52.8797L92.9848 48.4872L92.8273 48.8563L103.115 53.2488L103.273 52.8797Z" fill="#FAFAFA"/>
<path d="M102.754 54.0949L92.4662 49.7024L92.3088 50.0715L102.597 54.464L102.754 54.0949Z" fill="#FAFAFA"/>
<path d="M102.236 55.31L91.9477 50.9175L91.7902 51.2866L102.078 55.6791L102.236 55.31Z" fill="#FAFAFA"/>
<path d="M102.851 43.5137L102.46 43.3468L97.5788 54.7856L97.9697 54.9525L102.851 43.5137Z" fill="#EAEAEA"/>
<path d="M103.685 43.8698L103.294 43.7029L98.4129 55.1417L98.8038 55.3086L103.685 43.8698Z" fill="#EAEAEA"/>
<path d="M104.519 44.226L104.128 44.0591L99.247 55.4979L99.6379 55.6648L104.519 44.226Z" fill="#EAEAEA"/>
<path d="M105.353 44.5821L104.962 44.4152L100.081 55.854L100.472 56.0209L105.353 44.5821Z" fill="#EAEAEA"/>
<path d="M106.187 44.9383L105.797 44.7714L100.915 56.2102L101.306 56.3771L106.187 44.9383Z" fill="#EAEAEA"/>
<path d="M134.46 66.6549H89.8905V71.7577H134.46V66.6549Z" fill="#DC8070"/>
<path opacity="0.12" d="M134.429 66.697H89.8601V71.7998H134.429V66.697Z" fill="#312810"/>
</svg>
