<svg width="144" height="190" viewBox="0 0 144 190" fill="none" xmlns="http://www.w3.org/2000/svg">
<g clip-path="url(#clip0_2179_3800)">
<path d="M71.913 190C111.63 190 143.826 157.804 143.826 118.087C143.826 78.3706 111.63 46.1741 71.913 46.1741C32.1966 46.1741 0 78.3706 0 118.087C0 157.804 32.1966 190 71.913 190Z" fill="#0A6847"/>
<path opacity="0.86" d="M71.913 190C111.63 190 143.826 157.804 143.826 118.087C143.826 78.3706 111.63 46.1741 71.913 46.1741C32.1966 46.1741 0 78.3706 0 118.087C0 157.804 32.1966 190 71.913 190Z" fill="white"/>
<path opacity="0.1" d="M34.0548 119.193L49.0452 140.529L23.9813 144.699L15.5867 133.371L34.0548 119.193Z" fill="#0A6847"/>
<path opacity="0.1" d="M130.592 86.3826L120.518 77.9954L109.325 93.8346L112.827 97.8855L130.592 86.3826Z" fill="#0A6847"/>
<path opacity="0.1" d="M27.6191 93.8346L36.8824 86.9194L44.6952 99.6146L35.6803 104.35L27.6191 93.8346Z" fill="#0A6847"/>
<path opacity="0.1" d="M82.2883 170.525L92.9484 161.851L99.532 170.525L87.6603 178.64L82.2883 170.525Z" fill="#0A6847"/>
<path opacity="0.1" d="M39.6099 107.846L49.2836 100.778L56.9996 110.924L52.8025 115.211L59.054 123.275L64.8346 119.193L71.57 127.713L59.054 136.947L39.6099 107.846Z" fill="#0A6847"/>
<path d="M143.72 122.015L107.694 146.407L124.289 167.363C123.795 167.89 123.293 168.408 122.782 168.917L105.942 147.651L76.6812 169.463L89.641 187.798C88.8949 187.989 88.1441 188.166 87.3885 188.33L74.3262 169.847L55.9985 144.29L23.9125 150.754L26.4797 173.83C25.6692 173.17 24.8747 172.492 24.096 171.797L21.71 150.347L0.400422 125.695C0.271706 124.499 0.174772 123.293 0.109619 122.079L23.1402 148.723L54.6255 142.378L10.4348 80.7591C10.8352 80.0988 11.2468 79.4457 11.6695 78.7997L56.9322 141.913L57.1801 141.863L90.1981 118.63L66.8099 88.2675L70.1875 46.1965C70.762 46.1822 71.3372 46.175 71.9133 46.175C72.0563 46.175 72.1993 46.175 72.3423 46.1774L69.0148 87.6144L91.9548 117.393L136.359 86.1485C136.684 86.7968 136.997 87.4515 137.299 88.1126L58.2408 143.739L75.4363 167.716L106.33 144.686L106.359 144.722L143.813 119.362C143.799 120.251 143.768 121.133 143.72 122.015Z" fill="white"/>
<path d="M71.9111 3.05664C49.2757 3.05664 30.999 21.3524 30.999 43.9187C30.999 51.0145 33.6925 59.007 35.9906 63.5075C43.5343 78.2901 71.4565 119.624 71.4565 119.624C71.5037 119.703 71.5706 119.769 71.6506 119.814C71.7306 119.859 71.821 119.883 71.913 119.883C72.005 119.883 72.0954 119.859 72.1754 119.814C72.2554 119.769 72.3223 119.703 72.3695 119.624C72.3695 119.624 100.291 78.2901 107.835 63.5075C110.132 59.0061 112.827 51.0145 112.827 43.9187C112.827 21.3514 94.5498 3.05664 71.9147 3.05664H71.9111Z" fill="#0A6847"/>
<path opacity="0.12" d="M71.9111 3.05664C49.2757 3.05664 30.999 21.3524 30.999 43.9187C30.999 51.0145 33.6925 59.007 35.9906 63.5075C43.5343 78.2901 71.4565 119.624 71.4565 119.624C71.5037 119.703 71.5706 119.769 71.6506 119.814C71.7306 119.859 71.821 119.883 71.913 119.883C72.005 119.883 72.0954 119.859 72.1754 119.814C72.2554 119.769 72.3223 119.703 72.3695 119.624C72.3695 119.624 100.291 78.2901 107.835 63.5075C110.132 59.0061 112.827 51.0145 112.827 43.9187C112.827 21.3514 94.5498 3.05664 71.9147 3.05664H71.9111Z" fill="white"/>
<path d="M71.032 9.46471C71.3257 9.45732 71.6165 9.46471 71.9118 9.46471C76.448 9.46476 80.939 10.3664 85.1236 12.1173C89.3083 13.8681 93.1032 16.4333 96.2878 19.6636C99.4725 22.8939 101.983 26.725 103.674 30.9342C105.365 35.1434 106.203 39.6467 106.138 44.1825C105.881 62.6179 90.8347 77.6652 72.3983 77.9208C63.368 78.0264 54.6617 74.5597 48.1756 68.2757C41.6895 61.9917 37.949 53.3994 37.7688 44.3703C37.5886 35.3411 40.9832 26.6065 47.2134 20.0687C53.4436 13.5309 62.0047 9.71951 71.032 9.46471Z" fill="white"/>
<path d="M82.2883 0.54248C82.2883 0.54248 92.1911 0.663568 88.7768 14.3108L87.8472 14.3561L85.9596 14.4481L82.2883 0.54248Z" fill="#0C0C0C"/>
<path d="M71.231 28.6289C71.2772 28.6246 71.4595 37.1368 81.354 36.7793C88.2038 36.5325 90.9202 29.3807 91.0768 29.3867C90.3464 29.2017 89.1153 28.9259 88.7949 28.7388C87.7418 28.1191 86.4351 27.4662 86.1689 25.3643C86.0159 24.1527 86.5937 18.0075 86.5367 16.7854L75.962 18.7188C76.0085 21.2967 76.8024 27.2998 73.1679 28.2156C72.5632 28.367 71.9141 28.5026 71.231 28.6289Z" fill="#E98862"/>
<path opacity="0.52" d="M75.5371 25.8669C75.722 25.3441 75.8489 24.8025 75.9156 24.252C76.0799 22.9963 76.1062 21.7264 75.994 20.4649C78.1361 20.26 80.1777 19.4584 81.8869 18.1511C82.0537 18.8777 83.0024 22.0603 82.6794 22.7325C82.0682 24.0032 79.354 26.0152 75.5371 25.8669Z" fill="#0C0C0C"/>
<path d="M77.9377 24.3631C82.0829 24.0672 87.0839 21.5425 87.2577 15.9262L87.4143 10.8584C87.5881 5.24208 84.7792 0.597827 79.4909 0.434072C74.2028 0.270556 70.1094 4.70076 69.9356 10.3178L69.8663 12.5612C69.8559 13.3319 69.898 14.1024 69.9924 14.8674C70.2269 16.8911 70.5914 19.9684 71.9231 22.0695C73.1819 24.0532 75.2893 24.5514 77.9377 24.3631Z" fill="#E98862"/>
<path d="M86.8764 17.627C88.4835 17.6768 89.8393 15.9978 89.8891 14.3908C89.9389 12.7837 88.6634 11.8572 87.0564 11.8076L86.1949 12.8588L85.4946 17.5843L86.8764 17.627Z" fill="#E98862"/>
<path d="M70.2075 16.5633C70.4978 16.9076 70.8696 17.1738 71.289 17.3377C71.7085 17.5015 72.1622 17.5579 72.609 17.5015C73.5644 17.3823 74.1987 17.7735 74.9965 17.6946C75.6663 17.6286 75.7831 17.3194 76.9251 17.2517C81.3379 16.9895 84.648 16.7123 84.8637 11.1751L87.6716 8.68115C87.6716 8.68115 88.9266 24.0248 80.6275 26.0645C75.528 27.3178 70.7448 26.8592 70.1298 22.0695C69.6302 18.1778 70.2075 16.5633 70.2075 16.5633Z" fill="#0C0C0C"/>
<path d="M72.2982 13.3593C72.6581 13.3593 72.9499 13.0675 72.9499 12.7076C72.9499 12.3477 72.6581 12.0559 72.2982 12.0559C71.9383 12.0559 71.6465 12.3477 71.6465 12.7076C71.6465 13.0675 71.9383 13.3593 72.2982 13.3593Z" fill="#0C0C0C"/>
<path d="M78.1195 13.2377C78.4794 13.2377 78.7711 12.9459 78.7711 12.586C78.7711 12.2261 78.4794 11.9343 78.1195 11.9343C77.7595 11.9343 77.4678 12.2261 77.4678 12.586C77.4678 12.9459 77.7595 13.2377 78.1195 13.2377Z" fill="#0C0C0C"/>
<path d="M85.3241 15.0149C85.3241 15.0149 84.9261 7.05594 82.5246 6.52106C80.9254 6.16495 76.991 8.37123 73.3977 7.61753C71.8245 7.28811 70.3209 7.65114 70.1559 8.39364C70.0902 8.68754 68.8449 6.08009 71.3749 2.90724C73.3886 0.3806 79.9362 -0.329482 82.8492 0.563901C90.9142 3.03787 87.3814 12.1636 87.3814 12.1636L86.9698 14.8976L85.3241 15.0149Z" fill="#0C0C0C"/>
<path d="M88.9895 8.59726C91.3636 8.59726 93.2882 6.6727 93.2882 4.29863C93.2882 1.92456 91.3636 0 88.9895 0C86.6155 0 84.6909 1.92456 84.6909 4.29863C84.6909 6.6727 86.6155 8.59726 88.9895 8.59726Z" fill="#0C0C0C"/>
<path d="M75.0754 17.4391H75.0649C74.5472 17.4246 73.68 17.3423 73.6905 16.9548C73.7001 16.6337 74.6766 13.1934 74.787 12.8022C74.7909 12.7848 74.7984 12.7682 74.8089 12.7537C74.8194 12.7392 74.8328 12.727 74.8482 12.7178C74.8636 12.7086 74.8807 12.7027 74.8985 12.7004C74.9163 12.698 74.9344 12.6993 74.9516 12.7042C74.9689 12.709 74.985 12.7174 74.9989 12.7286C75.0128 12.7399 75.0243 12.7539 75.0327 12.7698C75.041 12.7857 75.0461 12.8031 75.0475 12.8209C75.0489 12.8388 75.0466 12.8568 75.0408 12.8738C74.6075 14.3971 73.9608 16.744 73.9544 16.9621C74.0021 17.0551 74.5362 17.1602 75.0723 17.1755C75.1073 17.1751 75.141 17.1886 75.166 17.213C75.191 17.2374 75.2053 17.2708 75.2057 17.3057C75.2061 17.3407 75.1926 17.3744 75.1682 17.3994C75.1437 17.4244 75.1104 17.4387 75.0754 17.4391Z" fill="#0C0C0C"/>
<path d="M73.498 10.4936C72.9628 10.3346 72.3946 10.3228 71.8533 10.4595C71.5871 10.5251 71.3322 10.6302 71.0972 10.7713C70.8645 10.9098 70.6502 11.0771 70.4593 11.2692C70.4429 11.2839 70.4296 11.3017 70.4201 11.3215C70.4105 11.3414 70.405 11.3629 70.4038 11.3848C70.4026 11.4068 70.4057 11.4288 70.413 11.4496C70.4203 11.4703 70.4316 11.4894 70.4463 11.5058C70.461 11.5222 70.4788 11.5355 70.4986 11.5451C70.5184 11.5546 70.5399 11.5601 70.5619 11.5613C70.5839 11.5625 70.6059 11.5594 70.6266 11.5521C70.6474 11.5448 70.6665 11.5335 70.6829 11.5188L70.6931 11.5102C70.8709 11.3499 71.0682 11.2126 71.2802 11.1014C71.4891 10.9908 71.7134 10.9123 71.9457 10.8688C72.4042 10.779 72.8782 10.8119 73.3199 10.9641L73.3368 10.9703C73.3995 10.9934 73.4688 10.9905 73.5294 10.9625C73.5899 10.9344 73.6369 10.8834 73.6599 10.8208C73.6829 10.7581 73.6801 10.6888 73.6521 10.6282C73.624 10.5676 73.573 10.5207 73.5103 10.4977L73.498 10.4936Z" fill="#0C0C0C"/>
<path d="M77.3381 10.966C77.7629 10.7712 78.2316 10.6922 78.6968 10.7369C78.9322 10.7577 79.1632 10.814 79.3818 10.9038C79.6036 10.9939 79.8133 11.1114 80.0058 11.2537L80.0166 11.2608C80.0343 11.2739 80.0544 11.2833 80.0757 11.2886C80.0971 11.2939 80.1192 11.2949 80.141 11.2916C80.1627 11.2883 80.1836 11.2807 80.2024 11.2694C80.2212 11.258 80.2376 11.243 80.2506 11.2253C80.2637 11.2076 80.2731 11.1875 80.2784 11.1662C80.2836 11.1449 80.2847 11.1227 80.2814 11.1009C80.2781 11.0792 80.2705 11.0583 80.2592 11.0395C80.2478 11.0207 80.2328 11.0043 80.2151 10.9913C80.0066 10.8185 79.777 10.6727 79.532 10.5574C79.2844 10.4398 79.0205 10.3599 78.7492 10.3205C78.1974 10.2371 77.6334 10.304 77.1164 10.5141C77.0859 10.5267 77.0581 10.5453 77.0348 10.5687C77.0114 10.5921 76.9929 10.6199 76.9803 10.6504C76.9676 10.681 76.9612 10.7137 76.9612 10.7468C76.9612 10.7799 76.9677 10.8126 76.9804 10.8431C76.9931 10.8737 77.0117 10.9014 77.0351 10.9248C77.0585 10.9481 77.0862 10.9666 77.1168 10.9793C77.1473 10.9919 77.1801 10.9984 77.2132 10.9983C77.2462 10.9983 77.2789 10.9918 77.3095 10.9791L77.3216 10.9739L77.3381 10.966Z" fill="#0C0C0C"/>
<path d="M48.7616 28.8599L49.0443 21.8606C49.0505 21.7068 49.0246 21.5535 48.9682 21.4102C48.9119 21.267 48.8263 21.1371 48.717 21.0288C48.6077 20.9204 48.4771 20.836 48.3334 20.7809C48.1896 20.7259 48.036 20.7013 47.8823 20.7088C47.5988 20.7315 47.3339 20.8587 47.1389 21.0657C46.9439 21.2728 46.8328 21.5448 46.8271 21.8292L46.7665 23.3308L44.7908 18.5223C44.5805 17.9841 43.9779 17.4581 43.3897 17.7338C43.1566 17.8254 42.9613 17.9932 42.8358 18.2098C42.7103 18.4265 42.6619 18.6793 42.6984 18.9271C42.6928 18.9278 42.6873 18.929 42.682 18.9307C42.6779 18.9326 42.6751 18.9357 42.6712 18.9378L42.3471 18.1078C42.2869 17.9541 42.1933 17.8156 42.0729 17.7027C41.9525 17.5897 41.8084 17.505 41.6511 17.4547C41.4939 17.4045 41.3274 17.39 41.1638 17.4122C41.0002 17.4345 40.8436 17.493 40.7055 17.5834C40.4909 17.7303 40.3333 17.9464 40.259 18.1955C40.1848 18.4447 40.1983 18.7118 40.2974 18.9521L40.4344 19.3073C40.426 19.3159 40.4193 19.326 40.4144 19.3371C40.2658 19.1201 40.0449 18.963 39.7911 18.894C39.5374 18.8249 39.2673 18.8484 39.0293 18.9602C38.7724 19.0902 38.574 19.3123 38.4736 19.5822C38.3732 19.8521 38.3782 20.1498 38.4877 20.4161L38.8307 21.2933C38.8171 21.2844 38.8016 21.2788 38.7854 21.277C38.7692 21.2752 38.7528 21.2773 38.7375 21.2831C38.7198 21.291 38.7048 21.3038 38.6942 21.32C38.5081 21.1635 38.2759 21.0725 38.033 21.0609C37.7902 21.0493 37.5503 21.1178 37.3503 21.2559C37.143 21.4051 36.9921 21.6199 36.9222 21.8656C36.8523 22.1112 36.8674 22.3733 36.9651 22.6093L39.8578 30.0119C40.2626 31.0474 40.9674 31.9385 41.8818 32.5709C42.7963 33.2033 43.8788 33.5482 44.9905 33.5614C45.9491 33.5727 46.8744 33.2098 47.5698 32.5499C48.2652 31.8899 48.6759 30.9848 48.7147 30.0269L48.7616 28.8599Z" fill="#E98862"/>
<g opacity="0.2">
<path d="M44.6294 23.6949C44.6045 23.7044 44.5768 23.7038 44.5523 23.6932C44.5278 23.6826 44.5085 23.6629 44.4983 23.6382L42.6253 19.0642C42.62 19.0518 42.6173 19.0384 42.6172 19.0249C42.6171 19.0113 42.6198 18.9979 42.6249 18.9854C42.6301 18.9729 42.6376 18.9615 42.6472 18.952C42.6568 18.9424 42.6682 18.9349 42.6807 18.9297C42.6932 18.9246 42.7066 18.922 42.7202 18.9221C42.7337 18.9222 42.7471 18.925 42.7595 18.9303C42.772 18.9356 42.7832 18.9433 42.7927 18.953C42.8021 18.9627 42.8096 18.9742 42.8145 18.9868L44.6876 23.5607C44.6927 23.5731 44.6953 23.5865 44.6952 23.5999C44.6952 23.6134 44.6925 23.6267 44.6873 23.6391C44.6821 23.6515 44.6745 23.6627 44.6649 23.6722C44.6554 23.6816 44.644 23.6891 44.6316 23.6942L44.6294 23.6949Z" fill="#0C0C0C"/>
</g>
<g opacity="0.2">
<path d="M42.635 24.5766C42.61 24.5861 42.5824 24.5855 42.5579 24.5749C42.5334 24.5643 42.514 24.5445 42.5039 24.5198L40.4134 19.4153C40.4083 19.4029 40.4057 19.3896 40.4058 19.3762C40.4058 19.3628 40.4085 19.3495 40.4137 19.3371C40.4189 19.3247 40.4264 19.3135 40.436 19.304C40.4455 19.2946 40.4568 19.2871 40.4692 19.2821C40.4944 19.2727 40.5222 19.2732 40.547 19.2836C40.5718 19.2939 40.5917 19.3133 40.6027 19.3378L42.6931 24.4424C42.7034 24.4675 42.7032 24.4957 42.6927 24.5207C42.6822 24.5457 42.6622 24.5655 42.6371 24.5758L42.635 24.5766Z" fill="#0C0C0C"/>
</g>
<g opacity="0.2">
<path d="M40.4801 25.5439C40.4552 25.5535 40.4275 25.5529 40.403 25.5423C40.3785 25.5317 40.3591 25.5119 40.349 25.4872L38.6805 21.4155C38.6754 21.4031 38.6728 21.3897 38.6729 21.3763C38.6729 21.3629 38.6756 21.3496 38.6808 21.3372C38.686 21.3248 38.6936 21.3135 38.7032 21.3041C38.7127 21.2946 38.724 21.2871 38.7365 21.282C38.7489 21.2769 38.7622 21.2744 38.7757 21.2744C38.7891 21.2745 38.8024 21.2772 38.8148 21.2824C38.8272 21.2876 38.8385 21.2952 38.8479 21.3047C38.8574 21.3143 38.8649 21.3256 38.87 21.338L40.5385 25.4097C40.5488 25.4349 40.5486 25.463 40.5382 25.488C40.5277 25.513 40.5078 25.5329 40.4827 25.5432L40.4801 25.5439Z" fill="#0C0C0C"/>
</g>
<path d="M73.9276 18.8677C75.4901 18.9715 77.0426 18.5515 78.3397 17.6743C78.3848 17.6444 78.4374 17.628 78.4914 17.6268C78.5454 17.6256 78.5987 17.6397 78.645 17.6676C78.6913 17.6954 78.7288 17.7358 78.7531 17.7841C78.7774 17.8323 78.7876 17.8865 78.7824 17.9403C78.6782 18.8635 78.222 20.5606 76.2857 20.7768C75.0355 20.9162 74.1295 19.9561 73.6731 19.3178C73.6419 19.2735 73.6239 19.2213 73.6212 19.1672C73.6185 19.1131 73.6313 19.0593 73.6579 19.0122C73.6846 18.9651 73.7241 18.9264 73.7718 18.9009C73.8196 18.8753 73.8736 18.8638 73.9276 18.8677Z" fill="white"/>
<path d="M104.331 38.124C103.393 35.4567 102.635 34.1267 101.672 33.0748C100.353 31.6351 98.3687 30.2175 94.6898 29.5742C92.4423 29.1833 89.0547 28.8314 89.0547 28.8314C89.0545 28.8374 89.054 28.8434 89.053 28.8493C89.0139 29.2028 88.3141 34.6415 81.6657 34.6961C72.5047 34.7726 73.1626 28.4796 73.143 28.2224C73.1447 28.2174 73.1447 28.2141 73.143 28.2141C70.301 28.1035 63.215 28.0398 60.3616 30.8313C60.0625 31.1217 59.7869 31.4354 59.5375 31.7695L59.4985 31.7457L52.9575 41.8017L51.3238 28.4486L48.7621 28.8591L40.448 30.1913L39.9675 30.2678L37.0051 30.7445L38.0377 38.7478L40.4039 57.0958C42.713 62.5107 46.3765 67.2404 51.0421 70.83C52.9728 68.1053 56.1669 63.405 59.4834 58.4785C59.5354 58.4003 59.5876 58.3221 59.6412 58.244V58.2456C59.6412 58.2993 59.6429 58.3546 59.6446 58.4101C59.6527 58.7619 59.6624 59.1609 59.6706 59.6005C59.7487 63.6379 59.8286 71.0383 59.8937 75.7565C65.7972 77.9675 72.1974 78.5019 78.3859 77.3004C84.5743 76.0989 90.3096 73.2084 94.9568 68.9488C94.9895 68.9212 95.0204 68.8918 95.0521 68.8609C95.1141 68.8056 95.1761 68.7486 95.2362 68.6916C98.4156 65.7259 101.006 62.1861 102.871 58.2585C104.932 53.9167 106.045 49.1861 106.137 44.381V44.3794L104.331 38.124Z" fill="#F3CA52"/>
<path d="M95.2348 68.6903C95.1747 68.7473 95.1128 68.8043 95.0508 68.8596C95.02 68.8905 94.9891 68.9199 94.9554 68.9475L93.1885 59.956L93.1868 59.9462L90.6602 47.0947L90.9793 47.0117L95.2348 68.6903Z" fill="#0C0C0C"/>
<path d="M59.6859 59.601C59.6447 59.5993 59.6056 59.5822 59.5764 59.553C59.5472 59.5239 59.53 59.4849 59.5281 59.4437L59.2013 52.2585C59.2004 52.2368 59.2036 52.2152 59.211 52.1949C59.2184 52.1745 59.2297 52.1559 59.2442 52.1399C59.2588 52.1239 59.2764 52.1109 59.296 52.1018C59.3156 52.0926 59.3368 52.0873 59.3584 52.0864C59.38 52.0854 59.4016 52.0886 59.422 52.096C59.4423 52.1034 59.461 52.1147 59.477 52.1293C59.493 52.1438 59.5059 52.1614 59.5151 52.181C59.5243 52.2006 59.5295 52.2218 59.5305 52.2434L59.8573 59.4289C59.8583 59.4505 59.855 59.4721 59.8477 59.4924C59.8403 59.5127 59.829 59.5314 59.8144 59.5474C59.7998 59.5633 59.7822 59.5763 59.7626 59.5854C59.743 59.5946 59.7218 59.5998 59.7002 59.6007C59.6943 59.601 59.6897 59.6012 59.6859 59.601Z" fill="#0C0C0C"/>
</g>
<defs>
<clipPath id="clip0_2179_3800">
<rect width="143.826" height="190" fill="white"/>
</clipPath>
</defs>
</svg>
